<?xml version="1.0" encoding="UTF-8"?>
<!DOCTYPE svg PUBLIC "-//W3C//DTD SVG 1.1//EN" "http://www.w3.org/Graphics/SVG/1.1/DTD/svg11.dtd">
<svg xmlns="http://www.w3.org/2000/svg" version="1.1" width="1000px" height="1000px" style="shape-rendering:geometricPrecision; text-rendering:geometricPrecision; image-rendering:optimizeQuality; fill-rule:evenodd; clip-rule:evenodd" xmlns:xlink="http://www.w3.org/1999/xlink">
<g><path style="opacity:0.95" fill="#F0815D" d="M 802.5,249.5 C 791.833,244.167 781.167,238.833 770.5,233.5C 774.63,221.78 778.963,210.113 783.5,198.5C 773.115,187.396 771.782,175.229 779.5,162C 775.328,146.483 770.161,131.316 764,116.5C 756.083,102.243 746.249,89.4095 734.5,78C 726.729,74.1146 718.729,70.7813 710.5,68C 698.702,63.7085 691.368,55.5418 688.5,43.5C 689.64,30.6936 696.64,24.027 709.5,23.5C 746.196,30.0343 772.696,50.0343 789,83.5C 798.074,102.534 803.74,122.534 806,143.5C 813.357,118.043 810.69,93.7094 798,70.5C 789.264,62.4341 781.264,53.7674 774,44.5C 767.568,32.3448 769.735,22.1781 780.5,14C 790.398,10.3869 799.398,12.0536 807.5,19C 830.446,38.0569 842.946,62.5569 845,92.5C 846.856,109.874 845.189,126.874 840,143.5C 837.303,150.591 834.803,157.758 832.5,165C 834.589,169.444 835.923,174.11 836.5,179C 835.917,183.939 834.583,188.606 832.5,193C 839.036,209.576 844.869,226.409 850,243.5C 855.653,302.357 833.819,347.857 784.5,380C 772.761,386.154 762.594,384.321 754,374.5C 749.939,365.067 751.273,356.4 758,348.5C 770.366,336.465 783.033,324.799 796,313.5C 806.874,296.915 813.374,278.748 815.5,259C 814.696,246.677 812.863,234.511 810,222.5C 808.201,231.726 805.701,240.726 802.5,249.5 Z"/></g>
<g><path style="opacity:0.949" fill="#68338B" d="M 230.5,237.5 C 220.052,243.284 209.385,248.618 198.5,253.5C 195.492,244.975 192.992,236.308 191,227.5C 186.628,243.629 185.295,259.962 187,276.5C 191.053,292.937 198.053,307.937 208,321.5C 219.593,330.422 230.593,340.089 241,350.5C 246.011,355.855 248.844,362.189 249.5,369.5C 248.284,380.551 242.117,386.884 231,388.5C 220.919,386.875 212.086,382.709 204.5,376C 163.404,342.961 145.57,300.127 151,247.5C 156.436,230.525 162.269,213.692 168.5,197C 166.765,192.461 165.432,187.794 164.5,183C 165.14,177.966 166.473,173.132 168.5,168.5C 163.22,154.827 159.053,140.827 156,126.5C 153.381,100.266 157.714,75.2656 169,51.5C 176.746,39.0864 186.579,28.5864 198.5,20C 211.07,13.269 221.236,15.769 229,27.5C 231.42,35.1264 230.753,42.4598 227,49.5C 219.736,58.7674 211.736,67.4341 203,75.5C 190.744,98.3329 188.077,122.333 195,147.5C 198.295,110.42 212.795,78.5862 238.5,52C 253.869,39.3988 271.369,31.5655 291,28.5C 304.327,28.4305 311.494,35.0972 312.5,48.5C 311.858,55.3029 308.858,60.8029 303.5,65C 290.342,72.0505 277.008,78.7172 263.5,85C 253.119,96.047 244.286,108.214 237,121.5C 230.839,136.316 225.672,151.483 221.5,167C 229.239,179.91 227.906,191.744 217.5,202.5C 221.644,214.268 225.977,225.934 230.5,237.5 Z"/></g>
<g><path style="opacity:1" fill="#F9BA77" d="M 797.5,159.5 C 809.358,157.489 818.858,161.156 826,170.5C 829.185,183.624 824.352,192.458 811.5,197C 792.431,199.587 783.265,191.421 784,172.5C 787.076,166.589 791.576,162.255 797.5,159.5 Z"/></g>
<g><path style="opacity:1" fill="#B36095" d="M 190.5,163.5 C 197.722,162.594 204.389,164.094 210.5,168C 217.553,174.137 219.386,181.637 216,190.5C 208.605,200.814 198.772,203.981 186.5,200C 174.313,193.818 171.147,184.651 177,172.5C 180.871,168.331 185.371,165.331 190.5,163.5 Z"/></g>
<g><path style="opacity:0.95" fill="#68338B" d="M 770.5,233.5 C 781.167,238.833 791.833,244.167 802.5,249.5C 797.331,268.147 788.164,284.48 775,298.5C 761.347,312.828 746.514,325.661 730.5,337C 721.883,342.641 712.55,346.641 702.5,349C 690.64,351.506 681.14,348.006 674,338.5C 670.211,327.535 673.044,318.702 682.5,312C 694.34,304.167 706.673,297.167 719.5,291C 734.64,280.525 747.807,268.025 759,253.5C 763.097,246.923 766.93,240.256 770.5,233.5 Z"/></g>
<g><path style="opacity:0.956" fill="#F0815D" d="M 230.5,237.5 C 237.539,253.387 247.539,267.221 260.5,279C 266.5,283.667 272.5,288.333 278.5,293C 288.006,298.587 297.673,303.92 307.5,309C 313.904,312.735 319.737,317.235 325,322.5C 329.661,330.537 329.661,338.537 325,346.5C 319.59,351.693 313.09,354.027 305.5,353.5C 294.708,352.943 284.708,349.776 275.5,344C 252.479,328.647 232.312,310.147 215,288.5C 207.35,277.866 201.85,266.2 198.5,253.5C 209.385,248.618 220.052,243.284 230.5,237.5 Z"/></g>
</svg>
