<?xml version="1.0" encoding="UTF-8"?>
<!DOCTYPE svg PUBLIC "-//W3C//DTD SVG 1.1//EN" "http://www.w3.org/Graphics/SVG/1.1/DTD/svg11.dtd">
<svg xmlns="http://www.w3.org/2000/svg" version="1.1" width="800px" height="800px" style="shape-rendering:geometricPrecision; text-rendering:geometricPrecision; image-rendering:optimizeQuality; fill-rule:evenodd; clip-rule:evenodd" xmlns:xlink="http://www.w3.org/1999/xlink">
<g><path style="opacity:0.988" fill="#653289" d="M 406.5,335.5 C 406.369,334.761 406.536,334.094 407,333.5C 420.611,323.39 432.777,311.724 443.5,298.5C 444.325,297.614 445.325,297.281 446.5,297.5C 450.249,300.888 454.249,304.055 458.5,307C 473.333,315.582 487.999,324.415 502.5,333.5C 506.648,331.418 510.815,330.418 515,330.5C 520.083,329.693 525.25,329.193 530.5,329C 553.206,307.585 566.539,281.585 570.5,251C 572.219,244.98 573.386,238.814 574,232.5C 575.592,216.638 576.759,200.805 577.5,185C 577.361,165.069 577.028,144.402 576.5,123C 576.757,118.218 577.924,113.384 580,108.5C 582.207,103.296 586.04,99.7963 591.5,98C 601.445,95.5077 611.112,96.8411 620.5,102C 626.866,108.07 630.366,115.57 631,124.5C 631.938,145.072 633.105,165.572 634.5,186C 634.674,221.713 630.507,257.213 622,292.5C 614.435,323.476 599.268,349.976 576.5,372C 579.19,382.459 578.857,392.625 575.5,402.5C 625.951,486.92 645.117,577.92 633,675.5C 630.397,685.103 624.231,690.936 614.5,693C 590.427,697.755 578.76,687.921 579.5,663.5C 585.997,583.968 569.664,509.634 530.5,440.5C 527.881,440.232 525.381,440.565 523,441.5C 498.362,479.752 484.695,521.752 482,567.5C 480.989,599.494 481.822,631.161 484.5,662.5C 485.952,687.22 474.619,697.053 450.5,692C 441.438,690.604 434.938,685.77 431,677.5C 428.772,671.36 427.439,665.026 427,658.5C 424.627,626.166 423.46,593.999 423.5,562C 425.351,520.534 435.518,480.701 454,442.5C 460.183,431.463 466.35,420.463 472.5,409.5C 468.159,397.927 466.325,385.927 467,373.5C 446.384,361.448 426.217,348.781 406.5,335.5 Z"/></g>
<g><path style="opacity:0.986" fill="#653289" d="M 404.5,257.5 C 403.56,260.714 402.06,263.714 400,266.5C 390.833,278.333 380.333,288.833 368.5,298C 367.207,298.49 365.873,298.657 364.5,298.5C 345.531,275.582 330.364,250.248 319,222.5C 308.115,190.005 305.115,157.005 310,123.5C 313.199,109.966 321.699,102.466 335.5,101C 340.167,100.333 344.833,100.333 349.5,101C 355.9,102.399 360.066,106.233 362,112.5C 362.08,131.873 362.08,151.54 362,171.5C 367.94,204.379 382.107,233.046 404.5,257.5 Z"/></g>
<g><path style="opacity:1" fill="#f2ebc6" d="M 513.5,353.5 C 532.112,351.228 546.946,357.562 558,372.5C 565.304,394.05 557.804,407.55 535.5,413C 517.027,416.01 502.527,409.843 492,394.5C 484.916,373.406 492.083,359.74 513.5,353.5 Z"/></g>
<g><path style="opacity:1" fill="#EF805C" d="M 364.5,298.5 C 365.873,298.657 367.207,298.49 368.5,298C 380.333,288.833 390.833,278.333 400,266.5C 402.06,263.714 403.56,260.714 404.5,257.5C 420.519,230.095 427.519,200.429 425.5,168.5C 424.699,152.503 424.532,136.503 425,120.5C 426.26,110.44 431.76,104.273 441.5,102C 465.289,98.6128 477.789,108.779 479,132.5C 479.667,156.833 479.667,181.167 479,205.5C 477.17,239.497 466.337,270.164 446.5,297.5C 445.325,297.281 444.325,297.614 443.5,298.5C 432.777,311.724 420.611,323.39 407,333.5C 406.536,334.094 406.369,334.761 406.5,335.5C 385.754,349.731 364.588,363.398 343,376.5C 343.672,383.501 343.339,390.501 342,397.5C 341.488,402.038 339.988,406.204 337.5,410C 376.931,475.044 396.598,545.711 396.5,622C 396.117,638.034 395.617,654.534 395,671.5C 394.455,681.774 389.955,689.608 381.5,695C 371.624,699.091 361.624,699.424 351.5,696C 346.884,693.382 343.717,689.549 342,684.5C 340.906,654.864 339.906,625.198 339,595.5C 333.785,541.023 317.285,490.356 289.5,443.5C 286.673,441.359 284.007,441.359 281.5,443.5C 257.621,480.973 244.454,521.973 242,566.5C 240.983,598.715 241.816,630.882 244.5,663C 245.437,672.346 243.104,680.68 237.5,688C 224.384,694.184 211.384,693.851 198.5,687C 190.984,679.473 187.151,670.306 187,659.5C 184.407,626.659 183.407,593.992 184,561.5C 186.207,504.546 203.374,452.713 235.5,406C 230.626,393.843 230.293,381.509 234.5,369C 219.699,344.23 206.865,318.397 196,291.5C 181.971,251.49 175.137,210.324 175.5,168C 176.261,155.457 176.761,142.624 177,129.5C 177.034,113.569 184.867,104.402 200.5,102C 209.369,100.473 217.702,101.807 225.5,106C 228.49,109.628 230.323,113.795 231,118.5C 231.422,132.553 231.255,146.386 230.5,160C 230.558,222.165 247.558,279.165 281.5,331C 283.271,331.037 285.104,330.87 287,330.5C 294.933,331.448 302.767,332.615 310.5,334C 323.167,326.333 335.833,318.667 348.5,311C 354.02,306.97 359.353,302.803 364.5,298.5 Z"/></g>
<g><path style="opacity:1" fill="#f3ebc4" d="M 277.5,355.5 C 296.548,353.222 311.381,359.889 322,375.5C 328.835,396.052 321.669,409.218 300.5,415C 284.763,417.864 271.263,413.698 260,402.5C 249.276,388.491 250.109,375.324 262.5,363C 267.561,360.47 272.561,357.97 277.5,355.5 Z"/></g>
</svg>
