<?xml version="1.0" standalone="no"?>
<!DOCTYPE svg PUBLIC "-//W3C//DTD SVG 20010904//EN"
 "http://www.w3.org/TR/2001/REC-SVG-20010904/DTD/svg10.dtd">
<svg version="1.0" xmlns="http://www.w3.org/2000/svg"
 width="134.000000pt" height="281.000000pt" viewBox="0 0 134.000000 281.000000"
 preserveAspectRatio="xMidYMid meet">

<g transform="translate(0.000000,281.000000) scale(0.100000,-0.100000)"
fill="grey" stroke="black">
<path d="M315 2746 c-121 -121 -133 -521 -25 -817 39 -107 92 -200 146 -257
37 -38 44 -52 44 -85 0 -31 -8 -48 -41 -85 -56 -63 -140 -241 -184 -385 -108
-363 -121 -791 -28 -977 68 -135 151 -98 202 90 21 74 160 895 183 1074 l11
91 43 -3 c49 -4 43 9 64 -152 30 -225 161 -974 184 -1044 66 -206 181 -175
231 64 74 353 -39 948 -232 1218 -37 53 -47 75 -49 111 -1 41 3 51 43 95 177
198 265 683 172 954 -62 181 -177 174 -227 -14 -22 -79 -97 -501 -130 -726
l-17 -116 -37 -4 c-21 -2 -38 -3 -38 -3 0 0 -9 56 -19 125 -34 219 -110 649
-127 712 -19 77 -48 134 -73 148 -32 17 -70 11 -96 -14z" stroke-width="75"/>
</g>
</svg>