<svg id="svg" version="1.1" xmlns="http://www.w3.org/2000/svg" xmlns:xlink="http://www.w3.org/1999/xlink" width="400" height="266.6666666666667" viewBox="0, 0, 400,266.6666666666667"><g id="svgg"><path id="path0" d="M187.428 51.061 C 187.353 51.136,186.551 51.223,185.646 51.256 C 184.741 51.288,184.000 51.378,184.000 51.457 C 183.999 51.536,183.369 51.633,182.600 51.674 C 181.001 51.759,176.714 52.154,174.933 52.382 C 173.893 52.515,169.160 53.042,167.600 53.199 C 167.307 53.229,166.887 53.321,166.667 53.404 C 166.447 53.487,165.547 53.629,164.667 53.719 C 162.131 53.977,157.236 54.961,156.826 55.295 C 156.620 55.463,156.408 55.559,156.355 55.510 C 156.196 55.361,152.533 56.072,152.533 56.251 C 152.533 56.342,152.215 56.443,151.827 56.475 C 151.438 56.508,150.766 56.711,150.333 56.927 C 149.901 57.143,149.108 57.396,148.573 57.490 C 148.038 57.583,147.360 57.808,147.067 57.990 C 146.773 58.171,146.102 58.400,145.574 58.497 C 145.047 58.595,144.123 58.913,143.521 59.204 C 142.918 59.495,142.247 59.733,142.029 59.733 C 141.810 59.733,141.563 59.844,141.479 59.979 C 141.396 60.115,140.969 60.304,140.530 60.401 C 140.092 60.497,139.733 60.686,139.733 60.821 C 139.733 60.956,139.500 61.067,139.216 61.067 C 138.931 61.067,138.623 61.189,138.531 61.338 C 138.439 61.487,138.261 61.546,138.136 61.469 C 138.012 61.391,137.734 61.504,137.520 61.718 C 137.306 61.932,136.792 62.192,136.378 62.296 C 135.964 62.400,134.705 62.946,133.579 63.509 C 132.454 64.072,131.408 64.533,131.255 64.533 C 131.103 64.533,130.938 64.623,130.889 64.733 C 130.767 65.007,126.349 67.210,125.933 67.204 C 125.750 67.202,125.600 67.320,125.600 67.467 C 125.600 67.613,125.471 67.733,125.313 67.733 C 125.155 67.733,123.865 68.287,122.446 68.963 C 121.027 69.639,119.450 70.389,118.941 70.629 C 118.431 70.870,117.436 71.397,116.729 71.800 C 116.022 72.203,115.299 72.533,115.124 72.533 C 114.691 72.533,109.756 74.982,109.644 75.252 C 109.596 75.370,109.387 75.467,109.182 75.467 C 108.604 75.467,105.841 76.952,106.043 77.154 C 106.141 77.253,106.075 77.333,105.894 77.333 C 105.428 77.333,102.667 78.714,102.667 78.948 C 102.667 79.055,102.389 79.212,102.049 79.297 C 101.710 79.382,101.151 79.695,100.808 79.993 C 100.466 80.290,100.023 80.533,99.826 80.533 C 99.628 80.533,99.467 80.653,99.467 80.800 C 99.467 80.947,99.357 81.067,99.223 81.067 C 98.952 81.067,93.329 85.033,92.225 86.004 C 91.835 86.347,91.445 86.556,91.358 86.469 C 91.271 86.382,91.200 86.431,91.200 86.577 C 91.200 86.723,90.671 87.223,90.024 87.688 C 89.377 88.152,88.116 89.253,87.222 90.133 C 86.328 91.013,85.536 91.733,85.463 91.733 C 85.160 91.733,78.169 98.880,78.322 99.033 C 78.414 99.125,78.368 99.200,78.219 99.200 C 77.927 99.200,76.533 100.325,76.533 100.561 C 76.533 100.641,75.453 101.808,74.133 103.156 C 72.813 104.504,71.733 105.726,71.733 105.870 C 71.733 106.015,71.626 106.133,71.494 106.133 C 71.079 106.133,64.009 113.566,64.003 114.008 C 64.002 114.159,63.760 114.455,63.467 114.667 C 63.173 114.878,62.933 115.150,62.933 115.271 C 62.933 115.391,62.638 115.808,62.277 116.197 C 61.916 116.587,61.482 117.241,61.312 117.653 C 61.141 118.064,60.897 118.400,60.768 118.400 C 60.639 118.400,60.533 118.562,60.533 118.760 C 60.533 118.958,60.233 119.685,59.867 120.374 C 59.500 121.064,59.200 121.802,59.200 122.014 C 59.200 122.226,59.092 122.400,58.960 122.400 C 58.828 122.400,58.576 123.000,58.400 123.733 C 58.224 124.467,57.972 125.067,57.840 125.067 C 57.708 125.067,57.600 125.278,57.600 125.536 C 57.600 125.793,57.240 127.022,56.800 128.267 C 55.948 130.677,55.660 134.133,56.311 134.133 C 56.482 134.133,56.547 134.209,56.455 134.300 C 56.028 134.728,58.228 137.612,59.124 137.799 C 60.311 138.046,61.635 137.750,62.065 137.139 C 62.249 136.879,62.669 136.379,62.999 136.026 C 63.518 135.474,63.606 135.072,63.642 133.093 C 63.681 130.919,64.316 128.261,64.848 128.044 C 64.968 127.996,65.067 127.853,65.067 127.728 C 65.067 127.604,65.195 127.164,65.352 126.751 C 65.509 126.338,65.643 125.940,65.649 125.867 C 65.656 125.793,66.007 125.296,66.430 124.762 C 66.854 124.227,67.200 123.670,67.200 123.524 C 67.200 123.378,67.618 122.796,68.129 122.229 C 68.640 121.663,69.128 120.988,69.215 120.729 C 69.301 120.471,69.469 120.319,69.588 120.393 C 69.707 120.466,69.955 120.164,70.138 119.721 C 70.322 119.279,70.528 118.972,70.597 119.041 C 70.665 119.110,71.239 118.603,71.872 117.916 C 73.708 115.922,74.133 115.401,74.133 115.143 C 74.133 115.011,74.243 114.970,74.377 115.053 C 74.511 115.135,74.664 115.075,74.717 114.917 C 74.817 114.616,78.354 110.797,81.402 107.698 C 82.393 106.691,83.144 105.867,83.071 105.867 C 82.803 105.867,89.765 99.028,91.382 97.703 C 92.299 96.952,92.972 96.261,92.880 96.169 C 92.787 96.076,92.864 96.000,93.050 96.000 C 93.487 96.000,95.088 94.651,95.000 94.357 C 94.963 94.234,95.057 94.133,95.208 94.133 C 95.359 94.133,96.109 93.655,96.875 93.071 C 97.640 92.486,98.507 91.825,98.800 91.601 C 100.077 90.626,100.501 90.334,102.267 89.209 C 103.293 88.555,104.253 87.922,104.400 87.803 C 104.812 87.466,107.219 86.082,108.333 85.540 C 108.883 85.273,109.333 84.937,109.333 84.794 C 109.333 84.651,109.465 84.533,109.625 84.533 C 109.879 84.533,121.136 79.018,122.933 78.012 C 123.300 77.807,124.200 77.354,124.933 77.005 C 125.667 76.656,126.507 76.234,126.800 76.066 C 128.898 74.868,143.276 68.000,143.685 68.000 C 143.952 68.000,144.374 67.809,146.570 66.694 C 147.176 66.385,147.798 66.133,147.952 66.133 C 148.106 66.133,148.570 65.995,148.983 65.825 C 149.396 65.656,149.853 65.496,150.000 65.470 C 151.180 65.261,152.000 64.955,152.000 64.722 C 152.000 64.569,152.069 64.513,152.153 64.598 C 152.238 64.682,152.688 64.634,153.153 64.492 C 153.619 64.349,154.120 64.206,154.267 64.175 C 154.413 64.144,154.683 64.025,154.867 63.910 C 155.050 63.796,155.200 63.766,155.200 63.844 C 155.200 63.923,155.530 63.859,155.933 63.703 C 156.922 63.321,157.639 63.148,158.200 63.158 C 158.457 63.163,158.667 63.080,158.667 62.974 C 158.667 62.867,158.877 62.756,159.133 62.727 C 159.390 62.698,159.780 62.633,160.000 62.581 C 160.220 62.529,161.000 62.399,161.733 62.290 C 162.467 62.182,163.247 62.023,163.467 61.936 C 163.687 61.850,163.927 61.760,164.000 61.737 C 164.327 61.634,167.887 61.235,168.067 61.282 C 168.177 61.310,168.267 61.243,168.267 61.133 C 168.267 61.023,168.537 60.921,168.867 60.907 C 170.110 60.852,173.739 60.477,173.884 60.389 C 173.967 60.338,174.627 60.271,175.351 60.240 C 176.074 60.209,176.769 60.127,176.894 60.059 C 177.019 59.991,177.619 59.898,178.228 59.853 C 178.836 59.807,180.293 59.690,181.467 59.591 C 182.640 59.493,183.990 59.428,184.467 59.448 C 184.943 59.467,185.333 59.390,185.333 59.275 C 185.333 59.015,185.179 59.018,199.200 59.010 C 213.098 59.003,213.600 59.012,213.600 59.267 C 213.600 59.377,213.690 59.445,213.800 59.419 C 214.136 59.339,222.000 59.911,222.000 60.015 C 222.000 60.040,222.360 60.092,222.800 60.130 C 223.240 60.169,224.740 60.337,226.133 60.505 C 227.527 60.672,229.172 60.827,229.789 60.848 C 230.406 60.869,230.861 60.968,230.800 61.067 C 230.738 61.166,231.086 61.263,231.573 61.281 C 232.060 61.299,233.045 61.449,233.763 61.613 C 234.480 61.778,235.337 61.962,235.667 62.023 C 237.240 62.312,237.821 62.408,238.933 62.561 C 239.593 62.652,240.193 62.819,240.267 62.932 C 240.340 63.045,240.912 63.208,241.537 63.295 C 242.163 63.381,242.912 63.579,243.203 63.735 C 243.494 63.890,244.422 64.145,245.266 64.300 C 246.110 64.456,246.920 64.676,247.067 64.790 C 247.213 64.904,247.813 65.148,248.400 65.333 C 248.987 65.518,249.587 65.758,249.733 65.867 C 249.880 65.975,250.450 66.145,251.000 66.244 C 251.550 66.343,252.000 66.527,252.000 66.652 C 252.000 66.778,252.600 67.024,253.333 67.200 C 254.067 67.376,254.667 67.635,254.667 67.776 C 254.667 67.916,254.778 67.962,254.915 67.878 C 255.051 67.794,255.239 67.847,255.331 67.996 C 255.423 68.145,255.731 68.267,256.016 68.267 C 256.300 68.267,256.533 68.387,256.533 68.533 C 256.533 68.680,256.675 68.800,256.849 68.800 C 257.023 68.800,257.653 69.034,258.249 69.320 C 259.805 70.065,260.903 70.493,261.133 70.443 C 261.243 70.419,261.333 70.510,261.333 70.645 C 261.333 70.780,261.692 70.970,262.130 71.066 C 262.569 71.162,262.991 71.344,263.069 71.470 C 263.147 71.596,263.898 72.016,264.739 72.402 C 267.321 73.590,268.661 74.259,268.800 74.431 C 268.873 74.521,269.233 74.685,269.600 74.796 C 269.967 74.906,270.447 75.148,270.667 75.333 C 270.887 75.519,271.361 75.760,271.721 75.870 C 272.081 75.980,272.539 76.235,272.740 76.435 C 272.941 76.636,273.326 76.800,273.597 76.800 C 273.867 76.800,274.129 76.891,274.178 77.002 C 274.251 77.169,278.625 79.381,282.663 81.293 C 283.174 81.535,283.742 81.874,283.927 82.045 C 284.111 82.216,284.614 82.434,285.045 82.529 C 285.477 82.623,285.973 82.873,286.148 83.084 C 286.322 83.294,286.691 83.467,286.966 83.467 C 287.241 83.467,287.467 83.572,287.467 83.701 C 287.467 83.830,287.857 84.093,288.333 84.286 C 288.810 84.479,289.260 84.703,289.333 84.785 C 289.482 84.951,290.715 85.672,291.733 86.189 C 292.100 86.375,292.559 86.679,292.752 86.864 C 292.946 87.049,293.268 87.200,293.467 87.200 C 293.666 87.200,293.987 87.350,294.181 87.534 C 294.626 87.955,296.738 89.333,296.939 89.333 C 297.114 89.333,297.674 89.784,298.413 90.517 C 298.699 90.801,298.933 90.946,298.933 90.839 C 298.933 90.733,299.262 90.950,299.664 91.323 C 300.066 91.695,300.533 92.000,300.702 92.000 C 300.871 92.000,301.072 92.161,301.147 92.359 C 301.223 92.556,301.829 93.078,302.493 93.518 C 303.881 94.437,306.519 96.720,308.983 99.133 C 309.919 100.050,310.821 100.800,310.987 100.800 C 311.153 100.800,311.224 100.865,311.145 100.944 C 311.066 101.023,312.456 102.565,314.234 104.369 C 316.012 106.174,318.607 108.891,320.000 110.407 C 321.393 111.922,322.953 113.604,323.467 114.144 C 327.850 118.755,330.133 121.336,330.133 121.680 C 330.133 121.800,330.253 121.824,330.400 121.733 C 330.547 121.643,330.667 121.714,330.667 121.892 C 330.667 122.071,330.962 122.604,331.323 123.077 C 332.105 124.102,334.666 128.952,334.668 129.412 C 334.669 129.589,334.844 130.067,335.057 130.475 C 335.270 130.884,335.340 131.153,335.213 131.075 C 335.086 130.996,334.974 131.772,334.964 132.799 C 334.954 133.846,335.061 134.667,335.207 134.667 C 335.350 134.667,335.467 134.916,335.467 135.221 C 335.467 136.299,337.483 137.867,338.870 137.867 C 340.297 137.867,342.191 136.180,342.500 134.632 C 342.893 132.667,342.414 127.733,341.830 127.733 C 341.703 127.733,341.600 127.460,341.600 127.126 C 341.600 126.792,341.435 126.282,341.234 125.993 C 341.033 125.703,340.781 125.047,340.675 124.533 C 340.568 124.020,340.304 123.321,340.088 122.980 C 339.872 122.639,339.646 122.108,339.587 121.800 C 339.528 121.491,339.346 121.157,339.183 121.056 C 339.021 120.956,338.884 120.767,338.879 120.637 C 338.874 120.507,338.764 120.122,338.635 119.783 C 338.506 119.443,338.400 119.053,338.400 118.916 C 338.400 118.779,338.280 118.667,338.133 118.667 C 337.987 118.667,337.867 118.523,337.867 118.348 C 337.867 117.825,336.116 115.399,334.600 113.819 C 334.343 113.552,334.133 113.271,334.133 113.194 C 334.133 113.118,333.548 112.463,332.832 111.740 C 332.116 111.017,331.596 110.359,331.676 110.279 C 331.757 110.199,331.696 110.133,331.541 110.133 C 331.386 110.133,330.601 109.443,329.797 108.600 C 325.848 104.456,325.175 103.733,325.270 103.733 C 325.326 103.733,323.864 102.226,322.020 100.383 C 320.175 98.540,318.667 96.966,318.667 96.885 C 318.667 96.711,316.650 94.667,316.479 94.667 C 316.414 94.667,315.274 93.617,313.945 92.333 C 310.909 89.401,308.635 87.404,307.976 87.093 C 307.696 86.960,307.467 86.766,307.467 86.662 C 307.467 86.558,306.957 86.127,306.333 85.704 C 305.710 85.281,305.140 84.858,305.067 84.764 C 304.758 84.367,297.356 79.510,296.784 79.328 C 296.440 79.219,296.007 78.995,295.822 78.831 C 294.974 78.080,294.708 77.922,293.785 77.617 C 293.243 77.438,292.800 77.204,292.800 77.095 C 292.800 76.854,291.165 76.000,289.933 75.600 C 289.603 75.492,289.333 75.298,289.333 75.169 C 289.333 75.039,289.110 74.933,288.836 74.933 C 288.562 74.933,288.022 74.685,287.636 74.381 C 287.250 74.077,286.933 73.921,286.933 74.034 C 286.933 74.147,286.789 74.096,286.613 73.920 C 286.437 73.744,286.077 73.600,285.813 73.600 C 285.549 73.600,285.333 73.504,285.333 73.387 C 285.333 73.270,284.883 73.012,284.333 72.813 C 283.783 72.615,282.913 72.193,282.400 71.874 C 281.887 71.556,280.955 71.095,280.329 70.849 C 279.704 70.602,278.517 70.041,277.692 69.601 C 276.867 69.160,275.961 68.800,275.680 68.800 C 275.399 68.800,275.243 68.680,275.333 68.533 C 275.424 68.387,275.281 68.263,275.016 68.258 C 274.750 68.254,274.053 67.954,273.467 67.593 C 272.880 67.232,272.200 66.935,271.956 66.935 C 271.711 66.934,271.471 66.836,271.422 66.716 C 271.325 66.477,267.159 64.423,266.200 64.141 C 265.870 64.044,265.600 63.852,265.600 63.715 C 265.600 63.579,265.484 63.467,265.341 63.467 C 265.199 63.467,264.427 63.167,263.625 62.800 C 262.823 62.433,262.040 62.133,261.884 62.133 C 261.728 62.133,261.600 62.013,261.600 61.867 C 261.600 61.720,261.510 61.619,261.400 61.642 C 261.290 61.666,260.960 61.591,260.667 61.477 C 259.763 61.125,257.758 60.242,257.270 59.981 C 257.016 59.845,256.689 59.733,256.545 59.733 C 256.401 59.733,255.627 59.433,254.825 59.067 C 254.023 58.700,253.187 58.400,252.966 58.400 C 252.745 58.400,252.499 58.294,252.419 58.164 C 252.338 58.034,251.821 57.844,251.270 57.741 C 250.718 57.639,249.907 57.394,249.467 57.195 C 248.449 56.737,245.927 56.045,243.867 55.659 C 242.987 55.494,242.207 55.277,242.133 55.176 C 241.998 54.990,238.499 54.386,237.400 54.359 C 237.070 54.350,236.800 54.256,236.800 54.148 C 236.800 54.041,236.410 53.933,235.933 53.908 C 235.457 53.884,234.347 53.739,233.467 53.588 C 230.693 53.109,226.054 52.565,224.616 52.549 C 223.854 52.540,223.158 52.415,223.069 52.271 C 222.980 52.126,222.643 52.022,222.320 52.040 C 221.251 52.097,215.607 51.694,215.200 51.531 C 214.980 51.443,214.560 51.320,214.267 51.259 C 213.477 51.092,187.587 50.901,187.428 51.061 M188.258 76.621 C 188.189 76.684,187.473 76.798,186.667 76.876 C 185.860 76.953,185.020 77.079,184.800 77.155 C 184.427 77.285,183.644 77.366,178.800 77.777 C 176.526 77.971,176.466 77.979,176.133 78.160 C 175.987 78.240,175.507 78.321,175.067 78.341 C 174.627 78.360,173.247 78.465,172.000 78.573 C 170.753 78.681,169.523 78.762,169.267 78.753 C 169.010 78.744,168.800 78.820,168.800 78.922 C 168.800 79.025,168.170 79.135,167.400 79.168 C 166.630 79.201,165.640 79.271,165.200 79.324 C 164.760 79.378,163.380 79.506,162.133 79.608 C 160.887 79.711,159.747 79.867,159.600 79.957 C 159.276 80.153,159.305 80.149,156.685 80.392 C 155.522 80.500,154.022 80.754,153.352 80.958 C 152.682 81.161,151.833 81.328,151.467 81.330 C 150.760 81.332,147.605 82.141,145.600 82.835 C 144.940 83.063,144.070 83.312,143.667 83.389 C 143.263 83.465,142.933 83.634,142.933 83.764 C 142.933 83.894,142.659 84.000,142.323 84.000 C 141.987 84.000,141.244 84.239,140.671 84.531 C 140.099 84.823,139.233 85.136,138.748 85.227 C 138.263 85.318,137.867 85.498,137.867 85.627 C 137.867 85.755,137.379 85.938,136.782 86.034 C 136.186 86.129,135.553 86.352,135.375 86.529 C 135.198 86.707,134.606 86.935,134.060 87.038 C 133.514 87.140,133.067 87.325,133.067 87.449 C 133.067 87.573,132.651 87.752,132.142 87.847 C 131.633 87.943,131.063 88.171,130.875 88.353 C 130.687 88.536,129.994 88.845,129.336 89.040 C 128.677 89.234,127.900 89.560,127.610 89.763 C 127.319 89.967,126.907 90.133,126.695 90.133 C 126.483 90.133,126.119 90.294,125.888 90.491 C 125.656 90.687,124.717 91.122,123.800 91.457 C 122.883 91.791,122.133 92.170,122.133 92.299 C 122.133 92.428,122.004 92.533,121.845 92.533 C 121.474 92.533,118.042 93.895,117.867 94.112 C 117.745 94.263,116.317 94.987,116.000 95.059 C 115.635 95.142,113.981 96.114,113.661 96.435 C 113.460 96.636,113.134 96.800,112.937 96.800 C 112.739 96.800,112.538 96.891,112.489 97.001 C 112.440 97.112,111.230 97.978,109.800 98.926 C 108.370 99.874,107.200 100.743,107.200 100.858 C 107.200 100.973,107.038 101.067,106.839 101.067 C 106.640 101.067,106.154 101.367,105.759 101.733 C 105.363 102.100,104.980 102.400,104.908 102.400 C 104.644 102.400,101.867 104.604,101.867 104.814 C 101.867 104.933,101.657 105.098,101.400 105.180 C 101.143 105.263,100.453 105.747,99.867 106.256 C 98.527 107.420,98.489 107.451,97.200 108.408 C 96.614 108.844,95.972 109.320,95.775 109.467 C 95.577 109.613,95.122 110.003,94.762 110.333 C 94.403 110.663,94.021 110.933,93.914 110.933 C 93.806 110.933,93.531 111.143,93.302 111.400 C 93.073 111.657,92.296 112.363,91.576 112.970 C 89.579 114.653,88.840 115.333,85.173 118.867 C 83.308 120.663,81.711 122.135,81.625 122.138 C 81.403 122.144,80.127 123.512,80.161 123.707 C 80.177 123.795,79.851 124.117,79.437 124.422 C 79.023 124.728,77.750 125.828,76.609 126.867 C 75.467 127.907,73.968 129.258,73.277 129.870 C 72.586 130.482,71.940 131.241,71.841 131.558 C 71.742 131.874,71.545 132.208,71.403 132.300 C 70.765 132.710,70.842 135.863,71.519 137.088 C 72.687 139.198,75.488 139.520,77.159 137.734 C 77.622 137.240,78.453 136.348,79.008 135.751 C 79.562 135.155,80.152 134.667,80.319 134.667 C 80.486 134.667,80.550 134.595,80.462 134.507 C 80.375 134.419,81.015 133.755,81.885 133.030 C 82.755 132.306,83.467 131.598,83.467 131.457 C 83.467 131.316,83.603 131.200,83.770 131.200 C 83.936 131.200,84.926 130.368,85.970 129.350 C 88.190 127.186,88.341 127.048,94.734 121.333 C 95.472 120.673,96.689 119.568,97.438 118.878 C 98.187 118.187,98.888 117.615,98.996 117.607 C 99.103 117.598,99.609 117.173,100.120 116.662 C 100.631 116.151,101.130 115.733,101.230 115.733 C 101.330 115.733,101.966 115.223,102.644 114.600 C 104.551 112.846,105.929 111.733,106.192 111.733 C 106.324 111.733,106.357 111.613,106.267 111.467 C 106.176 111.320,106.259 111.199,106.451 111.197 C 106.643 111.196,107.359 110.686,108.041 110.064 C 109.837 108.428,110.383 107.992,111.353 107.420 C 111.829 107.139,112.286 106.734,112.368 106.521 C 112.450 106.308,112.679 106.133,112.878 106.133 C 113.078 106.133,113.522 105.834,113.866 105.468 C 114.210 105.102,114.543 104.855,114.607 104.919 C 114.672 104.983,115.040 104.742,115.427 104.384 C 115.813 104.025,116.521 103.603,117.000 103.445 C 117.480 103.286,117.803 103.047,117.720 102.912 C 117.637 102.777,117.750 102.667,117.973 102.667 C 118.195 102.667,119.402 102.126,120.655 101.465 C 121.908 100.804,122.933 100.323,122.933 100.395 C 122.933 100.468,123.563 100.192,124.333 99.783 C 125.103 99.374,126.243 98.876,126.867 98.677 C 127.490 98.478,128.000 98.227,128.000 98.120 C 128.000 98.012,128.330 97.844,128.733 97.747 C 129.137 97.649,129.947 97.351,130.533 97.086 C 133.611 95.692,134.150 95.467,134.401 95.467 C 134.551 95.467,134.882 95.352,135.137 95.213 C 135.392 95.073,136.080 94.763,136.667 94.524 C 137.253 94.284,137.942 93.979,138.196 93.844 C 138.451 93.710,138.843 93.600,139.067 93.600 C 139.291 93.600,139.682 93.490,139.937 93.355 C 140.716 92.942,144.020 91.778,144.267 91.829 C 144.340 91.844,144.697 91.649,145.059 91.395 C 145.422 91.141,145.930 90.933,146.189 90.933 C 146.612 90.933,150.475 89.877,151.467 89.489 C 151.687 89.404,152.287 89.269,152.800 89.192 C 155.076 88.846,156.400 88.603,156.400 88.532 C 156.400 88.458,157.390 88.335,159.667 88.126 C 160.877 88.014,161.867 87.851,161.867 87.762 C 161.867 87.673,162.137 87.592,162.467 87.583 C 163.518 87.552,167.575 87.196,168.267 87.074 C 168.633 87.009,169.674 86.896,170.580 86.821 C 171.486 86.747,172.506 86.626,172.847 86.552 C 173.188 86.477,174.427 86.352,175.600 86.274 C 177.848 86.123,179.354 85.982,181.333 85.736 C 185.391 85.233,195.002 84.725,199.600 84.771 C 206.785 84.841,210.675 85.077,220.133 86.012 C 220.821 86.080,222.676 86.239,226.027 86.517 C 226.481 86.555,226.961 86.645,227.093 86.718 C 227.225 86.791,227.894 86.874,228.579 86.903 C 229.263 86.932,230.051 87.000,230.330 87.053 C 230.608 87.107,232.027 87.235,233.484 87.337 C 234.941 87.440,236.235 87.586,236.359 87.661 C 236.483 87.735,237.803 87.950,239.292 88.137 C 242.937 88.595,246.947 89.292,247.600 89.581 C 247.893 89.711,248.853 89.995,249.733 90.214 C 252.241 90.836,254.958 91.691,256.667 92.395 C 258.822 93.284,260.482 93.874,261.267 94.029 C 261.743 94.123,262.133 94.305,262.133 94.433 C 262.133 94.562,262.314 94.667,262.534 94.667 C 262.755 94.667,263.383 94.907,263.930 95.200 C 264.478 95.493,265.091 95.733,265.293 95.733 C 265.495 95.733,266.097 95.963,266.630 96.243 C 267.164 96.524,268.200 97.012,268.933 97.329 C 269.667 97.646,270.461 98.007,270.698 98.133 C 270.935 98.258,271.625 98.494,272.231 98.657 C 272.837 98.820,273.333 99.069,273.333 99.210 C 273.333 99.351,273.468 99.467,273.633 99.467 C 274.001 99.467,277.148 100.845,277.333 101.087 C 277.467 101.262,278.683 101.696,278.933 101.658 C 279.007 101.647,279.163 101.809,279.280 102.019 C 279.397 102.229,279.683 102.400,279.915 102.400 C 280.316 102.400,282.116 103.375,282.400 103.746 C 282.473 103.842,282.826 104.074,283.183 104.263 C 283.541 104.451,283.961 104.709,284.117 104.835 C 284.272 104.962,285.039 105.532,285.820 106.103 C 287.548 107.366,288.962 108.487,289.727 109.200 C 290.041 109.493,290.771 110.087,291.349 110.520 C 292.340 111.262,292.677 111.545,294.459 113.134 C 294.859 113.490,295.505 114.010,295.895 114.291 C 296.286 114.571,296.934 115.100,297.336 115.467 C 297.738 115.833,298.516 116.493,299.064 116.933 C 299.612 117.373,300.377 118.003,300.764 118.333 C 301.150 118.663,301.564 118.933,301.682 118.933 C 301.801 118.933,301.824 119.053,301.733 119.200 C 301.643 119.347,301.685 119.467,301.828 119.467 C 302.134 119.467,302.938 120.130,305.062 122.133 C 305.917 122.940,307.492 124.380,308.562 125.333 C 309.632 126.287,311.527 128.049,312.772 129.250 C 314.018 130.452,315.152 131.363,315.293 131.276 C 315.434 131.189,315.463 131.257,315.358 131.427 C 315.249 131.603,315.356 131.810,315.603 131.905 C 315.843 131.997,316.870 132.896,317.885 133.903 C 318.899 134.910,319.821 135.734,319.932 135.735 C 320.043 135.736,320.433 136.186,320.800 136.735 C 322.631 139.476,327.312 139.466,327.487 136.720 C 327.498 136.544,327.566 136.160,327.637 135.867 C 327.884 134.850,327.912 133.890,327.690 134.027 C 327.567 134.103,327.467 133.803,327.467 133.362 C 327.467 131.838,326.301 130.214,323.909 128.407 C 323.346 127.982,322.310 127.086,321.606 126.417 C 320.902 125.748,318.363 123.333,315.963 121.050 C 308.439 113.895,307.733 113.241,307.733 113.432 C 307.733 113.534,307.344 113.194,306.869 112.676 C 306.393 112.157,305.909 111.733,305.793 111.733 C 305.677 111.733,305.226 111.369,304.791 110.924 C 304.356 110.479,304.000 110.180,304.000 110.260 C 304.000 110.385,302.918 109.501,302.030 108.649 C 301.867 108.493,301.541 108.253,301.306 108.116 C 300.863 107.858,299.459 106.734,297.414 105.000 C 296.765 104.450,296.150 104.000,296.048 104.000 C 295.945 104.000,295.562 103.729,295.197 103.398 C 294.832 103.066,294.176 102.566,293.740 102.286 C 293.304 102.005,292.824 101.677,292.674 101.555 C 292.523 101.434,291.740 100.860,290.933 100.280 C 290.127 99.700,289.345 99.121,289.196 98.994 C 289.047 98.867,288.327 98.417,287.596 97.994 C 286.865 97.571,286.207 97.160,286.133 97.079 C 285.801 96.715,284.261 95.733,284.023 95.733 C 283.877 95.733,283.315 95.433,282.775 95.067 C 282.234 94.700,281.569 94.400,281.296 94.400 C 281.023 94.400,280.800 94.292,280.800 94.159 C 280.800 93.960,280.341 93.726,278.933 93.205 C 278.243 92.949,276.925 92.375,275.600 91.752 C 274.104 91.049,272.930 90.520,270.667 89.529 C 270.153 89.304,268.533 88.622,267.067 88.013 C 265.600 87.405,264.160 86.801,263.867 86.671 C 263.573 86.541,262.853 86.290,262.267 86.111 C 261.680 85.933,260.650 85.522,259.979 85.197 C 259.307 84.872,258.137 84.447,257.379 84.252 C 256.620 84.058,256.000 83.802,256.000 83.683 C 256.000 83.564,255.837 83.467,255.637 83.467 C 255.437 83.467,254.329 83.167,253.174 82.800 C 252.018 82.433,250.802 82.133,250.470 82.133 C 250.138 82.133,249.867 82.027,249.867 81.897 C 249.867 81.768,249.181 81.576,248.343 81.471 C 247.504 81.366,246.574 81.220,246.276 81.146 C 245.978 81.071,245.433 80.989,245.067 80.964 C 244.700 80.938,244.278 80.841,244.128 80.747 C 243.978 80.654,242.958 80.499,241.861 80.402 C 240.764 80.305,239.687 80.157,239.467 80.073 C 239.247 79.988,238.942 79.892,238.789 79.858 C 238.255 79.740,232.122 79.195,230.877 79.155 C 230.187 79.133,229.673 79.030,229.737 78.928 C 229.839 78.762,224.787 78.295,223.267 78.330 C 222.937 78.337,222.667 78.257,222.667 78.151 C 222.667 78.045,222.011 77.931,221.211 77.899 C 220.410 77.867,219.512 77.793,219.216 77.737 C 218.921 77.680,217.446 77.552,215.939 77.452 C 214.433 77.353,213.032 77.136,212.826 76.969 C 212.466 76.678,188.565 76.339,188.258 76.621 M193.032 103.323 C 192.967 103.388,191.388 103.460,189.522 103.483 C 187.656 103.505,186.076 103.611,186.010 103.718 C 185.944 103.824,185.168 103.938,184.287 103.969 C 183.405 104.001,182.470 104.067,182.209 104.116 C 181.947 104.165,180.833 104.293,179.733 104.402 C 178.633 104.510,177.484 104.694,177.178 104.809 C 176.873 104.925,175.973 105.102,175.178 105.202 C 174.384 105.303,173.613 105.462,173.467 105.556 C 173.320 105.650,172.120 105.928,170.800 106.172 C 169.480 106.417,167.620 106.795,166.667 107.011 C 165.713 107.227,163.973 107.611,162.800 107.865 C 161.627 108.118,160.547 108.421,160.400 108.538 C 160.253 108.654,159.533 108.837,158.800 108.943 C 157.182 109.176,157.047 109.206,155.200 109.719 C 154.393 109.943,153.473 110.128,153.156 110.130 C 152.838 110.132,152.538 110.242,152.489 110.375 C 152.440 110.509,151.920 110.689,151.333 110.777 C 149.579 111.039,148.682 111.250,148.400 111.467 C 148.253 111.579,147.713 111.753,147.200 111.851 C 146.687 111.950,146.027 112.138,145.733 112.268 C 145.440 112.399,144.510 112.640,143.667 112.805 C 142.823 112.970,142.133 113.216,142.133 113.352 C 142.133 113.489,141.803 113.605,141.400 113.612 C 140.997 113.618,140.187 113.808,139.600 114.034 C 139.013 114.260,137.963 114.571,137.267 114.725 C 136.570 114.878,136.000 115.101,136.000 115.219 C 136.000 115.337,135.459 115.515,134.797 115.614 C 134.135 115.714,133.535 115.889,133.464 116.004 C 133.393 116.119,132.735 116.357,132.001 116.533 C 131.267 116.709,130.667 116.951,130.667 117.070 C 130.667 117.189,130.157 117.371,129.533 117.475 C 128.910 117.579,127.955 117.890,127.411 118.165 C 126.866 118.441,126.176 118.667,125.877 118.667 C 125.578 118.667,125.333 118.777,125.333 118.912 C 125.333 119.047,124.943 119.239,124.467 119.338 C 123.990 119.438,123.360 119.669,123.067 119.853 C 122.773 120.036,122.083 120.270,121.533 120.372 C 120.983 120.474,120.533 120.672,120.533 120.812 C 120.533 120.952,120.443 121.045,120.333 121.020 C 120.054 120.954,117.895 121.561,116.933 121.977 C 116.493 122.167,115.353 122.602,114.400 122.944 C 113.447 123.286,112.607 123.645,112.533 123.742 C 112.460 123.839,112.044 124.005,111.609 124.112 C 111.174 124.218,110.311 124.537,109.691 124.819 C 109.070 125.102,108.376 125.333,108.148 125.333 C 107.920 125.333,107.733 125.424,107.733 125.535 C 107.733 125.646,107.223 125.890,106.600 126.078 C 105.513 126.404,104.413 126.868,102.892 127.640 C 102.503 127.838,102.046 128.000,101.878 128.000 C 101.582 128.000,100.259 128.551,97.982 129.623 C 97.386 129.904,96.756 130.133,96.582 130.133 C 96.409 130.133,96.267 130.245,96.267 130.382 C 96.267 130.519,95.997 130.715,95.667 130.818 C 95.104 130.993,92.917 132.560,91.978 133.461 C 91.745 133.684,91.487 133.867,91.403 133.867 C 91.237 133.867,89.746 135.127,88.368 136.433 C 87.279 137.467,86.132 138.409,85.326 138.933 C 84.989 139.153,84.517 139.518,84.279 139.744 C 84.041 139.969,83.320 140.428,82.677 140.763 C 79.757 142.285,78.113 145.099,78.498 147.915 C 78.595 148.622,78.792 149.240,78.937 149.289 C 79.082 149.338,79.200 149.504,79.200 149.658 C 79.200 150.172,80.290 150.890,81.339 151.068 C 83.089 151.363,84.204 150.769,85.653 148.769 C 86.100 148.152,87.021 147.134,87.700 146.507 C 90.652 143.779,91.120 143.376,92.067 142.737 C 92.617 142.366,93.067 141.958,93.067 141.831 C 93.067 141.704,93.181 141.600,93.321 141.600 C 93.561 141.600,95.240 140.574,95.900 140.024 C 96.677 139.377,106.060 134.933,106.649 134.933 C 106.785 134.933,107.070 134.758,107.285 134.544 C 107.499 134.330,108.000 134.095,108.398 134.023 C 108.796 133.951,109.405 133.706,109.751 133.479 C 110.098 133.252,110.535 133.066,110.724 133.065 C 110.912 133.064,111.367 132.910,111.733 132.723 C 112.100 132.536,112.910 132.217,113.533 132.015 C 114.157 131.813,114.667 131.547,114.667 131.424 C 114.667 131.301,114.817 131.200,115.000 131.201 C 115.305 131.201,117.489 130.367,119.677 129.414 C 120.159 129.204,120.780 128.989,121.057 128.935 C 121.334 128.882,121.869 128.636,122.247 128.388 C 122.624 128.141,122.933 128.027,122.933 128.135 C 122.933 128.243,123.083 128.217,123.267 128.076 C 123.450 127.936,124.290 127.610,125.133 127.352 C 125.977 127.095,126.667 126.788,126.667 126.672 C 126.667 126.556,127.207 126.380,127.867 126.281 C 128.527 126.182,129.067 125.988,129.067 125.850 C 129.067 125.713,129.301 125.600,129.587 125.600 C 130.061 125.600,130.592 125.428,132.133 124.774 C 133.157 124.340,135.075 123.693,136.133 123.425 C 136.720 123.276,137.440 123.061,137.733 122.948 C 138.990 122.460,142.834 121.325,143.213 121.329 C 143.441 121.331,143.749 121.211,143.898 121.062 C 144.047 120.913,144.911 120.660,145.818 120.500 C 146.725 120.340,147.467 120.103,147.467 119.972 C 147.467 119.841,147.557 119.753,147.667 119.777 C 147.777 119.801,148.227 119.733,148.667 119.626 C 151.604 118.913,153.790 118.349,154.133 118.217 C 154.353 118.132,154.833 118.025,155.200 117.978 C 155.911 117.888,158.002 117.379,158.667 117.134 C 158.887 117.053,159.307 116.942,159.600 116.887 C 159.893 116.832,160.853 116.608,161.733 116.390 C 162.613 116.171,163.633 115.936,164.000 115.867 C 164.367 115.799,164.967 115.678,165.333 115.600 C 165.700 115.522,166.240 115.410,166.533 115.351 C 167.328 115.193,169.675 114.613,170.133 114.462 C 170.353 114.389,170.893 114.287,171.333 114.234 C 172.292 114.120,174.640 113.618,175.200 113.409 C 175.717 113.216,176.044 113.164,178.133 112.948 C 179.087 112.849,180.350 112.661,180.940 112.530 C 184.802 111.671,212.346 111.576,217.333 112.404 C 217.700 112.465,218.360 112.579,218.800 112.658 C 219.240 112.736,220.320 112.914,221.200 113.054 C 222.080 113.194,223.700 113.487,224.800 113.707 C 225.900 113.926,227.197 114.112,227.682 114.119 C 228.168 114.127,228.501 114.237,228.422 114.364 C 228.344 114.491,228.949 114.673,229.768 114.770 C 230.586 114.866,231.453 115.049,231.695 115.177 C 231.936 115.304,232.678 115.482,233.343 115.571 C 234.008 115.660,235.268 115.923,236.143 116.154 C 237.018 116.386,237.973 116.626,238.267 116.687 C 239.389 116.921,240.672 117.177,240.800 117.192 C 240.873 117.201,241.053 117.281,241.200 117.370 C 241.347 117.459,242.034 117.614,242.727 117.715 C 243.420 117.815,244.057 118.011,244.143 118.149 C 244.228 118.287,244.636 118.400,245.049 118.400 C 245.462 118.400,246.296 118.575,246.904 118.789 C 247.511 119.004,248.096 119.199,248.204 119.223 C 248.312 119.248,248.520 119.305,248.667 119.350 C 248.813 119.395,249.473 119.555,250.133 119.704 C 252.124 120.157,254.500 120.811,255.067 121.064 C 255.360 121.195,256.020 121.383,256.533 121.482 C 257.047 121.582,257.587 121.736,257.733 121.826 C 257.880 121.916,258.720 122.192,259.600 122.438 C 262.821 123.341,263.603 123.595,263.739 123.779 C 263.815 123.883,264.175 124.034,264.539 124.114 C 264.903 124.195,265.560 124.341,266.000 124.438 C 266.440 124.536,267.040 124.768,267.333 124.955 C 267.627 125.141,268.317 125.376,268.867 125.477 C 269.417 125.577,269.867 125.755,269.867 125.873 C 269.867 125.990,270.347 126.168,270.933 126.267 C 271.520 126.366,272.000 126.537,272.000 126.648 C 272.000 126.758,272.660 127.006,273.467 127.200 C 274.273 127.394,274.933 127.653,274.933 127.776 C 274.933 127.899,275.119 128.000,275.346 128.000 C 275.573 128.000,276.238 128.232,276.824 128.515 C 277.410 128.798,278.244 129.107,278.678 129.203 C 279.112 129.298,279.467 129.471,279.467 129.587 C 279.467 129.703,279.947 129.875,280.533 129.969 C 281.120 130.063,281.600 130.239,281.600 130.361 C 281.600 130.483,282.110 130.734,282.733 130.919 C 283.357 131.104,283.987 131.347,284.133 131.459 C 284.487 131.730,286.479 132.391,286.733 132.321 C 286.843 132.291,286.933 132.387,286.933 132.533 C 286.933 132.680,287.149 132.800,287.413 132.800 C 287.677 132.800,288.007 132.911,288.147 133.048 C 288.286 133.184,289.000 133.533,289.733 133.823 C 290.467 134.113,291.667 134.622,292.400 134.954 C 293.894 135.629,293.742 135.571,294.733 135.851 C 295.137 135.965,295.467 136.152,295.467 136.267 C 295.467 136.382,295.797 136.555,296.200 136.652 C 297.124 136.874,301.436 138.969,301.556 139.254 C 301.604 139.371,301.796 139.467,301.981 139.467 C 302.167 139.467,302.595 139.707,302.933 140.000 C 303.272 140.293,303.704 140.533,303.894 140.533 C 304.084 140.533,304.336 140.684,304.453 140.868 C 304.571 141.052,305.147 141.556,305.733 141.987 C 306.320 142.418,306.896 142.927,307.013 143.119 C 307.131 143.310,307.339 143.467,307.477 143.467 C 307.826 143.467,309.338 144.726,311.333 146.680 C 312.890 148.204,313.415 148.800,313.200 148.800 C 313.115 148.800,313.200 148.986,313.389 149.213 C 316.276 152.676,320.442 151.329,320.335 146.968 C 320.294 145.272,319.505 142.984,319.101 143.388 C 319.009 143.480,318.933 143.399,318.933 143.208 C 318.933 142.904,317.746 141.600,317.469 141.600 C 317.181 141.600,312.320 138.155,311.458 137.340 C 310.102 136.060,307.890 134.250,307.793 134.342 C 307.749 134.383,307.407 134.053,307.033 133.608 C 306.659 133.164,306.187 132.800,305.986 132.800 C 305.784 132.800,305.490 132.560,305.333 132.267 C 305.176 131.973,304.872 131.733,304.657 131.733 C 304.442 131.733,304.267 131.593,304.267 131.422 C 304.267 131.251,304.186 131.191,304.088 131.289 C 303.990 131.388,303.717 131.293,303.481 131.080 C 302.826 130.486,299.421 128.800,298.879 128.800 C 298.616 128.800,298.400 128.694,298.400 128.565 C 298.400 128.436,297.867 128.196,297.216 128.032 C 296.565 127.868,295.957 127.614,295.867 127.467 C 295.776 127.320,295.497 127.200,295.247 127.200 C 294.997 127.200,294.344 126.960,293.797 126.667 C 293.250 126.373,292.570 126.133,292.287 126.133 C 292.003 126.133,291.613 125.979,291.419 125.790 C 291.225 125.602,290.527 125.289,289.867 125.096 C 289.207 124.903,288.547 124.651,288.400 124.537 C 288.253 124.422,287.743 124.245,287.267 124.143 C 286.790 124.041,286.400 123.847,286.400 123.712 C 286.400 123.577,286.190 123.466,285.933 123.465 C 285.677 123.464,285.159 123.303,284.782 123.106 C 284.406 122.910,283.746 122.661,283.316 122.554 C 282.885 122.447,282.173 122.204,281.733 122.015 C 279.877 121.218,277.154 120.267,276.727 120.267 C 276.474 120.267,276.267 120.140,276.267 119.984 C 276.267 119.829,276.155 119.771,276.018 119.855 C 275.882 119.940,275.695 119.887,275.603 119.738 C 275.511 119.589,275.205 119.467,274.925 119.467 C 274.644 119.467,273.841 119.209,273.140 118.894 C 271.471 118.144,271.010 117.967,269.733 117.584 C 269.147 117.408,268.547 117.173,268.400 117.063 C 268.253 116.952,267.713 116.774,267.200 116.667 C 266.687 116.559,266.147 116.381,266.000 116.270 C 265.853 116.159,265.073 115.907,264.267 115.710 C 263.460 115.512,262.740 115.277,262.667 115.186 C 262.593 115.095,262.053 114.892,261.467 114.735 C 260.880 114.578,260.040 114.322,259.600 114.166 C 257.478 113.416,254.299 112.533,253.717 112.533 C 253.359 112.533,253.067 112.429,253.067 112.302 C 253.067 112.175,252.437 111.934,251.667 111.767 C 250.897 111.600,250.087 111.406,249.867 111.336 C 249.647 111.266,248.747 111.033,247.867 110.818 C 246.987 110.604,245.547 110.234,244.667 109.996 C 243.787 109.759,242.227 109.394,241.200 109.187 C 240.173 108.979,239.093 108.695,238.800 108.556 C 238.224 108.283,235.095 107.677,234.333 107.691 C 234.077 107.696,233.867 107.588,233.867 107.450 C 233.867 107.313,233.777 107.221,233.667 107.246 C 233.219 107.350,230.400 106.858,230.400 106.676 C 230.400 106.569,229.356 106.335,228.079 106.156 C 226.803 105.978,225.633 105.749,225.479 105.649 C 225.326 105.549,224.420 105.329,223.467 105.161 C 222.513 104.993,221.433 104.787,221.067 104.703 C 220.015 104.463,218.476 104.294,215.600 104.104 C 214.133 104.007,212.873 103.852,212.800 103.758 C 212.586 103.486,193.294 103.061,193.032 103.323 M43.295 120.531 C 42.981 120.658,42.550 121.010,42.338 121.312 C 42.126 121.615,41.887 121.798,41.808 121.719 C 41.283 121.194,41.315 124.421,41.847 125.733 C 42.047 126.225,42.528 128.400,43.322 132.400 C 43.496 133.280,43.710 134.180,43.797 134.400 C 43.884 134.620,44.036 135.340,44.135 136.000 C 44.234 136.660,44.370 137.560,44.439 138.000 C 44.905 140.992,46.897 142.058,49.797 140.867 C 51.340 140.233,52.363 137.868,51.504 136.920 C 51.377 136.781,51.127 135.707,50.946 134.533 C 50.766 133.360,50.515 132.100,50.388 131.733 C 50.261 131.367,50.106 130.707,50.044 130.267 C 49.982 129.827,49.805 128.987,49.651 128.400 C 49.497 127.813,49.043 126.028,48.642 124.434 C 47.633 120.418,46.188 119.364,43.295 120.531 M351.528 120.796 C 351.257 121.086,350.757 122.316,350.416 123.529 C 350.076 124.741,349.646 126.273,349.462 126.933 C 348.840 129.157,347.651 135.292,347.667 136.198 C 347.672 136.527,347.569 136.730,347.438 136.649 C 347.307 136.568,347.200 137.151,347.200 137.945 C 347.200 139.548,348.013 140.800,349.054 140.800 C 349.354 140.800,349.600 140.920,349.600 141.067 C 349.600 141.652,352.650 141.370,353.196 140.733 C 353.747 140.091,354.483 137.683,354.245 137.298 C 354.166 137.171,354.206 137.067,354.333 137.067 C 354.541 137.067,354.916 135.486,355.347 132.800 C 355.429 132.287,355.610 131.519,355.748 131.094 C 355.887 130.668,356.000 130.002,356.000 129.614 C 356.000 129.225,356.107 128.793,356.237 128.653 C 356.367 128.514,356.608 127.680,356.773 126.800 C 357.129 124.890,357.166 124.745,357.383 124.398 C 357.613 124.032,357.215 121.966,356.824 121.496 C 355.800 120.262,352.439 119.817,351.528 120.796 M188.783 129.163 C 188.654 129.282,187.278 129.487,183.467 129.955 C 182.073 130.127,180.813 130.342,180.667 130.434 C 180.520 130.527,179.560 130.679,178.533 130.773 C 177.506 130.868,176.306 131.016,175.866 131.104 C 175.426 131.191,174.827 131.290,174.533 131.323 C 174.240 131.356,173.700 131.458,173.333 131.549 C 172.455 131.766,170.125 132.073,169.528 132.050 C 169.251 132.040,169.130 132.153,169.235 132.324 C 169.335 132.484,169.307 132.553,169.175 132.476 C 169.042 132.400,167.553 132.567,165.867 132.848 C 164.180 133.129,162.020 133.482,161.067 133.632 C 160.113 133.782,159.153 133.976,158.933 134.062 C 158.713 134.148,158.448 134.200,158.343 134.179 C 158.238 134.157,156.978 134.391,155.543 134.698 C 154.108 135.005,152.093 135.416,151.067 135.611 C 150.040 135.806,148.485 136.154,147.611 136.383 C 146.736 136.612,145.806 136.800,145.544 136.800 C 145.281 136.800,145.067 136.903,145.067 137.030 C 145.067 137.156,144.479 137.329,143.760 137.414 C 142.625 137.548,139.325 138.401,138.133 138.868 C 137.669 139.050,134.544 139.895,132.800 140.309 C 132.140 140.466,131.480 140.688,131.333 140.801 C 131.187 140.915,130.377 141.160,129.533 141.346 C 128.690 141.532,128.000 141.786,128.000 141.909 C 128.000 142.032,127.707 142.133,127.350 142.133 C 126.707 142.133,122.766 143.275,121.733 143.761 C 121.440 143.898,120.960 144.056,120.666 144.111 C 120.372 144.166,119.362 144.463,118.422 144.772 C 117.481 145.081,116.499 145.333,116.238 145.333 C 115.978 145.333,115.700 145.439,115.620 145.567 C 115.474 145.804,113.103 146.523,112.733 146.443 C 112.623 146.419,112.533 146.509,112.533 146.643 C 112.533 146.777,112.023 146.971,111.400 147.073 C 110.777 147.176,110.147 147.348,110.000 147.456 C 109.853 147.563,108.533 148.035,107.067 148.504 C 105.600 148.973,104.216 149.457,103.991 149.578 C 103.766 149.699,103.166 149.881,102.658 149.982 C 102.149 150.082,101.493 150.262,101.200 150.381 C 98.796 151.357,96.992 152.000,96.661 152.000 C 96.444 152.000,96.267 152.120,96.267 152.267 C 96.267 152.413,96.083 152.533,95.859 152.533 C 95.201 152.533,89.972 154.783,89.600 155.226 C 89.527 155.313,89.137 155.465,88.733 155.564 C 88.330 155.663,88.000 155.861,88.000 156.005 C 88.000 156.149,87.861 156.267,87.691 156.267 C 87.129 156.267,84.510 158.426,84.191 159.153 C 84.018 159.546,83.755 159.952,83.605 160.057 C 83.328 160.250,83.224 163.700,83.467 164.663 C 83.630 165.311,84.743 166.400,85.243 166.400 C 85.443 166.400,85.830 166.539,86.102 166.709 C 86.395 166.892,86.800 166.930,87.098 166.802 C 87.374 166.683,87.735 166.557,87.900 166.521 C 88.879 166.311,89.271 166.045,89.718 165.287 C 89.994 164.821,90.409 164.217,90.641 163.946 C 91.098 163.413,94.133 161.745,94.133 162.027 C 94.133 162.121,94.283 162.078,94.467 161.930 C 94.650 161.782,95.191 161.578,95.669 161.476 C 96.147 161.374,96.479 161.195,96.407 161.078 C 96.335 160.962,96.779 160.786,97.394 160.688 C 98.008 160.590,99.056 160.265,99.722 159.966 C 100.388 159.667,101.113 159.385,101.333 159.338 C 101.797 159.239,104.199 158.352,105.867 157.663 C 106.233 157.511,106.893 157.266,107.333 157.119 C 107.773 156.971,108.373 156.759,108.667 156.648 C 108.960 156.537,109.260 156.431,109.333 156.414 C 109.407 156.396,109.767 156.215,110.133 156.012 C 110.500 155.809,110.800 155.673,110.800 155.710 C 110.800 155.836,112.399 155.394,112.667 155.194 C 112.813 155.085,113.349 154.906,113.858 154.797 C 114.366 154.688,115.026 154.475,115.325 154.324 C 116.594 153.682,116.819 153.600,117.314 153.600 C 117.601 153.600,117.903 153.490,117.986 153.357 C 118.068 153.223,118.615 153.032,119.201 152.933 C 119.787 152.834,120.267 152.644,120.267 152.510 C 120.267 152.376,120.411 152.267,120.588 152.267 C 121.074 152.267,126.226 150.635,126.547 150.380 C 126.701 150.257,127.331 150.076,127.947 149.978 C 128.563 149.879,129.067 149.674,129.067 149.521 C 129.067 149.369,129.136 149.313,129.220 149.398 C 129.304 149.482,129.754 149.435,130.220 149.293 C 130.686 149.152,131.363 148.976,131.725 148.902 C 132.087 148.829,132.507 148.669,132.658 148.548 C 132.941 148.322,134.520 147.926,134.832 148.003 C 134.928 148.026,135.080 147.941,135.170 147.813 C 135.260 147.686,135.933 147.445,136.667 147.278 C 138.700 146.816,140.266 146.405,141.718 145.953 C 143.071 145.531,143.667 145.401,145.400 145.154 C 145.950 145.075,146.400 144.928,146.400 144.826 C 146.400 144.725,146.850 144.613,147.400 144.577 C 147.950 144.542,148.880 144.383,149.467 144.225 C 150.706 143.892,150.513 143.933,153.000 143.472 C 154.063 143.276,154.933 143.039,154.933 142.947 C 154.933 142.855,155.323 142.754,155.800 142.721 C 156.277 142.689,157.289 142.536,158.049 142.382 C 158.809 142.229,159.679 142.084,159.982 142.061 C 160.285 142.039,160.533 141.920,160.533 141.798 C 160.533 141.676,160.683 141.604,160.867 141.638 C 161.050 141.671,161.860 141.594,162.667 141.467 C 163.473 141.339,164.283 141.262,164.467 141.296 C 164.650 141.329,164.800 141.261,164.800 141.145 C 164.800 141.029,165.370 140.899,166.067 140.858 C 166.763 140.817,167.693 140.676,168.133 140.545 C 168.573 140.415,169.602 140.243,170.420 140.163 C 171.238 140.084,172.078 139.958,172.287 139.884 C 172.496 139.810,173.207 139.681,173.867 139.596 C 174.527 139.512,175.307 139.400,175.600 139.348 C 175.893 139.295,176.973 139.123,178.000 138.964 C 179.027 138.805,180.118 138.623,180.424 138.561 C 180.731 138.498,181.511 138.415,182.158 138.377 C 182.804 138.339,183.447 138.246,183.587 138.172 C 183.726 138.097,184.086 138.014,184.387 137.986 C 192.287 137.263,213.285 137.411,215.467 138.205 C 215.890 138.359,221.003 139.001,222.133 139.042 C 222.500 139.056,222.864 139.152,222.943 139.256 C 223.021 139.361,224.041 139.524,225.209 139.620 C 226.378 139.716,227.453 139.885,227.600 139.995 C 227.852 140.185,228.532 140.293,232.000 140.694 C 232.807 140.787,233.647 140.957,233.867 141.071 C 234.087 141.185,235.107 141.365,236.133 141.472 C 237.160 141.578,238.120 141.758,238.267 141.871 C 238.413 141.984,239.673 142.233,241.067 142.425 C 242.460 142.616,243.660 142.838,243.733 142.919 C 243.907 143.111,244.260 143.180,246.086 143.375 C 246.919 143.465,247.660 143.612,247.733 143.703 C 247.807 143.794,248.219 143.910,248.650 143.960 C 249.081 144.010,249.719 144.160,250.067 144.292 C 250.416 144.425,251.034 144.533,251.440 144.533 C 251.846 144.533,252.268 144.623,252.377 144.733 C 252.487 144.843,253.437 145.131,254.489 145.374 C 255.540 145.617,257.120 146.012,258.000 146.253 C 258.880 146.494,260.500 146.913,261.600 147.185 C 262.700 147.456,264.500 147.979,265.600 148.348 C 266.700 148.716,268.069 149.106,268.642 149.213 C 269.215 149.320,269.995 149.571,270.375 149.769 C 270.756 149.968,271.247 150.132,271.467 150.133 C 271.687 150.135,272.196 150.308,272.599 150.518 C 273.001 150.728,273.870 150.981,274.529 151.080 C 275.188 151.179,275.671 151.351,275.602 151.463 C 275.533 151.575,275.924 151.741,276.472 151.831 C 277.019 151.921,277.778 152.159,278.158 152.360 C 278.538 152.561,279.306 152.811,279.864 152.915 C 280.422 153.020,281.130 153.268,281.439 153.466 C 281.748 153.665,282.450 153.909,283.000 154.010 C 283.550 154.110,284.000 154.299,284.000 154.430 C 284.000 154.560,284.210 154.667,284.467 154.668 C 284.723 154.669,285.233 154.826,285.600 155.016 C 285.967 155.207,286.867 155.529,287.600 155.733 C 288.333 155.937,289.233 156.260,289.600 156.450 C 289.967 156.641,290.418 156.797,290.604 156.798 C 290.789 156.799,291.149 156.911,291.404 157.047 C 291.658 157.183,292.407 157.469,293.067 157.683 C 293.727 157.898,294.900 158.317,295.674 158.616 C 296.448 158.915,297.137 159.172,297.205 159.187 C 297.702 159.299,304.692 161.901,305.507 162.278 C 305.969 162.492,306.479 162.667,306.640 162.667 C 306.801 162.667,306.933 162.787,306.933 162.933 C 306.933 163.080,307.109 163.200,307.324 163.200 C 307.539 163.200,307.855 163.462,308.027 163.783 C 308.775 165.182,310.064 166.400,310.796 166.400 C 311.148 166.400,311.509 166.520,311.600 166.667 C 311.956 167.243,314.933 166.165,314.933 165.460 C 314.933 165.268,315.083 165.061,315.267 165.000 C 315.610 164.886,315.720 161.614,315.408 160.800 C 315.324 160.580,315.168 160.130,315.063 159.800 C 314.957 159.470,314.769 159.200,314.644 159.200 C 314.519 159.200,314.263 158.910,314.075 158.556 C 313.727 157.900,311.093 155.929,310.867 156.155 C 310.799 156.224,310.591 156.097,310.405 155.873 C 310.220 155.650,309.903 155.467,309.701 155.467 C 309.499 155.467,309.333 155.347,309.333 155.200 C 309.333 155.053,309.217 154.933,309.075 154.933 C 308.932 154.933,308.160 154.633,307.358 154.267 C 306.557 153.900,305.773 153.600,305.617 153.600 C 305.461 153.600,305.333 153.492,305.333 153.360 C 305.333 153.228,304.733 152.976,304.000 152.800 C 303.267 152.624,302.667 152.387,302.667 152.274 C 302.667 152.161,302.187 151.991,301.600 151.898 C 301.013 151.804,300.533 151.617,300.533 151.482 C 300.533 151.348,299.869 151.100,299.057 150.931 C 298.245 150.763,297.255 150.455,296.857 150.247 C 296.459 150.040,295.930 149.869,295.682 149.868 C 295.434 149.867,295.152 149.738,295.055 149.582 C 294.959 149.425,294.712 149.361,294.506 149.440 C 294.301 149.519,294.133 149.480,294.133 149.355 C 294.133 149.229,293.683 149.043,293.133 148.941 C 292.583 148.839,291.773 148.595,291.333 148.398 C 290.893 148.201,289.633 147.763,288.533 147.424 C 287.433 147.085,286.473 146.734,286.400 146.643 C 286.327 146.552,285.607 146.329,284.800 146.149 C 283.993 145.968,282.955 145.650,282.493 145.443 C 282.031 145.236,281.468 145.067,281.242 145.067 C 281.016 145.067,280.766 144.961,280.686 144.831 C 280.606 144.701,279.758 144.448,278.803 144.267 C 277.848 144.087,277.067 143.833,277.067 143.703 C 277.067 143.573,276.977 143.486,276.867 143.510 C 276.648 143.558,275.302 143.247,274.667 143.001 C 274.158 142.804,274.217 142.822,272.800 142.437 C 272.140 142.258,271.360 141.998,271.067 141.860 C 270.773 141.722,270.127 141.542,269.630 141.461 C 269.133 141.379,268.519 141.202,268.265 141.066 C 268.011 140.930,267.728 140.895,267.635 140.987 C 267.542 141.080,267.467 141.031,267.467 140.879 C 267.467 140.726,266.981 140.524,266.388 140.429 C 265.795 140.334,265.105 140.153,264.855 140.026 C 264.266 139.728,262.012 139.200,261.330 139.200 C 261.038 139.200,260.800 139.091,260.800 138.957 C 260.800 138.823,260.290 138.629,259.667 138.527 C 259.043 138.424,258.413 138.247,258.267 138.134 C 257.993 137.922,254.160 137.192,253.800 137.283 C 253.690 137.311,253.600 137.225,253.600 137.092 C 253.600 136.959,252.970 136.765,252.200 136.662 C 251.430 136.558,250.680 136.383,250.533 136.272 C 250.387 136.161,249.247 135.911,248.000 135.717 C 246.753 135.523,245.673 135.281,245.600 135.181 C 245.527 135.080,244.567 134.871,243.467 134.715 C 242.367 134.559,241.167 134.350,240.800 134.251 C 240.433 134.151,239.233 133.944,238.133 133.789 C 237.033 133.634,236.073 133.430,236.000 133.334 C 235.927 133.239,234.487 132.965,232.800 132.725 C 231.113 132.486,228.713 132.105,227.467 131.879 C 225.533 131.528,221.727 130.961,218.800 130.587 C 218.360 130.531,217.820 130.415,217.600 130.331 C 217.380 130.246,216.120 130.034,214.800 129.859 C 213.480 129.684,211.740 129.447,210.933 129.332 C 209.449 129.121,188.999 128.965,188.783 129.163 M56.525 139.479 C 54.596 139.788,50.933 141.167,50.711 141.668 C 50.661 141.779,50.511 141.802,50.377 141.719 C 50.243 141.636,50.133 141.699,50.133 141.858 C 50.133 142.016,49.833 142.261,49.467 142.400 C 49.100 142.539,48.800 142.776,48.800 142.927 C 48.800 143.077,48.682 143.200,48.538 143.200 C 48.235 143.200,45.867 145.415,45.867 145.699 C 45.867 145.803,45.619 146.154,45.316 146.478 C 44.858 146.968,42.606 150.764,42.515 151.200 C 42.481 151.365,42.159 152.221,41.864 152.933 C 40.681 155.791,40.668 166.233,41.846 167.200 C 41.936 167.273,42.164 167.930,42.353 168.660 C 42.542 169.390,42.792 170.050,42.907 170.127 C 43.023 170.204,43.200 170.602,43.300 171.011 C 43.400 171.420,43.589 171.689,43.719 171.609 C 43.850 171.528,44.036 171.823,44.133 172.264 C 44.230 172.706,44.394 173.067,44.497 173.067 C 44.600 173.067,44.881 173.397,45.120 173.800 C 45.763 174.883,48.317 177.417,49.147 177.794 C 49.543 177.974,49.867 178.244,49.867 178.394 C 49.867 178.544,50.030 178.667,50.231 178.667 C 50.431 178.667,50.900 178.907,51.273 179.200 C 51.646 179.493,52.132 179.733,52.353 179.733 C 52.574 179.733,52.796 179.846,52.844 179.984 C 52.893 180.122,53.233 180.291,53.600 180.359 C 53.967 180.427,55.084 180.674,56.083 180.908 C 59.113 181.618,63.690 181.081,65.883 179.759 C 66.387 179.455,67.040 179.096,67.333 178.961 C 69.030 178.179,71.271 176.081,73.060 173.600 C 73.642 172.793,74.211 172.009,74.325 171.856 C 74.440 171.704,74.573 171.404,74.621 171.190 C 74.669 170.975,74.859 170.620,75.044 170.400 C 75.486 169.872,76.562 166.549,76.728 165.200 C 76.801 164.613,76.954 163.953,77.070 163.733 C 77.599 162.727,76.951 154.141,76.274 153.200 C 76.169 153.053,75.929 152.363,75.740 151.667 C 75.552 150.970,75.302 150.400,75.187 150.400 C 75.071 150.400,74.897 150.040,74.800 149.600 C 74.703 149.160,74.536 148.800,74.428 148.800 C 74.320 148.800,74.045 148.407,73.815 147.926 C 73.137 146.504,70.984 144.118,69.200 142.810 C 68.613 142.380,68.073 141.962,68.000 141.881 C 67.707 141.557,64.851 140.267,64.427 140.267 C 64.177 140.267,63.646 140.097,63.246 139.890 C 62.397 139.452,58.276 139.199,56.525 139.479 M336.667 139.579 C 335.787 139.740,334.805 140.021,334.484 140.203 C 334.164 140.385,333.661 140.533,333.367 140.533 C 333.072 140.533,332.755 140.657,332.661 140.809 C 332.568 140.960,331.945 141.341,331.276 141.655 C 329.065 142.694,324.816 147.392,324.151 149.533 C 324.048 149.863,323.852 150.133,323.715 150.133 C 323.579 150.133,323.467 150.318,323.467 150.544 C 323.467 150.770,323.238 151.403,322.959 151.950 C 322.679 152.498,322.364 153.543,322.258 154.273 C 322.153 155.003,321.952 155.743,321.813 155.919 C 321.109 156.803,321.978 166.781,322.903 168.439 C 323.055 168.711,323.493 169.593,323.877 170.400 C 325.279 173.346,325.461 173.608,327.628 175.811 C 329.435 177.648,330.651 178.667,331.037 178.667 C 331.177 178.667,331.481 178.837,331.712 179.046 C 332.545 179.795,335.855 180.870,337.333 180.872 C 337.553 180.872,337.871 180.981,338.039 181.113 C 338.395 181.392,341.908 181.349,341.733 181.067 C 341.669 180.963,341.943 180.881,342.342 180.885 C 343.500 180.896,345.867 180.361,346.133 180.028 C 346.207 179.936,346.902 179.569,347.678 179.213 C 348.455 178.856,349.625 178.059,350.278 177.442 C 350.932 176.825,351.467 176.377,351.467 176.448 C 351.467 177.350,355.644 171.182,355.900 169.902 C 355.991 169.447,356.157 169.132,356.270 169.202 C 356.383 169.272,356.559 168.881,356.662 168.333 C 356.764 167.785,356.924 167.216,357.017 167.069 C 357.109 166.921,357.207 166.680,357.234 166.533 C 357.261 166.387,357.412 165.727,357.569 165.067 C 358.131 162.699,357.791 154.370,357.096 153.487 C 356.971 153.329,356.788 152.747,356.688 152.193 C 356.588 151.639,356.392 151.256,356.253 151.342 C 356.114 151.428,356.000 151.255,356.000 150.959 C 356.000 150.473,354.824 148.065,354.426 147.733 C 354.337 147.660,353.910 147.076,353.475 146.436 C 353.041 145.796,352.531 145.213,352.343 145.141 C 352.154 145.069,352.000 144.842,352.000 144.638 C 352.000 144.434,351.880 144.267,351.733 144.267 C 351.586 144.267,351.046 143.822,350.533 143.278 C 350.020 142.734,349.600 142.395,349.600 142.524 C 349.600 142.654,349.330 142.514,349.000 142.215 C 348.221 141.507,345.702 140.267,345.045 140.267 C 344.763 140.267,344.533 140.160,344.533 140.031 C 344.533 139.483,338.936 139.162,336.667 139.579 M33.815 140.308 C 32.721 140.704,32.000 143.560,32.614 145.067 C 32.764 145.433,32.872 145.807,32.855 145.898 C 32.778 146.304,36.601 147.500,40.522 148.296 C 43.049 148.810,44.389 147.392,44.345 144.251 C 44.317 142.295,43.807 141.778,41.467 141.337 C 39.351 140.937,39.374 140.943,39.067 140.757 C 38.777 140.581,37.291 140.323,35.600 140.154 C 35.013 140.096,34.210 140.165,33.815 140.308 M360.800 140.555 C 359.700 140.837,358.260 141.140,357.600 141.229 C 356.315 141.403,354.810 142.176,354.578 142.781 C 354.308 143.483,354.611 146.430,354.999 146.883 C 355.212 147.131,355.454 147.528,355.538 147.767 C 355.795 148.494,358.787 148.523,360.533 147.815 C 360.994 147.628,361.309 147.563,362.860 147.335 C 363.480 147.244,364.059 147.054,364.146 146.914 C 364.232 146.773,364.405 146.721,364.529 146.798 C 364.654 146.874,365.140 146.553,365.609 146.083 C 367.020 144.672,366.441 140.359,364.826 140.257 C 364.738 140.251,364.247 140.201,363.733 140.145 C 363.220 140.089,361.900 140.273,360.800 140.555 M58.557 143.767 C 61.104 144.408,63.467 147.583,63.467 150.362 C 63.467 155.281,57.890 158.782,53.587 156.565 C 46.003 152.658,50.267 141.680,58.557 143.767 M345.694 144.363 C 351.852 147.971,349.389 157.172,342.267 157.169 C 334.688 157.165,332.792 146.488,339.901 143.842 C 341.490 143.250,344.213 143.495,345.694 144.363 M28.667 155.789 C 28.003 156.170,27.473 156.861,27.639 157.130 C 27.708 157.242,27.629 157.333,27.462 157.333 C 27.142 157.333,27.163 159.015,27.493 159.733 C 27.593 159.953,27.797 160.443,27.944 160.820 C 28.466 162.154,34.744 163.060,37.929 162.261 C 39.772 161.798,40.165 157.536,38.516 155.887 C 37.989 155.361,29.560 155.276,28.667 155.789 M360.182 156.070 C 358.970 157.041,358.957 160.596,360.163 161.801 C 360.798 162.436,368.819 162.499,369.979 161.878 C 370.659 161.514,371.637 159.815,371.339 159.517 C 371.265 159.443,371.335 159.225,371.494 159.033 C 371.839 158.618,371.094 156.335,370.440 155.800 C 369.616 155.127,361.079 155.352,360.182 156.070 M64.691 161.467 C 70.858 165.081,68.448 174.258,61.333 174.255 C 54.184 174.252,51.821 165.349,57.940 161.466 C 59.703 160.347,62.781 160.348,64.691 161.467 M340.755 161.413 C 344.367 163.289,345.462 167.913,343.115 171.382 C 339.353 176.941,330.667 174.227,330.667 167.493 C 330.667 162.203,336.040 158.964,340.755 161.413 M35.638 165.356 C 34.957 165.955,34.400 166.622,34.400 166.838 C 34.400 167.055,34.280 167.157,34.133 167.067 C 33.987 166.976,33.867 167.033,33.867 167.194 C 33.867 167.354,33.625 167.751,33.330 168.076 C 30.501 171.191,29.743 172.098,29.800 172.299 C 29.837 172.428,29.687 172.533,29.467 172.533 C 29.247 172.533,29.067 172.645,29.067 172.781 C 29.067 172.917,28.881 173.214,28.655 173.440 C 27.875 174.220,27.863 176.304,28.634 177.067 C 29.926 178.344,30.223 178.497,31.647 178.615 L 33.081 178.734 34.474 177.295 C 36.873 174.816,37.867 173.658,37.867 173.341 C 37.867 173.173,37.969 173.099,38.094 173.176 C 38.220 173.253,38.457 173.020,38.622 172.658 C 38.787 172.296,39.041 172.000,39.187 172.000 C 39.333 172.000,39.626 171.670,39.837 171.267 C 40.049 170.863,40.490 170.248,40.819 169.900 C 42.223 168.411,41.354 165.999,38.993 164.831 C 37.418 164.052,37.054 164.109,35.638 165.356 M359.733 164.857 C 356.511 166.935,356.489 168.584,359.639 171.900 C 359.954 172.232,360.254 172.614,360.306 172.750 C 360.701 173.786,364.965 178.118,366.027 178.562 C 368.003 179.387,370.818 177.458,370.773 175.310 C 370.758 174.603,370.609 173.981,370.440 173.924 C 370.271 173.868,370.133 173.679,370.133 173.504 C 370.133 173.329,369.923 172.994,369.667 172.760 C 369.410 172.526,368.600 171.649,367.867 170.810 C 367.133 169.972,366.293 169.019,366.000 168.693 C 365.707 168.367,365.227 167.767,364.933 167.360 C 364.095 166.197,362.573 164.677,362.133 164.564 C 360.960 164.261,360.586 164.307,359.733 164.857 M82.887 172.710 C 82.067 172.933,81.223 176.647,81.894 177.078 C 82.018 177.158,82.163 177.503,82.215 177.846 C 82.414 179.149,83.687 179.416,89.798 179.440 C 94.665 179.459,100.785 179.613,106.073 179.849 C 106.993 179.890,107.823 180.000,107.917 180.095 C 108.012 180.189,108.736 180.267,109.526 180.267 C 111.192 180.267,114.611 180.740,115.210 181.053 C 115.436 181.171,116.125 181.353,116.742 181.457 C 117.359 181.561,117.924 181.744,117.998 181.863 C 118.071 181.982,118.762 182.229,119.533 182.412 C 120.303 182.595,120.993 182.817,121.067 182.905 C 122.042 184.085,129.109 185.148,128.406 184.009 C 128.327 183.883,128.414 183.729,128.598 183.667 C 129.029 183.524,129.004 180.209,128.568 179.697 C 127.215 178.108,126.840 177.832,125.603 177.515 C 124.860 177.325,124.324 177.098,124.411 177.011 C 124.498 176.924,124.082 176.771,123.486 176.670 C 122.890 176.569,122.343 176.389,122.269 176.270 C 122.195 176.151,121.505 175.904,120.734 175.721 C 119.964 175.539,119.273 175.315,119.200 175.223 C 118.915 174.868,114.709 173.817,113.001 173.674 C 112.010 173.591,111.200 173.441,111.200 173.342 C 111.200 173.243,110.570 173.133,109.800 173.098 C 109.030 173.063,106.960 172.931,105.200 172.804 C 101.925 172.569,83.692 172.492,82.887 172.710 M295.978 172.631 C 295.917 172.684,294.247 172.808,292.267 172.905 C 289.116 173.060,287.600 173.198,287.600 173.331 C 287.600 173.370,287.348 173.404,284.600 173.736 C 283.830 173.829,283.200 174.029,283.200 174.181 C 283.200 174.333,283.024 174.389,282.809 174.307 C 282.593 174.224,282.355 174.258,282.278 174.381 C 282.202 174.505,281.688 174.686,281.136 174.784 C 280.280 174.936,279.065 175.305,277.333 175.938 C 277.113 176.019,276.843 176.066,276.733 176.042 C 276.623 176.019,276.533 176.120,276.533 176.267 C 276.533 176.413,276.323 176.534,276.067 176.535 C 275.810 176.536,275.256 176.716,274.835 176.935 C 274.415 177.155,273.815 177.381,273.502 177.438 C 272.456 177.630,270.940 178.491,270.785 178.981 C 270.700 179.248,270.534 179.467,270.416 179.467 C 270.298 179.467,270.122 180.071,270.024 180.809 C 269.496 184.791,271.249 185.613,275.907 183.569 C 276.369 183.366,276.992 183.200,277.291 183.200 C 277.590 183.200,277.895 183.104,277.967 182.986 C 278.040 182.869,278.707 182.607,279.450 182.405 C 280.192 182.202,280.800 181.946,280.800 181.835 C 280.800 181.724,281.370 181.550,282.067 181.449 C 282.763 181.349,283.460 181.166,283.615 181.043 C 283.770 180.920,284.430 180.766,285.082 180.700 C 285.734 180.634,286.747 180.503,287.333 180.409 C 287.920 180.314,289.000 180.193,289.733 180.139 C 290.467 180.085,291.727 179.973,292.533 179.891 C 294.493 179.691,301.715 179.503,309.000 179.463 C 312.310 179.444,314.933 179.324,314.933 179.190 C 314.933 179.058,315.083 179.003,315.267 179.068 C 316.859 179.629,317.696 174.496,316.247 173.047 C 315.778 172.578,296.491 172.181,295.978 172.631 M41.260 176.528 C 40.850 176.898,40.452 177.560,40.375 178.000 C 40.298 178.440,40.122 178.840,39.984 178.889 C 39.846 178.938,39.733 179.193,39.733 179.456 C 39.733 179.720,39.532 180.400,39.286 180.967 C 39.040 181.535,38.807 182.175,38.768 182.389 C 38.729 182.602,38.555 183.082,38.380 183.455 C 37.917 184.443,37.658 185.113,37.447 185.867 C 37.345 186.233,37.158 186.600,37.032 186.682 C 36.718 186.885,36.423 189.923,36.635 190.770 C 37.280 193.338,42.676 192.887,43.314 190.211 C 43.572 189.130,44.761 186.044,45.732 183.933 C 45.952 183.457,46.210 182.647,46.306 182.133 C 46.402 181.620,46.643 180.963,46.840 180.674 C 48.763 177.861,43.838 174.202,41.260 176.528 M354.535 175.930 C 354.242 176.004,353.478 176.426,352.836 176.867 L 351.669 177.670 351.818 179.542 C 351.899 180.572,352.075 181.486,352.209 181.574 C 352.342 181.662,352.538 182.089,352.645 182.524 C 352.752 182.959,353.070 183.822,353.353 184.443 C 353.635 185.063,353.867 185.750,353.867 185.970 C 353.867 186.189,353.983 186.441,354.126 186.529 C 354.269 186.617,354.516 187.194,354.675 187.811 C 354.834 188.428,355.138 189.311,355.349 189.774 C 355.560 190.236,355.733 190.717,355.733 190.843 C 355.733 192.710,361.149 192.907,362.129 191.075 C 362.668 190.067,361.855 185.620,361.029 185.057 C 360.913 184.978,360.685 184.288,360.521 183.523 C 360.357 182.759,360.126 182.133,360.008 182.133 C 359.889 182.133,359.714 181.713,359.618 181.200 C 359.521 180.687,359.328 180.267,359.188 180.267 C 359.048 180.267,358.933 180.091,358.933 179.876 C 358.933 178.593,357.543 175.839,357.049 176.144 C 356.933 176.216,356.761 176.153,356.669 176.004 C 356.498 175.726,355.480 175.691,354.535 175.930 M77.000 181.226 C 76.597 181.441,76.267 181.719,76.267 181.844 C 76.267 181.969,76.043 182.130,75.770 182.201 C 75.018 182.398,74.346 183.958,74.534 185.069 C 74.747 186.330,79.710 191.200,80.782 191.200 C 80.939 191.200,81.067 191.313,81.067 191.452 C 81.067 191.687,81.556 192.007,83.200 192.848 C 83.567 193.036,83.927 193.256,84.000 193.337 C 84.214 193.573,87.567 194.935,87.933 194.934 C 88.117 194.934,88.267 195.027,88.267 195.142 C 88.267 195.256,88.837 195.505,89.533 195.694 C 90.230 195.883,91.127 196.215,91.527 196.430 C 91.926 196.646,92.321 196.804,92.403 196.781 C 92.634 196.717,96.363 197.923,96.680 198.164 C 96.834 198.281,97.494 198.458,98.147 198.558 C 98.799 198.658,99.566 198.860,99.850 199.006 C 100.134 199.152,100.794 199.327,101.316 199.395 C 101.839 199.462,102.627 199.677,103.067 199.873 C 103.507 200.068,104.407 200.308,105.067 200.406 C 105.727 200.504,106.595 200.743,106.997 200.937 C 107.399 201.131,108.119 201.373,108.597 201.476 C 109.075 201.578,109.587 201.752,109.733 201.863 C 109.880 201.973,110.630 202.211,111.400 202.392 C 112.170 202.572,112.800 202.828,112.800 202.960 C 112.800 203.092,112.890 203.184,113.000 203.164 C 113.416 203.090,114.933 203.542,114.933 203.740 C 114.933 203.854,115.563 204.090,116.333 204.265 C 117.103 204.441,118.104 204.710,118.557 204.863 C 119.344 205.130,121.843 204.421,121.461 204.039 C 121.390 203.968,121.523 203.618,121.756 203.261 C 122.219 202.554,122.160 201.033,121.612 199.560 C 121.302 198.725,119.879 197.990,117.514 197.441 C 117.101 197.345,116.141 196.923,115.381 196.504 C 114.621 196.086,113.820 195.740,113.600 195.737 C 113.380 195.733,112.848 195.546,112.417 195.322 C 111.987 195.098,111.207 194.802,110.684 194.666 C 110.161 194.529,108.953 194.218,108.000 193.974 C 107.047 193.730,106.081 193.440,105.853 193.330 C 105.626 193.219,104.726 192.975,103.853 192.787 C 102.981 192.599,102.135 192.345,101.973 192.223 C 101.812 192.101,101.122 191.924,100.440 191.831 C 99.758 191.737,99.200 191.557,99.200 191.430 C 99.200 191.304,98.918 191.200,98.573 191.200 C 97.926 191.200,96.729 190.861,95.333 190.282 C 94.893 190.100,93.603 189.665,92.467 189.316 C 91.330 188.967,90.400 188.588,90.400 188.474 C 90.400 188.360,90.223 188.267,90.006 188.267 C 89.510 188.267,86.601 186.892,86.337 186.533 C 86.230 186.387,86.140 186.359,86.137 186.473 C 86.130 186.854,84.043 185.328,82.625 183.905 C 82.208 183.486,81.867 183.229,81.867 183.334 C 81.867 183.439,81.477 183.034,81.000 182.435 C 80.523 181.836,79.863 181.283,79.533 181.206 C 78.030 180.857,77.687 180.859,77.000 181.226 M318.987 181.347 C 318.591 181.592,317.825 182.290,317.284 182.898 C 315.607 184.787,310.823 187.986,309.643 188.008 C 309.399 188.013,308.967 188.193,308.682 188.408 C 308.398 188.624,307.973 188.800,307.739 188.800 C 307.504 188.800,306.869 189.026,306.326 189.303 C 305.783 189.580,304.888 189.891,304.336 189.994 C 303.785 190.097,303.213 190.277,303.067 190.394 C 302.920 190.511,302.110 190.760,301.267 190.946 C 300.423 191.132,299.733 191.360,299.733 191.452 C 299.733 191.545,299.363 191.648,298.910 191.683 C 298.458 191.717,297.708 191.904,297.244 192.097 C 296.780 192.291,295.590 192.602,294.600 192.788 C 293.610 192.974,292.800 193.220,292.800 193.334 C 292.800 193.448,292.410 193.599,291.933 193.669 C 290.871 193.826,287.372 194.866,286.226 195.366 C 285.764 195.568,285.264 195.733,285.114 195.733 C 284.965 195.733,284.023 196.146,283.021 196.650 C 282.020 197.153,280.750 197.647,280.200 197.746 C 279.650 197.845,279.200 198.033,279.200 198.163 C 279.200 198.293,279.110 198.387,279.000 198.371 C 278.409 198.286,277.648 198.803,277.235 199.569 C 276.755 200.461,276.660 203.467,277.112 203.467 C 277.234 203.467,277.333 203.650,277.333 203.875 C 277.333 204.100,277.543 204.351,277.800 204.433 C 278.057 204.515,278.531 204.708,278.854 204.862 C 279.282 205.067,279.788 205.044,280.721 204.778 C 281.424 204.577,282.060 204.408,282.133 204.402 C 282.207 204.397,282.387 204.325,282.533 204.244 C 282.680 204.162,283.520 203.865,284.400 203.582 C 285.280 203.300,286.069 202.976,286.153 202.862 C 286.237 202.747,286.573 202.603,286.900 202.540 C 287.227 202.477,287.844 202.251,288.271 202.038 C 288.699 201.824,289.563 201.565,290.191 201.461 C 290.819 201.358,291.453 201.182,291.600 201.070 C 291.747 200.958,292.227 200.800,292.667 200.717 C 293.923 200.482,297.123 199.591,297.951 199.246 C 298.364 199.074,298.904 198.933,299.151 198.933 C 299.398 198.932,300.980 198.501,302.667 197.974 C 304.353 197.448,306.146 196.896,306.649 196.749 C 307.153 196.602,307.837 196.303,308.169 196.086 C 308.500 195.868,308.838 195.700,308.919 195.712 C 309.196 195.752,309.549 195.634,310.725 195.109 C 311.270 194.866,311.840 194.667,311.991 194.667 C 312.143 194.667,312.267 194.547,312.267 194.400 C 312.267 194.253,312.443 194.133,312.659 194.133 C 313.186 194.133,316.110 192.792,316.222 192.499 C 316.271 192.371,316.481 192.267,316.689 192.267 C 316.897 192.267,317.280 192.057,317.541 191.800 C 317.803 191.543,318.353 191.157,318.766 190.942 C 319.816 190.393,323.973 186.240,324.280 185.432 C 325.187 183.046,321.208 179.974,318.987 181.347 M53.939 184.044 C 52.746 184.248,51.840 184.655,51.236 185.259 C 50.828 185.667,50.979 188.604,51.437 189.173 C 51.567 189.334,51.758 190.097,51.862 190.867 C 51.965 191.637,52.146 192.267,52.263 192.267 C 52.380 192.267,52.630 193.047,52.820 194.000 C 53.009 194.953,53.262 195.733,53.382 195.733 C 53.502 195.733,53.600 195.958,53.600 196.233 C 53.600 196.735,54.735 200.475,55.189 201.467 C 55.323 201.760,55.510 202.274,55.604 202.609 C 55.948 203.834,56.898 204.533,58.218 204.533 C 59.482 204.533,60.800 204.095,60.800 203.675 C 60.800 203.543,60.906 203.501,61.036 203.581 C 61.166 203.662,61.421 203.549,61.602 203.330 C 61.784 203.112,61.827 202.931,61.699 202.929 C 61.571 202.927,61.636 202.818,61.843 202.687 C 62.276 202.413,62.329 200.336,61.922 199.562 C 61.779 199.289,61.577 198.557,61.474 197.933 C 61.371 197.310,61.190 196.800,61.073 196.800 C 60.894 196.800,60.471 195.250,60.527 194.799 C 60.536 194.723,60.378 194.332,60.174 193.931 C 59.971 193.529,59.718 192.720,59.612 192.133 C 59.506 191.547,59.321 190.947,59.201 190.800 C 58.998 190.552,58.445 188.727,57.843 186.316 C 57.298 184.133,56.419 183.621,53.939 184.044 M343.333 183.875 C 343.187 183.918,342.752 184.022,342.367 184.107 C 341.657 184.262,341.084 185.202,340.997 186.353 C 340.973 186.672,340.875 186.933,340.779 186.933 C 340.684 186.933,340.532 187.475,340.441 188.138 C 340.350 188.800,340.094 189.694,339.871 190.125 C 339.649 190.555,339.466 191.183,339.465 191.520 C 339.464 191.857,339.304 192.439,339.109 192.811 C 338.915 193.184,338.414 194.624,337.998 196.011 C 337.581 197.399,337.150 198.655,337.040 198.803 C 336.451 199.598,336.480 202.265,337.086 203.032 C 338.424 204.729,342.667 205.154,342.667 203.591 C 342.667 203.376,342.785 203.200,342.930 203.200 C 343.075 203.200,343.270 202.720,343.364 202.133 C 343.458 201.547,343.634 201.067,343.755 201.067 C 343.947 201.067,344.283 199.854,344.310 199.067 C 344.315 198.920,344.453 198.560,344.617 198.267 C 344.781 197.973,344.922 197.673,344.930 197.600 C 345.000 197.019,345.725 194.748,345.906 194.547 C 346.031 194.407,346.134 194.047,346.135 193.747 C 346.136 193.446,346.320 192.848,346.544 192.419 C 346.768 191.989,347.092 190.819,347.263 189.819 C 347.435 188.818,347.671 188.000,347.788 188.000 C 348.220 188.000,347.984 186.060,347.462 185.327 C 346.846 184.461,344.340 183.580,343.333 183.875 M65.400 184.202 C 65.070 184.258,64.800 184.422,64.800 184.568 C 64.800 184.713,64.680 184.757,64.533 184.667 C 64.387 184.576,64.267 184.629,64.267 184.784 C 64.267 184.940,64.130 185.067,63.964 185.067 C 62.692 185.067,61.666 188.501,62.756 189.111 C 63.000 189.248,63.200 189.525,63.200 189.726 C 63.200 189.928,63.500 190.449,63.867 190.885 C 64.233 191.320,64.533 191.810,64.533 191.972 C 64.533 192.134,64.645 192.267,64.782 192.267 C 64.919 192.267,65.115 192.537,65.218 192.867 C 65.321 193.197,65.479 193.527,65.569 193.600 C 65.934 193.897,68.000 197.038,68.000 197.296 C 68.000 197.449,68.164 197.669,68.364 197.787 C 68.564 197.904,68.917 198.370,69.147 198.821 C 69.550 199.609,72.571 203.543,73.446 204.417 C 73.677 204.649,73.867 204.957,73.867 205.101 C 73.867 205.246,73.987 205.291,74.133 205.200 C 74.280 205.109,74.400 205.143,74.400 205.275 C 74.400 205.814,79.943 211.200,80.498 211.200 C 80.811 211.200,81.069 211.350,81.071 211.533 C 81.074 211.789,81.126 211.786,81.295 211.519 C 81.416 211.328,81.625 211.192,81.758 211.218 C 82.423 211.343,82.928 211.129,83.691 210.400 C 84.152 209.960,84.440 209.596,84.331 209.592 C 84.222 209.587,84.343 209.461,84.600 209.312 C 85.277 208.918,85.240 206.906,84.544 206.276 C 84.256 206.016,84.042 205.727,84.068 205.635 C 84.094 205.542,83.069 204.402,81.791 203.101 C 80.512 201.800,79.467 200.623,79.467 200.485 C 79.467 200.348,79.347 200.309,79.200 200.400 C 79.053 200.491,78.933 200.374,78.933 200.141 C 78.933 199.907,78.771 199.654,78.573 199.578 C 78.375 199.502,77.572 198.516,76.789 197.387 C 76.006 196.257,75.298 195.273,75.216 195.200 C 75.133 195.127,74.706 194.527,74.266 193.867 C 73.826 193.207,73.377 192.627,73.267 192.578 C 73.157 192.529,73.067 192.318,73.067 192.109 C 73.067 191.899,72.827 191.523,72.533 191.271 C 72.240 191.020,72.000 190.680,72.000 190.515 C 72.000 190.350,71.760 189.938,71.467 189.600 C 71.173 189.262,70.933 188.853,70.932 188.693 C 70.931 188.532,70.601 188.040,70.199 187.600 C 69.796 187.160,69.311 186.500,69.121 186.133 C 68.253 184.457,67.182 183.901,65.400 184.202 M331.597 184.255 C 330.994 184.420,329.867 185.342,329.867 185.670 C 329.867 185.888,328.813 187.481,328.502 187.733 C 328.412 187.807,328.077 188.382,327.758 189.011 C 327.439 189.640,326.943 190.390,326.656 190.678 C 326.368 190.965,326.214 191.200,326.313 191.200 C 326.412 191.200,326.256 191.470,325.966 191.800 C 325.677 192.130,325.086 192.940,324.653 193.600 C 324.221 194.260,323.717 194.959,323.533 195.152 C 323.350 195.346,323.200 195.608,323.200 195.733 C 323.200 195.859,323.046 196.120,322.857 196.314 C 322.668 196.508,321.803 197.567,320.935 198.667 C 320.066 199.767,318.720 201.291,317.944 202.055 C 317.168 202.819,316.533 203.504,316.533 203.578 C 316.533 203.652,316.083 204.184,315.533 204.760 C 313.926 206.443,313.794 206.669,313.794 207.735 C 313.794 209.364,316.909 212.336,317.742 211.503 C 317.835 211.410,318.021 211.318,318.156 211.300 C 318.290 211.282,318.518 211.252,318.663 211.233 C 319.205 211.165,327.037 202.933,326.561 202.933 C 326.472 202.933,326.640 202.693,326.933 202.400 C 327.227 202.107,327.467 201.740,327.467 201.584 C 327.467 201.429,327.587 201.376,327.733 201.467 C 327.880 201.557,328.000 201.484,328.000 201.305 C 328.000 201.125,328.179 200.788,328.398 200.556 C 328.859 200.068,331.200 196.592,331.200 196.397 C 331.200 196.326,331.410 196.035,331.667 195.752 C 332.411 194.932,332.963 194.123,333.770 192.667 C 334.014 192.227,334.616 191.339,335.107 190.695 C 335.598 190.051,336.000 189.361,336.000 189.162 C 336.000 188.963,336.120 188.800,336.267 188.800 C 336.815 188.800,336.557 186.666,335.933 186.049 C 334.416 184.548,332.870 183.908,331.597 184.255 " stroke="none" fill="#e4dcb5" fill-rule="evenodd"></path><path id="path1" d="M198.533 84.666 C 199.212 84.895,201.375 84.990,201.036 84.775 C 200.833 84.647,200.127 84.549,199.467 84.558 C 198.807 84.568,198.387 84.616,198.533 84.666 M192.867 84.984 C 193.123 85.051,193.543 85.051,193.800 84.984 C 194.057 84.917,193.847 84.862,193.333 84.862 C 192.820 84.862,192.610 84.917,192.867 84.984 M205.003 84.989 C 205.335 85.052,205.815 85.050,206.070 84.983 C 206.325 84.916,206.053 84.864,205.467 84.867 C 204.880 84.870,204.671 84.925,205.003 84.989 M85.717 103.000 L 84.933 103.867 85.800 103.083 C 86.277 102.653,86.667 102.263,86.667 102.217 C 86.667 102.011,86.447 102.192,85.717 103.000 M190.600 103.393 C 191.077 103.452,191.857 103.452,192.333 103.393 C 192.810 103.334,192.420 103.285,191.467 103.285 C 190.513 103.285,190.123 103.334,190.600 103.393 M199.000 103.384 C 199.257 103.451,199.677 103.451,199.933 103.384 C 200.190 103.317,199.980 103.262,199.467 103.262 C 198.953 103.262,198.743 103.317,199.000 103.384 M206.871 103.393 C 207.351 103.453,208.071 103.451,208.471 103.391 C 208.872 103.330,208.480 103.281,207.600 103.283 C 206.720 103.284,206.392 103.334,206.871 103.393 M198.600 137.526 C 199.077 137.585,199.857 137.585,200.333 137.526 C 200.810 137.467,200.420 137.419,199.467 137.419 C 198.513 137.419,198.123 137.467,198.600 137.526 M54.344 143.785 C 51.995 144.409,49.608 147.634,49.603 150.190 C 49.589 156.612,57.609 159.680,61.753 154.838 C 66.262 149.570,61.168 141.970,54.344 143.785 M339.901 143.842 C 332.792 146.488,334.688 157.165,342.267 157.169 C 349.389 157.172,351.852 147.971,345.694 144.363 C 344.213 143.495,341.490 143.250,339.901 143.842 M321.416 160.133 C 321.417 161.013,321.467 161.341,321.527 160.862 C 321.586 160.383,321.585 159.663,321.524 159.262 C 321.463 158.861,321.414 159.253,321.416 160.133 M59.540 160.777 C 54.564 162.049,52.794 168.427,56.363 172.223 C 59.787 175.865,65.983 174.617,67.735 169.934 C 69.693 164.701,64.944 159.395,59.540 160.777 M335.668 160.807 C 332.674 161.559,330.667 164.242,330.667 167.493 C 330.667 174.227,339.353 176.941,343.115 171.382 C 346.719 166.056,341.918 159.238,335.668 160.807 " stroke="none" fill="#d5db74" fill-rule="evenodd"></path></g></svg>