<?xml version="1.0" encoding="UTF-8"?>
<!DOCTYPE svg PUBLIC "-//W3C//DTD SVG 1.1//EN" "http://www.w3.org/Graphics/SVG/1.1/DTD/svg11.dtd">
<svg xmlns="http://www.w3.org/2000/svg" version="1.1" width="800px" height="800px" style="shape-rendering:geometricPrecision; text-rendering:geometricPrecision; image-rendering:optimizeQuality; fill-rule:evenodd; clip-rule:evenodd" xmlns:xlink="http://www.w3.org/1999/xlink">
<g><path style="opacity:0.989" fill="#67328A" d="M 370.5,502.5 C 364.5,502.5 358.5,502.5 352.5,502.5C 346.491,502.334 340.491,502.501 334.5,503C 332.942,503.21 331.609,503.71 330.5,504.5C 324.5,504.5 318.5,504.5 312.5,504.5C 311.655,499.112 310.489,493.779 309,488.5C 301.659,476.489 294.826,464.155 288.5,451.5C 285.167,450.167 281.833,450.167 278.5,451.5C 248.944,497.706 234.611,548.373 235.5,603.5C 236.089,622.127 237.089,640.627 238.5,659C 239.366,666.609 236.366,671.942 229.5,675C 215.958,678.538 202.625,677.872 189.5,673C 185.687,670.876 183.187,667.709 182,663.5C 178.86,632.579 177.86,601.579 179,570.5C 181.55,524.626 193.883,481.626 216,441.5C 222.07,431.606 227.904,421.606 233.5,411.5C 229.791,399.423 230.124,387.423 234.5,375.5C 214.302,345.096 199.802,312.096 191,276.5C 185.776,248.035 183.609,219.535 184.5,191C 185.425,177.954 186.258,165.121 187,152.5C 187.964,148.532 190.131,145.365 193.5,143C 205.481,138.28 217.814,136.947 230.5,139C 237.739,140.794 241.406,145.461 241.5,153C 232.627,219.756 245.96,281.756 281.5,339C 284.644,339.952 287.144,339.119 289,336.5C 312.259,297.967 323.092,256.134 321.5,211C 320.926,190.138 320.093,169.305 319,148.5C 321.583,141.953 326.417,138.453 333.5,138C 344.697,136.804 355.363,137.804 365.5,141C 369.388,143.222 372.221,146.388 374,150.5C 379.061,183.308 380.728,216.308 379,249.5C 377.28,275.103 371.613,299.77 362,323.5C 354.496,340.009 346.329,356.175 337.5,372C 344.099,387.329 344.099,402.662 337.5,418C 350.172,438.849 360.005,461.015 367,484.5C 368.489,490.453 369.656,496.453 370.5,502.5 Z"/></g>
<g><path style="opacity:0.994" fill="#F1815C" d="M 482.5,504.5 C 462.828,504.593 443.162,504.926 423.5,505.5C 435.263,474.308 449.93,444.641 467.5,416.5C 463.968,404.449 464.301,392.449 468.5,380.5C 426.57,317.383 410.404,248.05 420,172.5C 420.138,166.419 420.804,160.419 422,154.5C 423.833,151.333 426.333,148.833 429.5,147C 443.721,141.87 457.721,141.87 471.5,147C 474.129,150.332 475.462,154.165 475.5,158.5C 471.109,200.339 474.609,241.672 486,282.5C 493.3,304.265 503.133,324.765 515.5,344C 517.579,344.808 519.579,344.641 521.5,343.5C 549.545,297.129 560.712,246.796 555,192.5C 554.269,181.659 553.435,170.825 552.5,160C 552.649,149.517 557.982,143.85 568.5,143C 579.055,141.827 589.388,142.827 599.5,146C 604.551,148.72 607.718,152.887 609,158.5C 613.124,190.378 614.457,222.378 613,254.5C 610.91,281.861 604.576,308.195 594,333.5C 586.92,348.238 579.42,362.738 571.5,377C 578.141,392.192 578.141,407.359 571.5,422.5C 600.871,471.14 615.538,523.974 615.5,581C 614.638,610.906 612.804,640.739 610,670.5C 605.943,678.211 599.443,682.044 590.5,682C 581.358,683.045 572.358,682.379 563.5,680C 558.672,676.853 556.005,672.353 555.5,666.5C 559.6,627.496 559.433,588.496 555,549.5C 550.134,516.348 539.301,485.348 522.5,456.5C 518.73,454.976 515.23,455.309 512,457.5C 505.827,467.175 500.16,477.175 495,487.5C 490.584,493.068 486.417,498.735 482.5,504.5 Z"/></g>
<g><path style="opacity:1" fill="#f5efcf" d="M 275.5,363.5 C 293.499,361.434 307.999,367.434 319,381.5C 326.163,402.996 318.663,416.829 296.5,423C 279.313,425.812 265.147,420.645 254,407.5C 245.095,389.884 249.262,376.384 266.5,367C 269.662,365.973 272.662,364.806 275.5,363.5 Z"/></g>
<g><path style="opacity:1" fill="#f5efcd" d="M 512.5,368.5 C 528.387,367.292 541.554,372.625 552,384.5C 559.745,399.023 557.245,411.523 544.5,422C 529.306,430.178 513.972,430.512 498.5,423C 484.134,413.24 480.3,400.407 487,384.5C 493.546,375.981 502.046,370.647 512.5,368.5 Z"/></g>
<g><path style="opacity:1" fill="#67328A" d="M 352.5,502.5 C 345.347,503.538 338.014,504.204 330.5,504.5C 331.609,503.71 332.942,503.21 334.5,503C 340.491,502.501 346.491,502.334 352.5,502.5 Z"/></g>
<g><path style="opacity:0.99" fill="#F1815C" d="M 352.5,502.5 C 358.5,502.5 364.5,502.5 370.5,502.5C 376.475,527.198 380.141,552.365 381.5,578C 380.229,605.842 378.729,633.675 377,661.5C 376.27,667.136 373.436,671.303 368.5,674C 355.593,678.188 342.593,678.522 329.5,675C 324.672,671.853 322.005,667.353 321.5,661.5C 324.14,633.582 324.974,605.582 324,577.5C 321.031,553.022 317.198,528.689 312.5,504.5C 318.5,504.5 324.5,504.5 330.5,504.5C 338.014,504.204 345.347,503.538 352.5,502.5 Z"/></g>
<g><path style="opacity:0.986" fill="#67328A" d="M 482.5,504.5 C 475.22,539.293 470.887,574.46 469.5,610C 470.508,630.511 471.341,651.011 472,671.5C 470.558,675.275 468.058,678.108 464.5,680C 450.605,683.65 436.939,682.983 423.5,678C 418.21,674.26 415.377,669.093 415,662.5C 410.062,611.928 412.062,561.928 421,512.5C 421.744,510.1 422.577,507.767 423.5,505.5C 443.162,504.926 462.828,504.593 482.5,504.5 Z"/></g>
</svg>
