<?xml version="1.0" encoding="UTF-8"?>
<!DOCTYPE svg PUBLIC "-//W3C//DTD SVG 1.1//EN" "http://www.w3.org/Graphics/SVG/1.1/DTD/svg11.dtd">
<svg xmlns="http://www.w3.org/2000/svg" version="1.1" width="1200px" height="1000px" style="shape-rendering:geometricPrecision; text-rendering:geometricPrecision; image-rendering:optimizeQuality; fill-rule:evenodd; clip-rule:evenodd" xmlns:xlink="http://www.w3.org/1999/xlink">
<g><path style="opacity:0.816" fill="#e1dfb7" d="M 492.5,254.5 C 495.514,255.004 497.18,256.837 497.5,260C 496.983,262.077 496.316,264.077 495.5,266C 437.842,270.798 381.509,282.132 326.5,300C 298.76,310.87 272.093,323.87 246.5,339C 220.211,356.95 196.711,378.116 176,402.5C 157.144,430.041 143.477,460.041 135,492.5C 131.966,497.537 128.633,497.537 125,492.5C 124.5,491 124,489.5 123.5,488C 134.903,437.169 159.903,394.502 198.5,360C 225.274,335.937 255.274,316.604 288.5,302C 305.949,293.627 323.949,286.627 342.5,281C 391.71,266.855 441.71,258.022 492.5,254.5 Z"/></g>
<g><path style="opacity:0.833" fill="#e1dfb7" d="M 703.5,254.5 C 755.413,257.93 806.413,266.763 856.5,281C 899.019,294.761 938.686,314.094 975.5,339C 999.333,357.5 1020.5,378.667 1039,402.5C 1055.45,429.179 1067.61,457.679 1075.5,488C 1074.86,491.979 1072.69,494.812 1069,496.5C 1067.6,496.22 1066.44,495.553 1065.5,494.5C 1059.12,474.411 1051.62,454.745 1043,435.5C 1034.96,419.14 1024.96,404.14 1013,390.5C 994.559,370.377 974.059,352.877 951.5,338C 901.392,307.739 847.392,287.739 789.5,278C 761.284,273.098 732.95,269.098 704.5,266C 701.134,262.389 700.8,258.555 703.5,254.5 Z"/></g>
<g><path style="opacity:0.822" fill="#e1dfb7" d="M 529.5,417.5 C 606.848,417.105 684.181,417.938 761.5,420C 808.605,424.11 855.272,431.11 901.5,441C 942.069,453.412 982.069,467.412 1021.5,483C 1036.89,489.774 1051.39,497.94 1065,507.5C 1068.33,511.502 1068.16,515.335 1064.5,519C 1063.17,519.667 1061.83,519.667 1060.5,519C 1041.63,506.564 1021.63,496.231 1000.5,488C 970.984,477.272 941.317,466.939 911.5,457C 862.176,444.906 812.176,436.906 761.5,433C 707.677,431.401 653.843,430.235 600,429.5C 546.156,430.235 492.323,431.401 438.5,433C 388.87,436.756 339.87,444.423 291.5,456C 257.941,467.075 224.607,478.742 191.5,491C 183.261,494.119 175.261,497.786 167.5,502C 157.626,508.102 147.626,513.935 137.5,519.5C 132.142,517.448 130.642,513.781 133,508.5C 140.904,502.128 149.404,496.628 158.5,492C 201.248,473.305 244.915,456.971 289.5,443C 368.566,424.281 448.566,415.781 529.5,417.5 Z"/></g>
<g><path style="opacity:0.806" fill="#e1dfb7" d="M 108.5,422.5 C 113.239,422.069 116.905,423.736 119.5,427.5C 115.723,436.054 112.223,444.72 109,453.5C 106.901,462.762 105.234,472.096 104,481.5C 100.179,482.981 96.5119,482.648 93,480.5C 91.9629,466.392 94.2962,452.725 100,439.5C 102.366,433.549 105.199,427.882 108.5,422.5 Z"/></g>
<g><path style="opacity:0.82" fill="#e1dfb7" d="M 1084.5,422.5 C 1087.36,422.055 1089.86,422.722 1092,424.5C 1100.81,440.923 1105.97,458.423 1107.5,477C 1105.54,482.071 1101.87,483.738 1096.5,482C 1095.11,480.829 1094.27,479.329 1094,477.5C 1092.71,459.8 1087.88,443.133 1079.5,427.5C 1080.58,425.15 1082.24,423.483 1084.5,422.5 Z"/></g>
<g><path style="opacity:0.803" fill="#e1dfb7" d="M 63.5,439.5 C 66.6021,439.154 69.4355,439.821 72,441.5C 74.4362,452.514 76.9362,463.514 79.5,474.5C 79.3684,476.601 78.3684,478.101 76.5,479C 71.3674,480.794 67.8674,479.294 66,474.5C 63.6418,464.542 61.4751,454.542 59.5,444.5C 60.1267,442.213 61.46,440.546 63.5,439.5 Z"/></g>
<g><path style="opacity:0.797" fill="#e1dfb7" d="M 1128.5,439.5 C 1131.61,439.351 1134.61,439.851 1137.5,441C 1138.43,442.194 1139.1,443.527 1139.5,445C 1137.38,455.923 1134.88,466.756 1132,477.5C 1128.69,479.993 1125.19,480.159 1121.5,478C 1120.11,477.044 1119.44,475.711 1119.5,474C 1121.79,464.195 1123.96,454.362 1126,444.5C 1126.37,442.548 1127.2,440.882 1128.5,439.5 Z"/></g>
<g><path style="opacity:0.761" fill="#e1dfb7" d="M 43.5,476.5 C 49.0163,478.843 54.183,481.843 59,485.5C 59.7844,492.716 56.6177,495.882 49.5,495C 45.3996,492.533 41.5662,489.699 38,486.5C 38.3081,482.351 40.1414,479.018 43.5,476.5 Z"/></g>
<g><path style="opacity:0.77" fill="#e1dfb7" d="M 1153.5,476.5 C 1158.19,478.34 1160.69,481.674 1161,486.5C 1157.45,489.719 1153.61,492.552 1149.5,495C 1142.45,495.739 1139.28,492.572 1140,485.5C 1144.48,482.353 1148.98,479.353 1153.5,476.5 Z"/></g>
<g><path style="opacity:0.928" fill="#e1dfb7" d="M 84.5,482.5 C 106.622,483.448 120.122,494.781 125,516.5C 127.952,533.975 123.119,548.808 110.5,561C 97.3092,570.212 83.6425,570.879 69.5,563C 54.6339,551.07 48.8006,535.57 52,516.5C 55.9524,498.385 66.7857,487.051 84.5,482.5 Z"/></g>
<g><path style="opacity:0.928" fill="#e1dfb7" d="M 1106.5,482.5 C 1128.62,483.448 1142.12,494.781 1147,516.5C 1149.95,533.975 1145.12,548.808 1132.5,561C 1119.31,570.212 1105.64,570.879 1091.5,563C 1076.63,551.07 1070.8,535.57 1074,516.5C 1077.94,498.393 1088.78,487.06 1106.5,482.5 Z"/></g>
<g><path style="opacity:1" fill="#d7d876" d="M 78.5,491.5 C 91.0518,490.559 97.2184,496.226 97,508.5C 92.5695,519.294 85.0695,522.128 74.5,517C 68.9923,510.766 68.1589,503.933 72,496.5C 73.9651,494.45 76.1318,492.783 78.5,491.5 Z"/></g>
<g><path style="opacity:1" fill="#d7d876" d="M 1110.5,491.5 C 1126.04,490.531 1131.87,497.531 1128,512.5C 1123.75,518.588 1117.91,520.754 1110.5,519C 1103.24,514.899 1100.41,508.733 1102,500.5C 1104.36,496.973 1107.2,493.973 1110.5,491.5 Z"/></g>
<g><path style="opacity:0.782" fill="#e1dfb7" d="M 28.5,508.5 C 34.572,510.023 40.572,511.857 46.5,514C 50.3054,519.28 49.1388,523.447 43,526.5C 37.5,524.667 32,522.833 26.5,521C 23.6402,516.323 24.3069,512.156 28.5,508.5 Z"/></g>
<g><path style="opacity:0.764" fill="#e1dfb7" d="M 1167.5,508.5 C 1173.71,510.253 1175.71,514.253 1173.5,520.5C 1168.12,522.792 1162.62,524.792 1157,526.5C 1151.7,524.558 1149.53,520.891 1150.5,515.5C 1156,512.56 1161.67,510.227 1167.5,508.5 Z"/></g>
<g><path style="opacity:0.823" fill="#e1dfb7" d="M 133.5,526.5 C 136.607,526.351 139.607,526.851 142.5,528C 155.383,534.441 168.716,539.774 182.5,544C 222.67,553.126 263.004,561.459 303.5,569C 352.517,574.352 401.684,577.185 451,577.5C 492.67,577.024 534.337,576.357 576,575.5C 633.315,575.909 690.648,576.576 748,577.5C 784.215,577.214 820.381,575.714 856.5,573C 873.607,571.903 890.607,569.903 907.5,567C 939.861,560.461 972.194,553.794 1004.5,547C 1023.24,542.31 1041.24,535.643 1058.5,527C 1064.36,524.908 1067.36,526.908 1067.5,533C 1067.17,535.175 1066.17,537.008 1064.5,538.5C 1050.53,545.992 1035.86,551.825 1020.5,556C 973.594,567.56 926.261,576.894 878.5,584C 794.949,590.88 711.282,592.547 627.5,589C 618.256,588.819 609.089,588.319 600,587.5C 551.416,589.267 502.749,590.267 454,590.5C 417.782,590.296 381.616,588.796 345.5,586C 325.371,584.763 305.371,582.43 285.5,579C 253.806,572.461 222.139,565.794 190.5,559C 171.325,554.499 152.991,547.832 135.5,539C 130.996,535.473 130.329,531.306 133.5,526.5 Z"/></g>
<g><path style="opacity:1" fill="#d7d876" d="M 88.5,526.5 C 102.853,526.008 108.687,532.674 106,546.5C 100.5,554.664 93.3332,556.498 84.5,552C 79.7981,547.078 78.2981,541.245 80,534.5C 82.0738,530.923 84.9072,528.256 88.5,526.5 Z"/></g>
<g><path style="opacity:1" fill="#d7d876" d="M 1100.5,526.5 C 1114.73,525.225 1120.89,531.558 1119,545.5C 1115.17,553.122 1109,555.955 1100.5,554C 1088.54,544.8 1088.54,535.633 1100.5,526.5 Z"/></g>
<g><path style="opacity:0.765" fill="#e1dfb7" d="M 42.5,534.5 C 44.7224,534.178 46.5557,534.845 48,536.5C 50.3246,539.742 50.6579,543.076 49,546.5C 43.8524,550.006 38.3524,552.173 32.5,553C 28.5276,549.804 27.5276,546.137 29.5,542C 33.8961,539.473 38.2295,536.973 42.5,534.5 Z"/></g>
<g><path style="opacity:0.776" fill="#e1dfb7" d="M 1152.5,534.5 C 1158.87,535.933 1164.7,538.599 1170,542.5C 1171.46,549.148 1168.96,552.648 1162.5,553C 1157.41,551.042 1152.91,548.208 1149,544.5C 1148.73,540.699 1149.9,537.366 1152.5,534.5 Z"/></g>
<g><path style="opacity:0.832" fill="#e1dfb7" d="M 130.5,550.5 C 132.09,550.628 133.423,551.295 134.5,552.5C 141.507,573.18 150.674,592.847 162,611.5C 177.033,638.874 195.533,663.707 217.5,686C 256.551,717.042 299.551,741.708 346.5,760C 370,768.209 394,774.542 418.5,779C 450.643,785.08 482.977,789.746 515.5,793C 518.223,797.066 518.057,800.899 515,804.5C 474.537,801.23 434.37,795.397 394.5,787C 355.724,778.519 319.057,764.519 284.5,745C 257.454,730.819 232.121,714.152 208.5,695C 186.807,673.429 168.64,649.262 154,622.5C 145.492,608.153 137.492,593.487 130,578.5C 127.703,572.313 125.87,565.98 124.5,559.5C 124.96,555.39 126.96,552.39 130.5,550.5 Z"/></g>
<g><path style="opacity:0.816" fill="#e1dfb7" d="M 1066.5,550.5 C 1071.03,551.535 1073.7,554.368 1074.5,559C 1072.18,571.634 1067.68,583.468 1061,594.5C 1046,622.522 1029,649.188 1010,674.5C 993.19,694.321 973.69,710.821 951.5,724C 917.189,745.655 880.856,763.321 842.5,777C 790.828,791.195 738.328,800.362 685,804.5C 680.882,801.334 680.382,797.501 683.5,793C 728.271,788.372 772.604,781.038 816.5,771C 870.324,755.252 919.991,731.252 965.5,699C 982.707,686.127 997.54,670.96 1010,653.5C 1026.93,628.542 1042.26,602.542 1056,575.5C 1058.53,568.909 1060.86,562.242 1063,555.5C 1063.7,553.416 1064.86,551.749 1066.5,550.5 Z"/></g>
<g><path style="opacity:0.787" fill="#e1dfb7" d="M 52.5,552.5 C 57.3793,553.099 60.3793,555.766 61.5,560.5C 58.2754,567.95 54.7754,575.283 51,582.5C 48.2098,584.831 45.3765,584.664 42.5,582C 40.9903,580.649 39.9903,578.982 39.5,577C 43.2182,568.391 47.5516,560.225 52.5,552.5 Z"/></g>
<g><path style="opacity:0.785" fill="#e1dfb7" d="M 1144.5,552.5 C 1146.09,552.628 1147.42,553.295 1148.5,554.5C 1152.58,562.153 1156.24,569.986 1159.5,578C 1157.85,581.337 1155.18,583.503 1151.5,584.5C 1150.25,583.96 1149.09,583.293 1148,582.5C 1144.22,575.283 1140.72,567.95 1137.5,560.5C 1138.48,556.527 1140.81,553.86 1144.5,552.5 Z"/></g>
<g><path style="opacity:0.795" fill="#e1dfb7" d="M 74.5,570.5 C 79.5859,569.675 82.7525,571.675 84,576.5C 85.5768,587.709 86.0768,598.875 85.5,610C 81.2658,610.815 77.4325,609.982 74,607.5C 72.556,596.169 71.556,584.836 71,573.5C 72.1451,572.364 73.3117,571.364 74.5,570.5 Z"/></g>
<g><path style="opacity:0.788" fill="#e1dfb7" d="M 1118.5,570.5 C 1123.8,569.476 1127.14,571.476 1128.5,576.5C 1127.28,586.823 1126.11,597.156 1125,607.5C 1121.36,610.4 1117.36,611.067 1113,609.5C 1112.91,598.139 1113.57,586.806 1115,575.5C 1115.26,573.093 1116.42,571.427 1118.5,570.5 Z"/></g>
<g><path style="opacity:0.83" fill="#e1dfb7" d="M 101.5,572.5 C 104.449,573.614 106.615,575.614 108,578.5C 115.071,593.653 123.404,607.986 133,621.5C 134.029,628.137 131.196,631.303 124.5,631C 123.069,630.535 121.903,629.701 121,628.5C 110.991,613.824 101.991,598.491 94,582.5C 93.3131,580.432 93.4798,578.432 94.5,576.5C 96.7654,574.873 99.0987,573.539 101.5,572.5 Z"/></g>
<g><path style="opacity:0.82" fill="#e1dfb7" d="M 1093.5,573.5 C 1098.13,572.7 1101.96,574.034 1105,577.5C 1105.67,579.167 1105.67,580.833 1105,582.5C 1096.8,599.749 1086.97,615.916 1075.5,631C 1071.9,631.536 1068.9,630.369 1066.5,627.5C 1065.48,625.568 1065.31,623.568 1066,621.5C 1076.45,606.26 1085.62,590.26 1093.5,573.5 Z"/></g>
</svg>
