<svg id="svg" version="1.1" xmlns="http://www.w3.org/2000/svg" xmlns:xlink="http://www.w3.org/1999/xlink" width="400" height="400" viewBox="0, 0, 400,400"><g id="svgg"><path id="path0" d="M80.428 7.861 C 64.916 15.591,58.175 40.228,65.651 61.870 C 67.587 67.475,67.637 67.726,67.076 69.138 C 65.958 71.956,65.892 73.704,66.802 76.405 C 67.820 79.428,67.892 79.079,64.402 88.000 C 58.962 101.904,58.583 110.831,62.881 123.800 C 68.759 141.536,87.440 159.061,95.809 154.693 C 103.433 150.714,100.994 143.247,88.864 133.435 C 78.934 125.402,73.681 113.800,74.771 102.302 C 75.492 94.698,77.161 88.353,77.194 93.095 C 77.205 94.695,79.627 101.655,80.127 101.524 C 80.923 101.315,92.400 95.168,92.400 94.951 C 92.400 94.839,92.188 94.354,91.929 93.874 C 91.670 93.393,90.503 90.305,89.336 87.012 L 87.214 81.023 88.387 79.812 C 90.994 77.117,91.600 72.515,89.812 68.983 L 88.823 67.031 90.640 61.023 C 95.858 43.773,102.557 34.584,112.830 30.588 C 122.516 26.821,125.987 23.098,124.791 17.762 C 123.123 10.315,116.606 9.547,104.590 15.382 C 90.610 22.170,81.231 37.033,78.959 56.000 C 78.513 59.724,78.168 59.429,77.466 54.724 C 76.511 48.323,76.594 44.174,77.768 39.800 C 79.715 32.543,80.041 31.970,85.402 26.382 C 91.413 20.117,92.575 18.077,92.329 14.215 C 91.940 8.110,86.142 5.014,80.428 7.861 M82.400 66.434 C 85.741 67.948,87.292 70.094,87.292 73.200 C 87.292 82.675,71.259 83.548,69.775 74.154 C 68.860 68.364,76.437 63.730,82.400 66.434 M306.600 96.691 C 302.165 105.236,292.847 114.209,283.448 118.985 C 274.735 123.413,269.929 127.240,269.376 130.189 C 268.351 135.651,271.611 139.477,277.661 139.911 C 290.042 140.800,314.084 120.127,319.917 103.577 L 321.123 100.154 315.001 96.877 C 307.644 92.939,308.537 92.959,306.600 96.691 M310.321 248.016 C 303.749 251.487,304.778 258.009,313.239 266.510 C 320.626 273.932,323.093 282.100,321.423 293.600 C 320.445 300.335,320.373 300.358,319.346 294.252 C 318.401 288.632,317.064 283.075,316.398 281.997 C 316.089 281.497,314.951 281.765,308.997 283.739 C 303.527 285.552,302.054 286.184,302.381 286.577 C 303.302 287.686,306.491 295.990,308.124 301.530 L 309.855 307.400 308.861 309.325 C 307.060 312.811,307.648 317.004,310.372 320.107 C 311.574 321.476,311.612 321.617,311.076 322.678 C 310.764 323.295,310.007 325.330,309.392 327.200 C 305.699 338.444,299.602 347.923,292.512 353.440 C 290.845 354.738,288.653 356.481,287.640 357.312 C 286.628 358.144,283.820 359.836,281.400 361.073 C 269.688 367.057,265.943 370.973,267.192 375.933 C 269.323 384.396,280.455 384.072,292.888 375.184 C 308.349 364.133,318.266 349.988,321.251 334.732 C 321.977 331.020,322.192 331.135,323.036 335.684 C 325.967 351.474,321.439 364.406,309.629 373.980 C 297.698 383.651,295.361 391.097,303.000 395.100 C 311.242 399.420,329.466 382.620,335.569 365.075 C 340.194 351.779,339.799 342.287,334.018 327.873 C 330.904 320.108,330.806 319.660,331.748 317.513 C 332.587 315.599,332.584 312.302,331.740 309.948 L 331.076 308.096 332.927 302.748 C 337.129 290.604,337.486 282.968,334.410 271.038 C 330.491 255.839,318.040 243.940,310.321 248.016 M109.000 250.760 C 96.248 254.223,87.064 262.144,80.734 275.139 C 78.345 280.045,77.836 279.380,86.065 282.107 L 92.731 284.316 95.319 280.858 C 101.223 272.972,102.845 271.627,109.600 269.022 C 117.812 265.854,121.168 262.689,121.191 258.087 C 121.223 251.958,116.046 248.847,109.000 250.760 M324.974 307.364 C 332.113 311.548,328.785 321.182,320.200 321.182 C 313.056 321.182,308.877 314.173,313.058 309.204 C 315.794 305.953,321.154 305.125,324.974 307.364 " stroke="none" fill="#7c6b8b" fill-rule="evenodd"></path><path id="path1" d="M313.917 5.175 C 310.683 6.211,308.400 9.390,308.400 12.857 C 308.400 16.237,309.807 18.575,315.216 24.184 C 317.789 26.852,320.169 29.567,320.505 30.217 C 322.302 33.696,324.547 43.366,324.179 46.043 C 324.107 46.569,323.732 49.390,323.347 52.312 C 322.625 57.773,322.299 58.225,321.841 54.400 C 319.609 35.772,310.201 20.519,296.800 13.805 C 284.799 7.792,277.628 8.555,275.950 16.024 C 274.840 20.965,278.595 25.101,287.231 28.450 C 293.063 30.712,294.019 31.282,296.529 33.993 C 303.683 41.720,306.481 46.862,310.172 59.066 L 312.002 65.116 311.005 67.258 C 309.257 71.012,309.772 74.868,312.425 77.889 C 313.236 78.813,313.558 79.510,313.376 79.944 C 313.224 80.305,312.155 83.210,311.000 86.400 C 309.845 89.590,308.789 92.470,308.653 92.800 C 308.452 93.287,318.030 98.910,320.771 99.914 C 321.212 100.075,322.282 97.101,323.353 92.742 L 324.273 89.000 324.947 92.600 C 328.168 109.810,324.089 121.863,311.615 131.998 C 302.651 139.282,299.556 144.249,301.225 148.674 C 306.138 161.705,329.130 145.986,337.314 124.000 C 342.309 110.582,342.012 100.384,336.201 85.800 C 332.986 77.732,332.943 77.550,333.821 75.700 C 334.740 73.762,334.772 70.283,333.892 67.982 L 333.197 66.164 335.177 60.309 C 339.261 48.229,339.545 39.071,336.197 27.388 C 332.535 14.612,320.843 2.956,313.917 5.175 M325.640 64.455 C 331.529 66.427,332.993 72.809,328.489 76.873 C 322.899 81.918,313.430 78.307,313.528 71.168 C 313.598 66.099,319.982 62.561,325.640 64.455 M86.215 98.408 C 82.923 100.164,80.092 101.600,79.922 101.600 C 78.643 101.600,83.584 111.891,87.213 116.786 C 101.405 135.926,123.700 147.158,130.307 138.496 C 134.578 132.896,130.509 127.384,117.000 120.468 C 107.939 115.829,98.693 106.995,94.586 99.052 C 93.494 96.939,92.510 95.211,92.400 95.213 C 92.290 95.215,89.507 96.653,86.215 98.408 M78.169 245.907 C 70.732 248.555,63.102 258.618,60.402 269.338 C 57.405 281.241,57.715 288.423,61.737 300.303 L 63.869 306.600 63.145 308.200 C 62.156 310.385,62.182 313.803,63.202 315.805 C 64.153 317.669,64.061 318.050,60.594 326.600 C 55.048 340.279,54.691 349.406,59.181 362.807 C 65.014 380.218,83.721 397.719,91.920 393.436 C 99.562 389.443,97.324 382.149,85.497 372.501 C 73.324 362.571,68.835 350.197,71.747 334.600 C 72.517 330.474,73.165 328.556,73.188 330.333 C 73.208 331.876,74.683 337.067,76.760 342.901 C 84.899 365.764,117.587 388.513,126.330 377.398 C 130.827 371.681,126.817 366.064,113.400 359.285 C 100.247 352.639,91.170 341.825,85.799 326.400 C 84.765 323.430,83.784 320.756,83.620 320.458 C 83.434 320.120,83.747 319.451,84.454 318.677 C 87.179 315.693,87.760 311.615,86.021 307.679 L 85.083 305.558 86.387 301.079 C 87.991 295.564,90.121 289.753,91.660 286.691 C 92.511 284.999,92.684 284.332,92.310 284.191 C 92.030 284.086,88.862 283.019,85.271 281.820 L 78.743 279.639 78.132 281.101 C 77.292 283.110,75.735 290.151,75.125 294.695 C 74.545 299.021,74.426 298.816,73.392 291.719 C 72.560 286.004,72.766 282.375,74.204 277.400 C 75.966 271.304,76.737 270.026,81.882 264.678 C 84.624 261.828,87.019 258.942,87.600 257.787 C 91.123 250.787,85.248 243.386,78.169 245.907 M277.726 252.777 C 273.797 254.562,272.408 260.345,275.017 264.061 C 276.723 266.490,279.812 268.511,284.757 270.433 C 292.358 273.386,294.561 275.239,300.541 283.710 C 301.438 284.980,302.358 285.951,302.586 285.866 C 302.814 285.782,305.925 284.747,309.500 283.566 C 313.075 282.385,316.000 281.277,316.000 281.103 C 316.000 280.265,311.062 271.092,309.378 268.800 C 300.807 257.140,285.351 249.316,277.726 252.777 M78.451 304.964 C 84.587 307.528,85.347 314.822,79.830 318.195 C 73.117 322.299,64.371 316.947,66.157 309.829 C 67.180 305.754,73.940 303.079,78.451 304.964 " stroke="none" fill="#b44c44" fill-rule="evenodd"></path><path id="path2" d="M318.400 64.638 C 312.005 67.408,311.862 75.310,318.153 78.239 C 325.481 81.651,333.508 75.321,330.435 68.554 C 328.701 64.736,322.690 62.780,318.400 64.638 M70.597 305.146 C 66.161 307.161,64.569 312.524,67.331 316.145 C 72.075 322.365,83.637 319.429,83.591 312.015 C 83.556 306.305,76.387 302.515,70.597 305.146 " stroke="none" fill="#b48752" fill-rule="evenodd"></path><path id="path3" d="M75.296 66.134 C 71.783 67.408,69.283 71.039,69.775 74.154 C 71.259 83.548,87.292 82.675,87.292 73.200 C 87.292 67.870,80.896 64.103,75.296 66.134 M317.597 306.350 C 308.098 309.465,310.154 321.182,320.200 321.182 C 331.157 321.182,331.823 306.892,320.900 306.173 C 319.635 306.089,318.149 306.169,317.597 306.350 " stroke="none" fill="#803463" fill-rule="evenodd"></path></g></svg>