<svg xmlns="http://www.w3.org/2000/svg" width="400" height="333.333" viewBox="0 0 400 333.333">
  <g fill-rule="evenodd">
    <path d="M189.088 134.906c.507.076 1.257.074 1.667-.005.41-.079-.005-.141-.922-.139-.916.003-1.252.067-.745.144m13.329-.001a7.301 7.301 0 0 0 1.833 0c.504-.076.092-.138-.917-.138-1.008 0-1.421.062-.916.138M50.302 148.776c-5.485 2.895-4.498 11.203 1.532 12.891 5.512 1.543 10.592-4.343 8.199-9.5-1.761-3.796-6.1-5.308-9.731-3.391m5.367 17.088c-3.821 1.657-5.329 6.478-3.136 10.026 3.712 6.005 13.021 3.342 12.919-3.696-.072-4.991-5.208-8.314-9.783-6.33m196.585 52.038c.415.08 1.015.077 1.333-.006.319-.084-.02-.149-.754-.145-.733.003-.994.072-.579.151" fill="#d5db75"/>
    <path d="M337.96 19.142c-.117.109-1.852.32-5.627.683-1.577.152-4.068.355-8.5.692-1.466.111-3.041.258-3.5.325-.458.067-1.733.222-2.833.345-1.1.122-2.225.263-2.5.312-.275.049-1.325.194-2.333.322-1.94.245-2.686.345-4.834.646-.733.102-1.933.261-2.666.352-2.807.348-12.003 1.682-13.834 2.007-.458.081-1.358.223-2 .314-8.586 1.22-33.811 6.004-43.166 8.186l-3.667.851c-15.244 3.525-30.595 8.078-41.5 12.31a1110.368 1110.368 0 0 1-6.5 2.507c-.856.321-2.032.807-3.5 1.446-.642.279-1.992.827-3 1.216a69.253 69.253 0 0 0-3.292 1.381c-.802.37-2.227.969-3.166 1.333-.94.363-2.234.889-2.875 1.168l-1.834.794c-.366.158-1.842.823-3.279 1.478-1.438.654-2.692 1.19-2.789 1.19-.096 0-1.296.525-2.666 1.167-1.371.641-2.56 1.166-2.643 1.166-.083 0-1.157.464-2.387 1.031-1.229.566-3.061 1.408-4.069 1.869-4.751 2.174-6.515 3.014-11.167 5.315-4.684 2.318-6.851 3.469-9.386 4.988-.58.347-1.855 1.099-2.834 1.672-3.167 1.852-7.085 4.867-12.778 9.832-23.309 20.33-29.152 26.641-40.419 43.654-8.48 12.805-10.144 17.013-7.607 19.24 2.254 1.979 3.344 1.082 6.483-5.336 7.13-14.581 20.416-30.992 36.375-44.931a807.152 807.152 0 0 0 5.807-5.167 484.68 484.68 0 0 1 5.859-5.159c1.854-1.59 2.24-1.895 4-3.17a91.593 91.593 0 0 0 2.167-1.601c.599-.492 5.671-3.726 6.512-4.154.452-.229 1.721-.933 2.821-1.563 2.87-1.643 14.856-7.52 15.338-7.52.13 0 2.081-.879 7.329-3.301a154.65 154.65 0 0 1 3.5-1.533 420.177 420.177 0 0 0 6.833-2.98c.55-.245 1.825-.781 2.834-1.191A192.263 192.263 0 0 0 184 59.935c4.155-1.799 4.871-2.096 6.569-2.729a63.617 63.617 0 0 0 3-1.231c2.406-1.067 2.857-1.246 3.764-1.498.459-.127 1.434-.494 2.167-.815.733-.322 2.308-.927 3.5-1.345 1.192-.417 2.317-.864 2.5-.992.183-.128.739-.33 1.235-.448a15.278 15.278 0 0 0 1.834-.598c.512-.21 1.081-.421 1.264-.469.184-.048 2.584-.864 5.334-1.813 2.75-.949 5.341-1.79 5.757-1.869.417-.079 1.505-.438 2.417-.798.912-.359 1.659-.579 1.659-.487 0 .091.525-.053 1.167-.322.641-.268 1.166-.423 1.166-.346 0 .078.413-.018.917-.213.902-.349 1.456-.499 3.06-.83.445-.092.932-.242 1.082-.335.15-.092.573-.235.94-.316.367-.081.968-.223 1.335-.314l1.333-.334 1.333-.333c1.587-.397 2.217-.544 3-.703.842-.171 2.939-.669 4.167-.99.367-.096.967-.241 1.333-.321.651-.144 1.392-.31 2.917-.656.412-.094 1.2-.249 1.75-.345a17.53 17.53 0 0 0 1.557-.344c.717-.218 1.815-.441 3.276-.666.642-.099 1.467-.275 1.834-.391.746-.235.917-.275 2.333-.55.55-.107 1.375-.272 1.833-.367.459-.096 1.209-.246 1.667-.334a144.45 144.45 0 0 0 1.667-.333 140.17 140.17 0 0 1 1.666-.333c.459-.088 1.209-.239 1.667-.336a34.989 34.989 0 0 1 2.167-.346c.733-.094 1.584-.248 1.89-.342.728-.224 1.834-.447 3.276-.662.642-.096 1.617-.27 2.167-.388l1.333-.285a49.408 49.408 0 0 1 1.834-.283c.825-.117 1.95-.308 2.5-.425.55-.117 1.225-.246 1.5-.286.275-.041 1.1-.181 1.833-.313 1.705-.307 2.295-.396 4.333-.654.917-.117 1.892-.274 2.167-.351.275-.076.95-.206 1.5-.287a4919.373 4919.373 0 0 1 4.833-.714c.514-.073 2.854-.432 4.334-.665a93.303 93.303 0 0 1 2.333-.316 158.77 158.77 0 0 0 2.667-.354c.641-.092 1.766-.247 2.5-.343a80.998 80.998 0 0 0 2.166-.313 70.71 70.71 0 0 1 2.5-.332 65.323 65.323 0 0 0 2.5-.333 60.555 60.555 0 0 1 2.334-.315 548.8 548.8 0 0 0 2.833-.338c.733-.089 2.233-.246 3.333-.347 3.455-.317 6.927-.687 9.497-1.011 1.61-.204 2.988-.925 3.028-1.586.014-.225.095-.784.18-1.242.274-1.477-.858-3.528-1.578-2.858M64.215 117.705c-3.273 6.947-4.327 10.1-5.357 16.03-1.407 8.096-1.115 9.279 2.342 9.518 2.638.182 2.674.122 3.307-5.586.613-5.52 1.79-9.979 3.83-14.5 3.627-8.039 3.591-8.445-.801-9.047l-1.533-.21-1.788 3.795m-20.213 5.08c-2.086.531-2.127 1.117-.605 8.548 1.572 7.674 2.158 9.578 3.146 10.226 1.012.663 3.325.347 4.323-.59.861-.808.888-.504-.682-7.469-.619-2.75-1.372-6.15-1.672-7.556-.717-3.36-1.519-3.921-4.51-3.159m135.663 6.315c-.091.083-2.49.251-5.332.372-2.841.122-5.616.276-6.166.343-.55.066-2.275.226-3.834.355-1.558.129-2.908.276-3 .327-.091.052-1.366.2-2.833.33-1.466.13-2.741.281-2.833.335-.092.055-.842.19-1.667.301-.825.11-3.675.586-6.333 1.058a918.091 918.091 0 0 1-6.773 1.179c-11.199 1.858-31.514 7.315-40.227 10.804-10.573 4.235-21.376 10.341-22.505 12.72-1.498 3.156 1.686 5.579 4.549 3.463.511-.378 1.054-.687 1.208-.687.153 0 1.307-.675 2.563-1.5 1.256-.825 2.33-1.5 2.386-1.5.057 0 .897-.471 1.867-1.046 1.652-.979 8.323-4.339 10.932-5.506a48.986 48.986 0 0 0 1.745-.818c.318-.163.721-.297.895-.297.174 0 .739-.175 1.255-.388a39.388 39.388 0 0 1 1.105-.446c.091-.031.391-.14.666-.241 2.046-.755 3.747-1.329 4.092-1.381.225-.035.596-.18.825-.323.229-.143.417-.174.417-.069 0 .105.525-.029 1.166-.297.642-.268 1.167-.424 1.167-.346 0 .078.412-.018.917-.213.856-.331 1.143-.414 2.666-.763.321-.073 1.559-.388 2.75-.699 2.195-.574 2.735-.705 4.084-.995l1.661-.358c.501-.109.986-.196 1.077-.194.091.002.656-.14 1.256-.316a20.84 20.84 0 0 1 2.256-.498c.641-.098 1.466-.273 1.833-.388.747-.236.917-.276 2.333-.551.55-.106 1.375-.273 1.834-.37a41.015 41.015 0 0 1 2-.346 32.577 32.577 0 0 0 2-.36 32.6 32.6 0 0 1 1.666-.323c.947-.153 3.001-.536 3.5-.653.184-.043.94-.171 1.68-.286.741-.114 1.71-.277 2.154-.362.781-.151 2.618-.439 4.333-.681l2.167-.306c3.959-.56 6.128-.816 11.416-1.343 6.383-.637 14.882-.905 28.584-.899 15.688.006 26.663.356 39.166 1.248 5.32.379 13.188 1.177 16.334 1.656.458.07 1.583.226 2.5.346.916.121 1.96.275 2.32.343.359.069 1.259.211 2 .316.74.105 1.796.264 2.346.354l2 .324c.55.089 1.825.301 2.834.47 1.008.17 2.439.393 3.18.496.74.103 1.709.257 2.153.342.444.086 1.413.243 2.153.35.741.107 4.797.778 9.014 1.491 4.216.713 8.272 1.38 9.013 1.483.741.103 1.659.248 2.041.321a79.85 79.85 0 0 0 1.903.328l2.418.388a79.18 79.18 0 0 1 1.904.328c.381.073 1.231.213 1.887.311.657.098 1.557.248 2 .334.444.085 1.344.235 2 .333.657.098 1.557.248 2 .333.444.086 1.344.236 2 .334.657.098 1.557.248 2 .333.444.085 1.344.235 2 .333.657.098 1.557.248 2 .334.444.085 1.344.235 2 .333.657.098 1.557.248 2 .333.444.086 1.344.236 2 .334.657.098 1.557.248 2 .333.444.085 1.344.235 2 .333.657.098 1.557.248 2 .334.444.085 1.344.235 2 .333a57.76 57.76 0 0 1 1.9.314c.389.075 1.433.236 2.32.357.888.122 1.989.285 2.447.363.458.078 1.907.234 3.219.347l2.386.204.883-1.4c1.33-2.106 1.098-3.44-.655-3.766-6.995-1.299-20.635-3.676-31.166-5.431-7.059-1.176-13.209-2.219-13.667-2.317-1.199-.257-20.214-3.427-22-3.667-.825-.111-4.125-.638-7.333-1.171-5.43-.902-10.916-1.763-13.667-2.143-7.04-.975-7.96-1.081-13.167-1.522-2.383-.202-4.783-.427-5.333-.501-.549-.074-3.324-.232-6.166-.351-2.842-.118-5.617-.282-6.167-.362-1.371-.202-44.296-.544-44.502-.354M33.018 141.649c-2.372 2.372-2.145 3.738.982 5.916 4.171 2.905 5.399 2.964 7.023.334 1.154-1.869.815-2.485-2.64-4.806-3.302-2.218-4.318-2.491-5.365-1.444m20.961 2.377c-20.229 2.921-21.622 36.243-1.735 41.486 10.05 2.65 19.101-4.171 21.96-16.549 2.953-12.783-8.301-26.659-20.225-24.937m2.249 4.328c3.204 1.208 5.16 5.391 4.059 8.68-2.65 7.915-14.241 5.46-13.551-2.87.37-4.453 5.219-7.421 9.492-5.81m-30.009 8.69c-1.386.806-2.022 4.107-.969 5.031.806.707 8.194 3.082 8.83 2.838.888-.341 2.295-2.486 2.325-3.545.045-1.553-.492-1.919-4.927-3.362-4.575-1.489-4.406-1.458-5.259-.962m35.037 8.805c5.12 2.139 5.685 9.368.961 12.288-4.703 2.908-10.667-.299-10.659-5.733.008-5.16 4.984-8.524 9.698-6.555m-28.932 4.407c-.82.441-2.177 1.165-3.016 1.61-3.056 1.622-3.409 2.309-2.304 4.476 1.329 2.605 1.87 2.673 5.781.729 3.791-1.885 4.439-2.607 4.076-4.543-.513-2.731-2.152-3.552-4.537-2.272m45.444-.561c-1.278.472-1.673 3.045-.711 4.623 1.355 2.224 15.236 9.273 27.61 14.021 11.736 4.504 31.041 11.248 37.666 13.16l5.5 1.587c6.81 1.967 10.261 2.897 12.167 3.28a158.9 158.9 0 0 1 3 .631c5.344 1.205 7.795 1.687 13.667 2.688a108.2 108.2 0 0 1 2.666.482c1.203.245 8.261 1.431 9.847 1.655.741.104 1.641.244 2 .311 1.207.225 4.186.675 6.82 1.031.825.112 1.725.259 2 .329.275.069 1.521.222 2.769.339 1.247.117 2.55.268 2.894.334.345.066 1.574.215 2.732.33 1.158.115 2.63.269 3.272.342l2.75.314c4.283.49 6.48.711 10.25 1.029 1.375.117 2.92.263 3.434.327.513.063 2.538.221 4.5.351 1.961.13 4.016.272 4.566.315 11.409.886 30.171.882 44.666-.011 3.942-.243 8.243-.524 10.167-.664 1.008-.073 3.258-.221 5-.328 1.742-.107 4.067-.262 5.167-.344 1.1-.081 3.125-.225 4.5-.32 4.634-.317 7.489-.521 9.5-.678 1.1-.085 3.05-.23 4.333-.32 8.414-.594 9.694-.707 11.667-1.03 1.781-.291 2.656-.409 4.833-.649 1.008-.111 2.058-.264 2.333-.34.275-.076 1.389-.231 2.474-.345 2.46-.256 3.227-.402 3.487-.661.311-.311.137-2.865-.266-3.917l-.358-.934-2.918.191a615.99 615.99 0 0 0-4.919.342c-3.693.279-9.829.753-12.833.992-1.008.08-3.108.233-4.667.34-1.558.107-3.508.259-4.333.337-.825.078-2.775.225-4.333.328-1.559.102-3.659.254-4.667.337-1.876.154-4.451.343-9.167.672-1.466.102-3.491.249-4.5.326-1.008.078-3.408.239-5.333.358-1.925.118-4.025.261-4.667.317-9.775.85-41.777.853-46.291.004-.298-.056-2.417-.204-4.709-.329-2.291-.125-4.391-.282-4.666-.349-.275-.067-1.775-.217-3.334-.333-2.946-.219-7.463-.676-13.166-1.333-.734-.084-2.084-.237-3-.339-.917-.102-3.317-.409-5.334-.683-2.016-.274-4.266-.576-5-.671a237.42 237.42 0 0 1-4.5-.671A605.544 605.544 0 0 0 188 205.8c-1.041-.153-4.555-.767-13.266-2.317-9.478-1.686-17.678-3.74-32.067-8.029-10.044-2.993-35.896-12.127-41.834-14.779-2.37-1.059-10.617-5.146-12-5.947-8.021-4.649-9.853-5.482-11.065-5.033m-1.435 8.55c-.688.265-1.99 1.813-2.038 2.422-.47 5.988 4.209 16.56 14.163 32 4.308 6.682 11.803 16.72 15.555 20.833 7.931 8.695 11.825 12.37 19.145 18.067 21.623 16.83 73.763 41.728 110.175 52.611 6.582 1.967 24.231 6.647 28.167 7.468 4.954 1.034 15.2 3.074 16.167 3.219.641.095 1.391.237 1.666.313.275.077 1.1.228 1.834.336.733.108 1.858.323 2.5.478.641.154 1.916.394 2.833.532.917.138 1.817.286 2 .328.607.139 4.311.799 5.626 1.003.71.11 1.61.264 2 .344.389.079 2.057.367 3.707.639 1.65.271 3.319.557 3.708.634.389.077 1.252.227 1.917.334l2.418.388c.664.107 1.527.257 1.916.334 1.266.25 6.34 1.101 7.721 1.295.741.103 1.71.258 2.154.344.443.085 1.412.241 2.153.347.741.105 1.722.249 2.18.321.458.071 3.383.22 6.5.33 3.117.111 6.441.272 7.387.358 2.354.213 2.931-.362 2.66-2.649-.31-2.616-.399-2.647-8.714-3.047-4.599-.221-4.37-.189-20.5-2.874-15.778-2.628-22.463-3.789-31.333-5.443-1.558-.291-4.107-.761-5.664-1.045-11.936-2.175-33.171-7.818-47.656-12.664-9.245-3.092-24.646-8.979-30.847-11.79-3.3-1.496-5.235-2.344-5.346-2.344-.074 0-.926-.359-1.894-.796-.968-.438-2.51-1.133-3.426-1.544-11.158-5.009-26.49-12.584-33.912-16.755-5.582-3.136-7.29-4.127-8.922-5.172-11.923-7.636-18.491-12.671-25.951-19.892-15.24-14.753-31.173-38.42-35.871-53.284-1.808-5.718-2.454-6.643-4.178-5.979m-38.611.855c-.784.944-5.389 10.645-5.389 11.351 0 1.304 2.277 3.212 3.834 3.214.981.001 6.5-10.127 6.5-11.929 0-1.663-3.988-3.789-4.945-2.636m10.66 8.754c-.707.509-.879 6.648-.22 7.813.052.091.195 1.666.317 3.5.457 6.83.481 6.871 4.247 7.35 2.286.29 2.386.127 2.138-3.47l-.394-5.714c-.402-5.853-.823-8.491-1.457-9.129-.882-.89-3.599-1.095-4.631-.35m12.963 1.11c-2.26.84-2.924 1.964-2.231 3.778 1.823 4.774 12.475 22.466 14.293 23.739 1.291.904 2.658.528 4.172-1.148 1.238-1.37.971-2.283-1.968-6.721-2.984-4.507-5.556-8.918-8.679-14.889-2.884-5.515-3.087-5.688-5.587-4.759" fill="#e4dcb3"/>
  </g>
</svg>
