<svg xmlns="http://www.w3.org/2000/svg" width="400" height="400" viewBox="0 0 400 400">
  <g fill-rule="evenodd">
    <path d="M218.4 37.631c-2.688.341-5.541.662-9 1.013-1.1.111-2.9.363-4 .56-1.1.196-2.81.456-3.8.578-3.715.457-9.125 1.381-12.8 2.186-5.536 1.212-9.316 2.053-10 2.225-.33.082-2.13.725-4 1.429-1.87.704-4.3 1.599-5.4 1.991-1.1.391-2.72 1.013-3.6 1.382-2.209.927-9.023 5.543-8.68 5.88.154.151 4.15.306 8.88.346l8.6.071 3.12-1.244c1.715-.684 3.695-1.342 4.4-1.463.704-.121 1.91-.384 2.68-.584.77-.2 1.85-.454 2.4-.565.55-.111 2.71-.567 4.8-1.012 2.09-.446 4.61-.917 5.6-1.047 3.015-.396 3.357-.448 4.6-.702.66-.134 2.19-.35 3.4-.48s3.19-.396 4.4-.593a86 86 0 0 1 4.6-.586c1.32-.126 3.57-.402 5-.614 1.43-.212 2.822-.39 3.094-.394 2.344-.038 3.206-6.103 1.123-7.895-1.13-.972-1.379-.994-5.417-.482m-68.6 26.591c-2.42.289-4.435.537-4.478.552-.044.014-1.769 1.691-3.834 3.726-6.794 6.693-12.524 11.5-13.708 11.5-.122 0-2.133 1.103-4.468 2.451-3.653 2.108-6.723 3.444-7.267 3.161-.086-.044-.266.07-.4.254-.288.392-2.312 1.192-4.845 1.915-.99.283-2.43.795-3.2 1.138-.77.343-3.29 1.109-5.6 1.701-7.988 2.049-8.371 2.179-8.809 2.998-.561 1.048-1.306 7.64-.903 7.986 1.115.957 29.678-8.189 35.312-11.306.99-.548 3.241-1.789 5.003-2.757 2.893-1.591 4.72-2.926 6.557-4.791.352-.358 2.08-1.89 3.84-3.404 1.76-1.515 4.19-3.826 5.4-5.137 3.587-3.885 9.34-9.573 10.2-10.085 1.097-.654-2.88-.609-8.8.098m102.6 17.433c-1.21.14-3.1.511-4.199.825l-1.999.572.999.647c2.705 1.751 10.592 6.305 10.97 6.332.42.03 9.857.339 11.829.386 3.576.087 12.023 2.167 13.544 3.336.587.451 6.043 2.643 6.584 2.646.18 0 1.08.508 2 1.128.92.619 2.302 1.437 3.072 1.818.77.38 1.94 1.04 2.6 1.467.66.427 1.59.949 2.067 1.16.936.414 3.545 2.344 6.727 4.978 1.096.907 2.333 1.92 2.747 2.25 2.916 2.323 13.635 12.082 14.436 13.144a23.31 23.31 0 0 0 1.623 1.903c1.273 1.291 3.581 3.953 6.291 7.255 1.38 1.682 2.79 3.348 3.133 3.702.344.355.893 1.028 1.222 1.497.862 1.232 11.554 2.877 11.554 1.778 0-.471-2.309-3.633-4-5.479-.807-.88-2.163-2.59-3.015-3.8-1.84-2.614-9.699-11.802-12.912-15.095-1.25-1.281-2.559-2.684-2.909-3.117-1.036-1.282-8.02-7.416-10.764-9.453a41.93 41.93 0 0 1-2.458-1.987c-2.415-2.165-4.521-3.786-6.083-4.682-2.837-1.628-6.812-3.666-7.151-3.666-.178 0-1.075-.474-1.993-1.054-.919-.58-3.839-1.852-6.49-2.827-2.652-.975-5.106-2.03-5.455-2.346-.348-.315-.904-.573-1.235-.573-.331 0-.737-.135-.902-.3-.165-.165-.42-.314-.566-.331a58.283 58.283 0 0 1-1.867-.336c-.88-.167-2.95-.553-4.6-.857a236.28 236.28 0 0 1-4.4-.846c-1.738-.365-15.412-.421-18.4-.075m-20.2 5.59c-.88.447-3.13 1.452-5 2.232-1.87.781-4.3 1.999-5.4 2.707-3.773 2.43-7.381 4.616-7.618 4.616-.278 0-3.887 2.424-4.182 2.808-.11.143-1.19.896-2.4 1.673-1.21.776-2.855 1.931-3.655 2.565-.8.635-1.858 1.424-2.352 1.754-.98.655-3.612 2.724-5.193 4.081-.55.472-1.81 1.479-2.8 2.238-2.002 1.535-5.571 4.548-7.204 6.081-.586.55-2.4 2.238-4.031 3.752-5.379 4.992-11.176 10.771-10.99 10.956.101.101 3.297.328 7.104.505 7.846.364 8.035.313 11.921-3.237.99-.905 2.61-2.303 3.6-3.108 4.404-3.58 5.276-4.663 4.725-5.873-.627-1.375.1-2.068 9.475-9.037 3.52-2.616 6.593-4.914 6.829-5.107.512-.418 7.383-4.631 9.371-5.747.77-.432 1.67-1.014 2-1.294.33-.279 1.32-.819 2.2-1.198.88-.38 2.721-1.213 4.092-1.851 1.37-.639 2.729-1.161 3.02-1.161.29 0 .699-.152.908-.338.619-.55 5.004-2.192 6.506-2.436 2.151-.35 1.737-.81-3.345-3.72-5.232-2.995-5.311-3.015-7.581-1.861M80.4 96.369c-1.21.375-2.47.804-2.8.953-.824.37-5.093 1.829-6.8 2.324a23.58 23.58 0 0 0-2.668.983c-.698.318-1.836.692-2.529.83-.694.139-2.553 1.102-4.132 2.14-1.579 1.038-3.471 2.195-4.204 2.571-2.814 1.445-7.45 4.826-9.841 7.177a758.995 758.995 0 0 1-5.356 5.199c-1.991 1.91-3.495 3.857-4.943 6.4-1.145 2.009-2.226 3.714-2.404 3.787-.178.074-.323.361-.323.639s-.36.921-.8 1.428c-.44.507-.8 1.106-.8 1.33 0 .224-.239.691-.532 1.039-.673.798-1.744 3.692-2.231 6.031-.207.99-.876 3.6-1.488 5.8-2.069 7.437-1.302 24.869 1.278 29.044.151.245.091.56-.133.701-3.541 2.21-9.526 8.652-12.894 13.878-.33.512-1.535 2.293-2.677 3.957-1.946 2.836-2.427 3.976-4.481 10.62-2.157 6.978-2.507 12.194-1.408 21 1.045 8.375 11.105 22.257 19.566 27.002 8.335 4.673 12.152 6.139 19.4 7.449.55.099 1.316.276 1.702.392.835.252.86.178 1.503-4.443.722-5.199.731-5.086-.405-5.262-6.387-.987-7.713-1.46-15.6-5.56-4.861-2.527-11-8.634-13.046-12.978-.777-1.65-1.577-3.27-1.778-3.6-1.307-2.151-1.699-3.832-2.091-8.949-.33-4.314-.312-5.961.08-7.4.278-1.018.583-2.257.678-2.752.751-3.914 2.808-8.451 5.878-12.964 1.804-2.65 3.675-5.411 4.158-6.135.484-.724 1.474-1.731 2.2-2.239.727-.508 1.639-1.277 2.027-1.71.695-.775 1.83-.147 1.881 1.041.011.252 1.384 2.595 3.116 5.318.276.434.621 1.06.767 1.39.863 1.955 3.316 4.842 8.298 9.766l5.632 5.566 7.4 3.687c6.945 3.461 7.597 3.704 10.6 3.953 2.873.239 4.801.451 11.087 1.217 1.472.179 3.364-.16 8.6-1.542 3.692-.975 7.273-1.888 7.957-2.029 1.3-.269 9.77-4.987 11.156-6.216.44-.389 1.378-1 2.083-1.357 1.95-.985 10.34-8.382 17.717-15.619 5.655-5.548 8.003-8.006 13-13.612 3.798-4.26 7.438-8.256 8.6-9.442a117.05 117.05 0 0 0 3.151-3.4c3.688-4.154 10.07-10.901 15.519-16.407 4.205-4.25 5.497-5.78 5-5.922-1.928-.551-19.224-.368-22.47.237-3.847.718-7.02.645-14.6-.333-8.212-1.061-24.277-.921-29.081.252-.945.231-3.429.688-5.519 1.016-2.09.328-3.98.656-4.2.728-.22.073-.94.267-1.6.432-.66.165-2.91.817-5 1.448s-4.385 1.246-5.099 1.368c-.715.121-3.055.857-5.2 1.636-2.146.779-4.194 1.482-4.551 1.562-.358.08-1.528.51-2.6.954-1.073.444-4.38 1.736-7.35 2.87-2.97 1.135-5.76 2.203-6.2 2.374-1.289.502-4.782 2.184-5 2.408-.11.113-1.37.81-2.8 1.548-5.08 2.626-8.727 4.666-9.459 5.292-.673.576-5.967 3.565-6.315 3.565-.464 0-1.009-4.65-1.22-10.4l-.242-6.6 1.628-5.8c2.997-10.672 6.764-17.108 14.062-24.02 8.9-8.43 14.18-11.64 25.052-15.233l7.707-2.547-.107-4.195c-.121-4.789-.045-4.71-3.506-3.636m187.171 45.785c-.094.09-3.051.29-6.571.446-7.175.317-8.026.596-4.936 1.619 3.15 1.042 11.37 4.791 13.497 6.156 2.839 1.822 4.178 2.261 10.439 3.425 3.19.592 6.053 1.285 6.361 1.539.309.253.669.44.8.415.28-.054.257-.063 7.239 2.855 7.299 3.051 9.489 4.105 11.55 5.558 2.311 1.628 3.604 2.47 5.005 3.259 2.153 1.214 10.035 6.544 11.923 8.063 3.852 3.1 9.37 7.691 10.793 8.979a92.08 92.08 0 0 0 3.2 2.732c1.996 1.617 7.323 6.993 8.184 8.26.538.792.461 1.063-.969 3.4-.855 1.397-1.621 2.72-1.702 2.94-.15.409-1.073 1.494-4.58 5.385-3.521 3.907-5.098 5.223-9.838 8.215-.348.22-1.608 1.043-2.8 1.829-1.191.786-3.156 1.81-4.366 2.275-1.21.466-3.779 1.443-5.708 2.171L311.583 223l.109 4.2.108 4.2 1.6-.079c.88-.043 3.37-.808 5.534-1.7 2.164-.891 4.132-1.621 4.374-1.621.456 0 3.281-1.226 5.189-2.252.603-.324 3.392-2.2 6.198-4.168 2.805-1.968 5.192-3.624 5.303-3.679.111-.056.721-.731 1.356-1.501 1.077-1.306 6.776-7.637 8.346-9.271.385-.401.708-1.044.717-1.429.009-.385.33-1.288.714-2.008l.697-1.307 1.237 1.307c1.373 1.453 10.135 14.475 10.135 15.064 0 .205.646 1.784 1.435 3.508.79 1.725 1.67 3.676 1.957 4.336.287.66.978 2.211 1.535 3.447 1.152 2.554 1.979 5.354 2.525 8.553.113.66.536 2.55.94 4.2.829 3.383 1.339 13.514.826 16.4-1.292 7.26-1.804 9.826-1.997 10-.121.11-.272.47-.335.8-.062.33-.364 1.14-.671 1.8-.306.66-1.203 2.621-1.994 4.358-1.814 3.988-6.178 10.635-8.43 12.841-3.645 3.572-7.033 6.425-9.791 8.246-5.381 3.553-6.496 4.199-8.2 4.746-.88.282-1.78.648-2 .812-.528.395-6.506 2.435-7.793 2.659-.554.097-1.637.342-2.407.544-.77.203-2.12.474-3 .603-.88.129-2.14.395-2.8.591-.66.196-1.74.439-2.4.539-.66.1-2.549.495-4.199.876-4.626 1.071-17.109.546-20.801-.873-5.878-2.26-8.407-3.488-9.279-4.505-.507-.59-1.771-1.757-2.811-2.595-3.397-2.736-12.502-17.597-13.584-22.173-.136-.572 3.183-1.809 6.674-2.487 1.1-.213 2.18-.441 2.4-.505 7.521-2.19 8.344-2.539 8.889-3.772.955-2.159-.047-3.51-1.73-2.332-4.718 3.306-20.517 6.795-33.559 7.414-4.399.208-7.389.54-8.468.938-.917.339-2.177.713-2.8.83-.623.117-2.662.587-4.532 1.043-5.876 1.435-6.443 1.52-13.489 2.033-5.296.385-7.515.394-9.6.038a391.808 391.808 0 0 0-4.011-.667c-5.91-.92-7.566-1.362-10.922-2.915a641.953 641.953 0 0 0-5.96-2.716c-1.446-.646-4.79-2.886-7.6-5.091-2.76-2.166-5.198-4.06-5.418-4.209-.22-.149-1.298-1.351-2.396-2.671a229.965 229.965 0 0 0-2.4-2.856c-.222-.25-.764-.957-1.204-1.57-.44-.612-1.089-1.397-1.442-1.744-.354-.346-.947-1.106-1.319-1.689-.645-1.009-11.566-5.547-12.09-5.023-.101.1.111.801.472 1.556l.655 1.374-2.108 3.576c-1.159 1.967-2.326 3.756-2.593 3.976-1.788 1.475-2.988 19.25-1.426 21.137.302.365.415.663.251.663-.164 0-.121.225.095.5s1.149 2.711 2.074 5.413c2.248 6.571 2.139 6.353 6.116 12.287 5.715 8.527 6.728 9.9 8.963 12.144l2.136 2.143 4.108-.257c5.596-.35 7.908-.647 7.908-1.015 0-.17-2.017-2.35-4.482-4.844-2.62-2.651-5.476-6.036-6.877-8.152-1.318-1.991-2.631-3.857-2.918-4.148-.288-.29-.523-.77-.523-1.066 0-.296-.153-.598-.34-.672-.331-.129-2.144-2.817-3.125-4.631-.267-.493-.949-2.242-1.517-3.886a161.843 161.843 0 0 0-2.278-6.101l-1.246-3.113.28-5.396c.239-4.616.425-5.687 1.281-7.401 1.402-2.805 1.45-2.819 2.736-.784.633 1.001 1.434 2.161 1.78 2.578a73.622 73.622 0 0 1 1.629 2.079c1.638 2.165 4.433 4.82 7.817 7.423 1.75 1.347 3.455 2.688 3.788 2.98.333.291 1.233.969 2 1.505.767.537 1.485 1.074 1.595 1.195.261.285 4.072 2.133 4.627 2.243.236.046 1.406.533 2.6 1.082 7.766 3.567 7.651 3.535 18.373 5.23l5.8.916 8.4-.679c6.863-.555 9.425-.944 14-2.124 3.08-.795 5.994-1.446 6.476-1.447.482-.001.976-.162 1.097-.358.121-.195.716-.476 1.323-.624 1.029-.251 9.319-3.107 11.104-3.825 1.813-.73 2.2-.765 2.2-.195 0 .317.348 1.256.773 2.088.882 1.724 3.156 6.694 3.64 7.954.866 2.256 7.076 11.585 9.098 13.667 6 6.181 8.141 7.627 15.489 10.457 2.42.932 4.717 1.864 5.105 2.071.388.207 4.798.479 9.8.604l9.095.228 7.8-1.604c14.387-2.959 14.688-3.043 22.8-6.349 3.538-1.442 3.913-1.655 9.765-5.537 8.376-5.557 16.056-14.07 20.549-22.779 3.151-6.106 4.84-10.83 5.921-16.555.317-1.675.708-3.585.87-4.245.705-2.869.231-17.043-.695-20.8-.488-1.98-.944-3.87-1.014-4.2-.918-4.359-1.732-7.12-2.85-9.665-.74-1.685-1.346-3.175-1.346-3.31 0-.374-5.251-11.197-5.544-11.425-.354-.277-1.183-1.628-1.632-2.661-.206-.474-.579-.988-.829-1.142-.597-.369-4.185-5.91-4.078-6.297.046-.165-.092-.3-.307-.3-.214 0-.691-.585-1.06-1.3-.369-.715-1.913-2.47-3.431-3.9l-2.761-2.6.652-2.797c.359-1.538.802-2.978.986-3.2.183-.221.52-1.303.749-2.403.228-1.1.617-2.9.864-4 .26-1.16.351-3.428.216-5.4-.127-1.87-.341-5.37-.476-7.778-.155-2.776-.499-4.972-.939-6-.654-1.526-2.148-6.299-2.042-6.526.026-.057-.229-.641-.568-1.296-.339-.655-.635-1.329-.659-1.496-.215-1.525-1.998-5.24-2.633-5.484-1.069-.41-9.842-.761-9.625-.385 7.085 12.304 10.046 25.408 7.909 34.999-1.035 4.648-.896 4.548-2.995 2.159-2.502-2.849-3.865-4.217-5.64-5.658a91.533 91.533 0 0 1-3.157-2.717c-.88-.8-2.114-1.85-2.743-2.336-.628-.485-2.428-1.972-4-3.305-3.552-3.011-6.576-5.193-12.129-8.749-2.38-1.524-5.8-3.732-7.599-4.906-4.14-2.701-11.528-6.493-12.821-6.58-.169-.012-.668-.219-1.108-.462-.44-.243-.98-.487-1.2-.544-.22-.056-2.38-.915-4.8-1.909-4.467-1.834-6.9-2.507-13-3.597a210.89 210.89 0 0 1-4.4-.822c-.55-.118-1.9-.309-3-.425a86.382 86.382 0 0 1-3.229-.402c-.675-.105-1.305-.117-1.4-.027m-31.971 5.823c-.55.17-3.409 1.504-6.354 2.966-2.945 1.461-5.481 2.657-5.636 2.657-.337 0-6.527 3.463-8.221 4.6a79.193 79.193 0 0 1-1.991 1.293 1251.96 1251.96 0 0 1-7.077 4.302c-1.108.662-7.467 5.25-11.121 8.026-1.87 1.42-3.67 2.705-4 2.856-.33.15-.78.479-1 .729-.22.251-1.84 1.513-3.6 2.805-1.76 1.292-3.29 2.456-3.4 2.588-.11.132-.828.678-1.595 1.215-.767.536-1.678 1.259-2.024 1.605-.347.347-2.13 1.789-3.964 3.206a670.296 670.296 0 0 0-5.975 4.674c-3.489 2.772-6.566 4.797-8.408 5.534-1.031.412-1.659.999-2.016 1.883-.294.727-1.494 2.024-2.768 2.992-1.238.939-3.42 2.6-4.85 3.69-1.43 1.09-3.68 2.787-5 3.772-1.32.985-2.76 2.077-3.2 2.428-2.23 1.776-9.469 7.175-10.999 8.202-.492.33-1.278.887-1.747 1.238-1.77 1.324-9.655 6.573-10.242 6.817-.757.316 1.415 1.299 6.877 3.112 4.197 1.394 4.77 1.332 7.135-.767.371-.33 1.879-1.41 3.35-2.4s4.36-3.105 6.42-4.7c2.059-1.595 3.858-2.9 3.997-2.9.139 0 .828-.539 1.531-1.198 1.887-1.769 1.903-1.725 1.856 5.017-.042 6.052 1.045 12.981 2.038 12.981.162 0 .405.585.54 1.3.228 1.213 8.837 5.041 9.606 4.271.256-.255-.827-4.724-1.283-5.293-1.494-1.867-2.509-7.971-2.459-14.797l.05-6.863 2.054-3.943c1.129-2.168 2.36-4.106 2.734-4.306.374-.2.919-.59 1.211-.866.292-.277 1.161-.976 1.931-1.555.77-.578 2.03-1.616 2.8-2.306.77-.691 2.75-1.928 4.4-2.749l3-1.493 8.2.004c7.973.003 19.605.916 22.2 1.741.66.21 3.45.887 6.2 1.505 4.832 1.084 6.835 1.977 12 5.351.33.216 1.41.826 2.4 1.356.99.53 2.25 1.362 2.8 1.849.55.486 1.63 1.359 2.4 1.939.769.58 1.759 1.382 2.2 1.781.44.399 1.79 1.479 3 2.399 1.21.92 2.29 1.784 2.4 1.92.202.25 3.63 2.092 4 2.15.11.017 2.359 1.08 4.997 2.362 2.991 1.453 5.627 2.45 7 2.646 2.778.398 7.268 1.557 7.831 2.022.644.532 5.189 1.48 8.572 1.789 1.65.15 3.27.324 3.6.387.33.063 1.86.246 3.4.406 1.54.161 3.121.351 3.514.423 1.132.205 12.2.76 15.286.765l2.8.005v-8.8l-2-.032c-9.622-.155-27.219-1.913-32-3.196-1.32-.354-2.85-.643-3.4-.642-1.562.003-7.354-1.521-7.801-2.053-.416-.496-1.688-1.154-7.399-3.829-1.87-.875-3.85-2.016-4.4-2.535-2.914-2.747-13.072-10.313-13.846-10.313-.105 0-1.937-1.037-4.072-2.304-5.611-3.331-5.025-3.115-13.882-5.137-1.892-.433-6.469-.99-12.995-1.583-3.847-.35-7.177-.777-7.4-.948-.223-.172-1.62-.246-3.105-.163-2.841.157-3.319-.167-1.756-1.191.519-.341 1.194-.865 1.5-1.166.306-.301 2.086-1.672 3.956-3.047 1.87-1.374 3.717-2.76 4.105-3.08.387-.32.794-.581.903-.581.109 0 .692-.439 1.295-.975 1.263-1.122 2.342-1.907 7.179-5.225 1.924-1.32 3.683-2.546 3.908-2.724.226-.178 1.4-.928 2.61-1.666 8.805-5.373 10.907-6.61 11.231-6.61.203 0 .369-.18.369-.4 0-.22.135-.362.3-.316.165.046 2.807-1.144 5.872-2.645 4.788-2.345 10.164-4.643 10.831-4.629 1.299.027 11.049-2.923 10.7-3.237-.75-.677-15.335-4.833-16.63-4.739-.26.019-.923.173-1.473.343m-103.8 2.601c1.98.152 3.84.354 4.134.45 2.084.676 13.151 1.021 15.552.485l1.287-.288-.887 1.051c-1.176 1.395-4.936 5.515-6.686 7.328-1.88 1.947-4.808 5.142-8.2 8.946a506.15 506.15 0 0 1-3.8 4.224c-.55.596-2.53 2.776-4.4 4.846-16.36 18.102-26.786 25.901-38.933 29.124-6.933 1.84-7.448 1.877-14.948 1.077l-5.28-.564-6.52-3.179L56.6 200.9l-4.708-4.765C47.482 191.673 40 180.622 40 178.57c0-.854 4.525-4.17 5.692-4.17.63-.001 8.733-4.079 10.248-5.157.61-.434 1.593-.911 2.184-1.06.592-.148 1.076-.396 1.076-.55 0-.244 5.448-2.979 6.013-3.018.117-.008.927-.319 1.8-.69 1.353-.575 6.717-2.63 11.787-4.514.77-.287 2.127-.822 3.017-1.189.889-.368 1.879-.707 2.2-.755.32-.047 1.123-.298 1.783-.557.66-.259 3.36-1.038 6-1.729 2.64-.692 5.43-1.489 6.2-1.772.77-.282 2.21-.646 3.2-.808 1.926-.316 2.816-.474 4.4-.782.55-.107 1.727-.293 2.616-.413.889-.121 2.059-.323 2.6-.45 3.148-.736 13.82-.929 20.984-.378m78.2 81.906c-8.122.397-14.049 1.386-18.529 3.089-.589.224-1.071.33-1.071.235 0-.095-.746.091-1.658.412-.912.322-2.037.662-2.5.756-6.32 1.278-17.023 6.471-16.513 8.01.307.924 9.936 4.171 11.024 3.717.576-.24 1.137-.459 1.247-.487.11-.027.83-.264 1.6-.525.77-.262 1.76-.539 2.2-.617.44-.078 1.88-.449 3.2-.825a564.3 564.3 0 0 1 8.2-2.261c4.436-1.184 7.275-1.579 13.2-1.833 10.888-.468 12.756-.267 21.708 2.331 2.238.649 7.126 3.338 7.892 4.34.11.145.751.544 1.424.889 1.064.545 3.919 3.384 5.776 5.745.33.42 1.246 1.568 2.035 2.552.789.983 2.409 3.628 3.6 5.878 1.191 2.249 2.392 4.179 2.669 4.288.526.209 8.831-.78 9.139-1.088.469-.469-6.092-13.049-7.899-15.144-1.069-1.24-1.944-2.351-1.944-2.468 0-.269-2.507-3.108-4.597-5.205-.879-.882-2.769-2.352-4.2-3.267-6.587-4.209-7.415-4.724-7.603-4.721-.11.002-1.187-.337-2.394-.752s-2.647-.837-3.2-.937c-.553-.1-2.806-.645-5.006-1.211-4.63-1.191-8.195-1.372-17.8-.901m-101 2.803c-1.197.657-1.681.912-5.6 2.949a295.382 295.382 0 0 0-5.8 3.094c-4.17 2.318-5.474 2.879-9 3.875-.66.187-2.1.607-3.2.933-9.804 2.908-12.298 3.512-15.2 3.677-10.636.606-10.591.6-10.783 1.522-.786 3.772-1.017 5.346-1.017 6.938v1.836l6.7-.279c3.685-.153 7.06-.356 7.5-.45.44-.095 1.52-.249 2.4-.343 1.517-.162 7.077-1.62 10.723-2.813.922-.301 3.027-.945 4.677-1.429 5.097-1.498 6.466-2.108 16.6-7.405l7-3.658c5.707-2.982 8.787-5.058 8.103-5.462-2.821-1.663-11.79-3.707-13.103-2.985m80.6 87.147a725 725 0 0 1-5.54.584l-2.54.254 1.133 1.183c.623.65 3.541 3.019 6.484 5.264 5.558 4.238 6.276 4.771 9.515 7.055 1.071.755 2.038 1.484 2.148 1.62.281.346 4.36 2.806 4.654 2.806.133 0 1.255.608 2.494 1.351 1.238.743 3.422 1.975 4.852 2.738 4.345 2.317 5.391 2.901 5.6 3.13.529.58 6.162 3.017 13.4 5.797 4.4 1.69 8.36 3.215 8.8 3.388 2.487.98 6.902 2.223 9.4 2.647.55.094 2.53.547 4.4 1.008 1.87.461 3.922.905 4.559.988.638.083 2.642.503 4.454.933 3.666.871 6.183 1.116 14.387 1.402l13.216.46 7.615.265 1.057-.954c2.778-2.506.285-8.71-3.528-8.776-2.193-.038-18.3-.705-24.16-1.001-6.711-.338-21.481-3.582-28.971-6.364-1.996-.741-5.429-2.013-7.629-2.827-4.988-1.845-9.942-4.216-17.4-8.329-3.19-1.758-6.475-3.559-7.3-4.001-.825-.442-1.5-.961-1.5-1.153 0-.192-.166-.247-.369-.121-.362.223-2.366-1.186-11.209-7.881-2.723-2.061-2.681-2.054-8.022-1.466" fill="#ef805c"/>
    <path d="M151.2 55.206c-1.21.177-4.18.521-6.6.763s-4.85.518-5.4.613c-.55.095-2.41.363-4.133.596-1.723.233-5.593 1.12-8.6 1.973-3.007.852-6.367 1.772-7.467 2.045-3.269.81-16.488 7.516-19.4 9.841C88.531 79.875 83.929 88.121 83.994 99l.031 5.2-7.712 2.542c-13.266 4.373-22.789 11.122-29.759 21.09-1.68 2.402-3.566 5.016-4.191 5.809-1.939 2.458-3.205 5.457-5.035 11.925l-1.763 6.234.241 6.6c.208 5.664.755 10.4 1.203 10.4.494 0 6.285-3.395 6.4-3.752.08-.247.247-2.916.373-5.933.199-4.784.384-5.909 1.446-8.8.67-1.823 1.379-3.945 1.575-4.715.572-2.241 1.484-3.802 5.873-10.053 4.461-6.352 7.293-9.125 15.29-14.971a118.41 118.41 0 0 0 2.681-2.047c.854-.672 2.003-1.358 2.553-1.525.55-.166 1.187-.45 1.416-.632.228-.181 2.478-1.163 5-2.181a828.674 828.674 0 0 0 5.018-2.039c.239-.103 1.21 1.483 2.158 3.524 3.186 6.857 13.386 16.731 20.008 19.369.33.131 2.13.868 4 1.636 1.87.768 3.94 1.474 4.6 1.569.66.095 2.37.427 3.8.738 1.43.312 3.32.696 4.2.853.88.158 1.87.346 2.2.418 2.128.462 15.842.956 24.2.872 10.307-.105 23.994.159 24.6.474.33.171 3.66.439 7.4.595 3.74.156 8.64.4 10.889.542l4.089.258-2.798 2.2c-4.099 3.222-5.602 4.361-11.58 8.773-2.97 2.192-5.58 4.131-5.8 4.31-1.031.838-14.885 10.487-17.4 12.12-.33.214-1.643 1.111-2.918 1.993-1.275.882-2.475 1.604-2.666 1.604a.57.57 0 0 0-.483.3c-.073.165-.853.774-1.733 1.354-2.778 1.829-6.209 3.946-6.395 3.946-.099 0-1.432.81-2.963 1.8-1.53.99-2.864 1.8-2.964 1.8-.099 0-1.227.63-2.506 1.4-2.566 1.545-3.356 1.764-2.521.7.497-.633.483-.648-.147-.155-.382.3-.602.696-.488.88.113.184-.204.553-.705.82-.501.266-3.161 2.672-5.911 5.346-6.479 6.299-13.982 12.78-15.974 13.796-1.785.911-2.621 1.823-1.149 1.254 2.997-1.159 10.116-4.135 12.433-5.198 1.491-.684 2.82-1.243 2.954-1.243.266 0 5.278-2.527 8.136-4.103.99-.545 4.59-2.687 8-4.759 3.41-2.072 7.088-4.301 8.174-4.953 5.498-3.302 30.834-20.8 34.123-23.567.274-.23 1.534-1.187 2.8-2.127a524.537 524.537 0 0 0 5.703-4.326c1.87-1.438 4.378-3.354 5.574-4.258a127.439 127.439 0 0 0 2.8-2.16c6.725-5.565 8.404-6.603 10.329-6.386 1.043.118 3.697.412 5.897.653 2.2.242 5.8.707 8 1.033 2.2.327 4.72.689 5.6.806.88.116 2.563.454 3.739.751 1.177.298 2.383.447 2.681.333 1.038-.398 15.971 3.731 17.38 4.805.922.704 2.348 1.458 2.755 1.458 2.82 0 16.939 9.17 20.572 13.361.4.462 1.216 1.379 1.813 2.039 2.614 2.887 8.86 11.64 8.86 12.415 0 .106 1.686 3.656 3.747 7.889 3.579 7.349 4.049 8.384 4.231 9.296.043.22.312.67.596 1 .597.694 1.604 3.324 2.373 6.2.294 1.1 1.196 4.213 2.003 6.919 2.44 8.17 2.82 19.298.862 25.281-.324.99-.892 2.79-1.262 4-2.486 8.122-12.65 17.215-23.95 21.426-4.979 1.855-5.124 1.718-6.786-6.392-.356-1.741-.726-3.291-.82-3.444-.095-.154-.252-.889-.35-1.635a45.922 45.922 0 0 0-.572-3.155c-.217-.99-.518-3.33-.669-5.2-.151-1.87-.342-3.94-.424-4.6-.082-.66-.27-3.36-.418-6-.148-2.64-.419-5.091-.601-5.447-.283-.552-6.074-2.353-7.567-2.353-.739 0-.362 10.046.825 22 .832 8.367 1.347 10.556 3.554 15.095 1.127 2.319 1.974 4.292 1.881 4.385-.531.531-6.549.995-12.453.959-19.172-.116-28.712-2.047-47.6-9.639a242.965 242.965 0 0 0-4.748-1.857c-.852-.315-2.065-.839-2.696-1.166-.631-.326-1.285-.606-1.452-.622-.167-.015-.86-.26-1.539-.544a28.332 28.332 0 0 0-2.2-.808c-1.096-.332-3.424-1.291-4.46-1.837-.382-.201-.879-.366-1.104-.366-.225 0-1.173-.345-2.105-.768-1.864-.844-3.124-1.25-4.436-1.429-1.281-.174-9.567-3.389-10.26-3.981-.33-.281-1.77-.885-3.2-1.341-12.435-3.967-11.979-3.775-12.244-5.181-.271-1.437-.956-1.776-.956-.473 0 .596-.196.772-.7.631-.385-.108-2.5-.731-4.7-1.384-2.2-.653-5.62-1.641-7.6-2.196-1.98-.555-4.68-1.367-6-1.806-1.32-.438-4.29-1.375-6.6-2.082-2.31-.707-5.1-1.695-6.2-2.195-4.102-1.864-14.859-5.115-19-5.741-8.207-1.241-18.427-1.527-22.4-.628-.55.125-2.62.507-4.6.851-1.98.343-3.87.846-4.2 1.118-.33.271-1.95 1.269-3.6 2.218-5.339 3.069-12.206 10.176-13.865 14.35a64.93 64.93 0 0 1-.935 2.237c-1.194 2.622-1.68 4.204-1.782 5.8-.187 2.91-1.072 8.948-1.41 9.617-.867 1.718-.009 12.446 1.405 17.583 3.58 12.998 9.209 21.991 16.723 26.717 3.737 2.349 4.848 2.819 14.064 5.938 11.544 3.907 15.595 5.115 22.6 6.742 1.21.281 4 .967 6.2 1.524 6.814 1.727 9.166 2.241 13.251 2.899 2.172.349 5.479.894 7.349 1.21 1.87.317 5.02.755 7 .975 1.98.219 4.23.475 5 .57 1.525.188 6.846.678 9.4.865 5.96.437 25.163.186 28.8-.376 10.28-1.591 15.966-1.696 17.41-.321 3.422 3.26 10.246 8.315 14.449 10.706.434.247 1.229.831 1.765 1.297.537.467.976.754.976.639 0-.218.996.321 6.8 3.678 5.96 3.446 11.73 5.88 22.757 9.595 6.427 2.166 19.029 4.936 22.476 4.94 1.009.001 1.933.101 2.054.222.121.121 1.906.312 3.967.425 23.791 1.298 23.221 1.417 22.193-4.645-.673-3.968-1.748-4.603-8.447-4.987-5.927-.339-8.785-.557-10.6-.808-1.422-.197-3.023-.351-8.4-.81-4.563-.389-11.517-1.657-14.2-2.59-1.32-.459-3.66-1.257-5.2-1.775-2.886-.97-8.285-2.972-10.4-3.857-.66-.276-1.303-.484-1.429-.461-1.866.333-25.727-14.492-23.929-14.868.846-.177 4.601-.707 8.758-1.236 7.824-.996 17.674-1.139 24.8-.36 4.997.546 18.616 2.713 22.2 3.532 1.32.301 3.93.851 5.8 1.22 5.131 1.015 17.495 4.066 23.8 5.874 3.08.884 5.923 1.669 6.317 1.746.395.078 1.295.33 2 .562l6.083 1.996c8.661 2.842 14.815 5.312 21.071 8.458 2.243 1.128 3.614 1.564 4.915 1.564h1.804l1.403-2.786 1.402-2.785-1.522-1.6c-1.009-1.061-2.864-2.223-5.498-3.445A501.499 501.499 0 0 1 331 329.77c-2.135-1.035-7.268-2.97-11.2-4.222-1.32-.42-2.67-.878-3-1.016-.33-.139-.78-.31-1-.379-7.461-2.349-16.011-4.797-19.7-5.641-.495-.113-.9-.375-.9-.582 0-.208-.145-.288-.322-.178-.177.109-1.032.029-1.9-.178-5.197-1.242-18.006-4.139-20.378-4.608a342.22 342.22 0 0 1-4.6-.943c-.99-.213-3.24-.591-5-.839-1.76-.248-4.46-.7-6-1.005-7.257-1.438-29.451-2.291-31.375-1.207-.124.07-1.805.248-3.737.395-1.931.147-3.731.344-4 .438-.268.094-1.208.254-2.088.356-.88.102-2.86.369-4.4.593-1.54.224-3.61.5-4.6.615-.99.114-2.179.317-2.643.451-1.15.332-11.813-9.633-15.557-14.54-1.844-2.416-1.811-2.375-4.222-5.283-4.227-5.097-7.19-9.229-9.178-12.797-5.834-10.472-6.728-12.193-6.511-12.544.129-.209.048-.264-.181-.123-.228.141-.633-.269-.899-.911s-.903-1.737-1.417-2.432l-.933-1.265-.72 1.337c-1.508 2.797-1.702 3.669-1.97 8.838-.261 5.036-.225 5.44.694 7.715 1.669 4.132 6.332 11.791 9.737 15.991 1.1 1.357 3.8 4.698 6 7.424 2.2 2.727 5.145 6.173 6.544 7.659 1.677 1.781 2.359 2.764 2 2.883-3.651 1.213-26.856 1.584-36.944.59-11.392-1.122-14.875-1.496-15.8-1.698-.55-.121-3.61-.675-6.8-1.233-6.382-1.116-7.346-1.301-8.332-1.6-.367-.111-1.298-.305-2.068-.431s-1.701-.32-2.068-.431a17.892 17.892 0 0 0-1.4-.35c-.403-.081-2.982-.713-5.732-1.404-2.75-.692-5.45-1.348-6-1.458-1.65-.332-5.182-1.368-9-2.641-1.98-.661-5.76-1.888-8.4-2.726-7.102-2.257-9.466-3.161-10.8-4.133-.66-.48-1.717-1.137-2.348-1.458-8.261-4.211-15.545-27.38-12.91-41.062 1.031-5.355 4.488-11.861 7.858-14.787.55-.478 1.54-1.345 2.2-1.927 5.612-4.947 15.633-6.898 27.022-5.26 2.298.331 4.988.691 5.978.801.99.11 3.122.658 4.738 1.218 1.616.56 3.379 1.018 3.917 1.018 1.055 0 10.878 3.078 11.555 3.62.842.674 12.138 4.702 16.111 5.745 2.266.595 5.146 1.404 6.4 1.799 1.253.394 3.674 1.145 5.379 1.668l3.1.952.063 2.008c.034 1.104.089 2.552.12 3.217.068 1.409 1.8 6.994 2.167 6.986.138-.003 1.21-1.661 2.384-3.685l2.133-3.679-.65-1.365c-.358-.751-.568-1.448-.466-1.55.275-.275 11.103 3.809 11.827 4.461.342.309 1.119.685 1.726.836.607.152 1.202.436 1.323.631.121.196.487.356.813.356.587 0 12.104 4.394 18.446 7.037 1.807.754 4.597 1.837 6.2 2.409 1.603.571 3.454 1.275 4.114 1.563 3.694 1.617 5.149 2.191 5.551 2.193.247.002.924.251 1.505.554 3.484 1.818 16.766 4.99 24.744 5.91 16.257 1.874 43.589-1.93 50.959-7.093.451-.315 1.038-.573 1.306-.573 1.192 0 7.254-4.176 10.758-7.411 5.748-5.306 9.457-11.035 11.718-18.097l1.698-5.307.134-9.693c.149-10.772.306-9.684-3.14-21.792-1.018-3.576-2.498-7.986-3.29-9.8-2.998-6.875-10.32-21.399-11.996-23.797-.961-1.375-1.747-2.604-1.747-2.732 0-.351-3.331-4.517-5.383-6.732-.999-1.079-1.817-2.087-1.817-2.242 0-.726-9.112-7.825-12.069-9.401-5.153-2.748-11.049-5.565-14.131-6.752-1.54-.593-3.52-1.42-4.4-1.837-1.833-.868-7.24-2.48-12.2-3.638-3.623-.845-4.27-.982-7.4-1.567-1.1-.205-2.36-.448-2.8-.54-.44-.091-3.23-.488-6.2-.881s-5.464-.764-5.542-.823c-.212-.162 2.334-2.332 5.836-4.974a350.309 350.309 0 0 0 4.271-3.264c.641-.506 2.647-2 4.457-3.32 1.81-1.32 4.828-3.615 6.707-5.1 1.878-1.485 3.608-2.7 3.843-2.7.235 0 .428-.18.428-.4 0-.22.213-.4.474-.4s.883-.384 1.383-.854c.5-.469 1.811-1.414 2.914-2.1 1.102-.685 4.035-2.617 6.517-4.294 2.481-1.676 5.054-3.323 5.716-3.66l1.203-.613 6.882 4.661c12.819 8.681 20.934 14.367 25.761 18.049 1.017.776 2.277 1.715 2.8 2.088.522.372 1.523 1.092 2.223 1.6 3.82 2.771 7.78 5.424 9.914 6.643l3.813 2.18c.77.442 2.03 1.027 2.8 1.3.77.274 2.21.866 3.2 1.315 1.921.873 6.291 2.43 7.481 2.666.395.078 2.189.52 3.986.981 1.796.461 3.63.838 4.075.838.672 0 .988.597 1.853 3.5.574 1.925 1.209 3.95 1.412 4.5.203.55.633 2.44.957 4.2.808 4.403 1.727 8.352 2.607 11.2.408 1.32 1.054 4.11 1.435 6.2 1.125 6.16 1.323 6.7 3.185 8.7 2.11 2.265 1.969 2.371 3.001-2.266 1.858-8.339-1.032-23.271-6.199-32.034l-1.769-3 1.288-.144c.708-.079 3.562.076 6.342.345 5.145.499 11.818.331 16.734-.42 1.437-.219 3.332-.482 4.212-.584 4.493-.52 8.442-1.531 9.339-2.392l.939-.901-.672-3.02c-.917-4.122-1.464-4.576-4.714-3.915-3.572.726-6.488 1.161-9.678 1.443-1.532.136-2.94.342-3.129.459-.937.579-19.256.503-22.976-.096-3.804-.612-4.264-.843-5.33-2.675-.617-1.061-1.223-.868-.796.255l.363.954-3.333-.917c-4.146-1.14-11.039-3.882-13.361-5.314a183.56 183.56 0 0 0-3.469-2.078c-2.448-1.422-10.481-7.046-15.183-10.629-2.2-1.676-4.72-3.536-5.6-4.133-3.301-2.24-7.207-4.99-7.4-5.21-.11-.125-3.291-2.298-7.068-4.828-6.793-4.549-6.859-4.608-6-5.291.477-.38 1.185-.695 1.573-.7.388-.005 1.018-.18 1.4-.39 1.112-.609 3.352-1.519 5.295-2.152 3.415-1.112.45-2.782-7.225-4.071l-3.876-.651-3.076 1.668-3.077 1.669-1.873-1.238c-1.03-.681-2.863-1.706-4.073-2.278-2.874-1.359-10.721-6.04-12-7.158-1.341-1.173-4.565-3.014-12.108-6.916l-2.709-1.4 2.709-2.752c3.551-3.607 3.619-3.789 2.404-6.443-.818-1.787-1.376-2.394-3.145-3.422l-2.151-1.25-2 2.162c-6.574 7.109-6.848 7.333-8.105 6.618-1.189-.675-7.444-3.359-12.295-5.276-7.295-2.883-15.981-5.484-24.4-7.308-6.507-1.409-6.602-1.42-14.4-1.621-3.96-.102-9.36-.261-12-.352-2.64-.091-5.79-.02-7 .158m23.2 9.436c2.97.342 6.84.979 8.6 1.415 7.42 1.838 11.26 2.893 12.2 3.348.55.267 1.209.41 1.463.319a.639.639 0 0 1 .724.255c.143.231.527.421.852.421.745 0 9.559 3.278 12.761 4.746 1.32.605 2.819 1.274 3.331 1.487.913.379.897.412-.8 1.666-.952.704-2.541 2.016-3.531 2.916-1.601 1.456-9.786 7.185-10.265 7.185-.104 0-.761.418-1.462.929-8.074 5.893-16.95 6.63-37.073 3.076a67.921 67.921 0 0 0-4.6-.611c-1.32-.122-3.66-.387-5.2-.588-13.528-1.773-23.242-.845-34 3.245-7.529 2.864-24.483 7.692-25.112 7.153-1.237-1.062 1.579-10.896 3.895-13.604.282-.33.581-.82.665-1.09.157-.505 5.699-6.264 7.904-8.213 1.114-.985 7.41-4.697 7.966-4.697.122 0 1.585-.695 3.252-1.545 1.666-.849 4.11-1.859 5.43-2.244a528 528 0 0 0 4.2-1.242c.99-.299 2.358-.637 3.039-.751.682-.115 1.913-.49 2.737-.834.824-.344 4.2-.977 7.503-1.407 3.303-.43 6.201-.903 6.44-1.05 2.057-1.272 19.063-1.438 29.081-.285m55.147 19.299c2.559 1.287 5.373 2.654 6.253 3.038 2.569 1.12 9 5.011 9 5.444 0 .218.405.58.9.804.495.224 1.264.625 1.708.89.445.266 2.29 1.355 4.1 2.421 1.81 1.066 3.375 2.072 3.476 2.236.163.264-2.916 2.488-10.784 7.79-1.32.889-4.29 3.053-6.6 4.809-2.31 1.756-6.81 5.167-10 7.581-5.679 4.298-10.086 7.741-16.696 13.048l-3.297 2.646-2.703-.289c-5.772-.616-17.202-1.346-18.504-1.181-1.681.213-12.088-.07-14-.38-2.35-.381-10.476-.67-28.8-1.022-13.152-.253-14.644-.345-19.221-1.189a677.904 677.904 0 0 0-4.579-.831c-10.458-1.811-23.609-12.282-25.653-20.426-.129-.512-.079-.932.11-.935.188-.003 2.953-.549 6.143-1.214l8.8-1.835c5.141-1.071 8.487-1.58 12.8-1.944 1.65-.139 4.53-.411 6.4-.603 5.744-.591 25.537.09 33.6 1.156 7.17.947 10.939 1.248 16.078 1.282 3.014.02 5.649-.068 5.856-.196.207-.128 1.702-.507 3.322-.841 1.619-.334 4.024-1.076 5.344-1.649 6.861-2.976 8.909-3.959 10.038-4.814.681-.515 1.357-.937 1.504-.937.146 0 1.209-.665 2.362-1.477a220.154 220.154 0 0 1 3.896-2.677c1.63-1.086 5.102-3.728 5.6-4.26.11-.117.74-.627 1.4-1.133.66-.505 1.92-1.583 2.8-2.395 4.169-3.847 3.628-3.794 9.347-.917m63.44-1.184c-10.078 1.655-10.273 1.92-3.319 4.497 2.752 1.02 5.749 2.325 6.66 2.9.911.576 1.738 1.046 1.838 1.046.1 0 .689.21 1.308.466 1.385.574 1.133.51 3.498.889 3.012.482 6.763 1.739 7.646 2.561.435.406 1.08.906 1.433 1.111.856.498 3.346 2.462 5.215 4.112 1.528 1.348 3.618 4.213 5.697 7.809 1.435 2.48 1.937 3.116 4.71 5.957 3.449 3.534 11.145 12.561 13.254 15.546 3.883 5.494 3.668 3.704-.917-7.651a277.33 277.33 0 0 1-3.773-9.8c-2.141-5.884-10.207-18.734-13.056-20.8a179.38 179.38 0 0 1-3.542-2.697c-3.805-2.959-7.077-4.611-10.439-5.27a135.83 135.83 0 0 1-4-.856c-2.55-.587-8.043-.506-12.213.18M45.822 174.291c-1.774.451-5.822 3.426-5.822 4.279 0 2.052 7.482 13.103 11.892 17.565L56.6 200.9l6.519 3.178 6.52 3.179 5.28.564c7.5.8 8.015.763 14.949-1.077 7.865-2.087 21.493-9.265 14.674-7.729-3.523.794-14.222 1.891-16.415 1.684-3.456-.327-13.783-2.289-15.071-2.864-.691-.308-3.15-1.311-5.465-2.229-2.315-.918-5.133-2.33-6.262-3.137-4.933-3.531-7.264-5.526-8.679-7.431-.832-1.121-2.245-3.028-3.139-4.238-1.919-2.598-3.262-5.428-2.955-6.229.12-.314.18-.55.131-.525-.048.026-.437.136-.865.245m191.578.526c-.88.206-2.68.562-4 .79-2.639.458-6.591 1.311-10.6 2.289-2.671.652-11.288 3.921-14.05 5.329-.852.435-1.55.712-1.55.615 0-.096-1.215.413-2.7 1.131-1.485.719-4.32 1.99-6.3 2.825-5.753 2.426-5.768 2.401 1.8 2.986 3.19.246 6.823.643 8.072.882 2.327.444 3.293.189 9.328-2.457.842-.369 6.25-1.57 8.158-1.812.617-.078 2.183-.408 3.481-.733 7.007-1.757 9.326-1.755 16.468.011 2.31.571 2.686.827 4.8 3.273 1.261 1.46 2.425 2.753 2.587 2.874 1.217.91 3.765 12.332 4.092 18.338.136 2.507.414 4.868.617 5.247.321.599 6.049 2.395 7.639 2.395.442 0 .313-6.34-.252-12.4-.092-.99-.27-3.289-.395-5.109-.125-1.82-.305-3.53-.399-3.8-.095-.27-.26-.941-.368-1.491-1.755-9.016-3.751-13.232-8.437-17.819-2.538-2.483-13.225-4.482-17.991-3.364m120.452 13.499c-.108.174-.484 1.561-.837 3.082l-.641 2.765 1.841 1.819 1.841 1.818-.25-2c-.309-2.478-1.408-7.8-1.61-7.8-.082 0-.237.142-.344.316M179.99 198.728c-4.264 1.901-10.67 7.838-16.59 15.376-1.32 1.68-2.625 2.98-2.9 2.888-1.071-.358-.655 12.111.544 16.333 1.135 3.994 1.756 5.144 1.756 3.252 0-.65.19-1.811.422-2.58.232-.768.5-1.757.595-2.197.169-.784.737-2.413 1.395-4 .183-.44.544-1.52.803-2.4.392-1.331 2.012-4.239 2.786-5 .112-.11.695-.859 1.295-1.665.601-.806 1.32-1.706 1.6-2 .279-.294 1.315-1.525 2.303-2.735.987-1.21 2.102-2.429 2.478-2.709.376-.28.93-.756 1.232-1.057.524-.524 6.751-4.847 13.046-9.057 1.626-1.088 3.111-1.977 3.3-1.977.19 0 .345-.18.345-.4 0-.452-13.407-.519-14.41-.072m171.084 5.085c-.757 1.588-.839 2.93-.307 4.987.199.77.479 3.788.622 6.707.143 2.919.352 5.709.465 6.2.739 3.216-.31 21.099-1.461 24.893-.2.66-.627 2.484-.947 4.054-.614 3.002-2.505 8.174-3.141 8.591-.205.134-.329.314-.274.4.542.845-3.624 8.563-4.906 9.088-.179.074-.325.306-.325.517 0 .956-3.632 5.034-7.096 7.97-6.242 5.289-11.826 7.69-21.304 9.162a888.89 888.89 0 0 0-8.076 1.288c-2.991.502-4.303.316-12.524-1.776-5.081-1.293-8.017-3.195-12.92-8.369-.795-.839-1.813-1.523-2.262-1.52-1.615.011-6.821 1.933-6.693 2.471 1.472 6.196 5.688 12.084 11.768 16.439l4.293 3.074 6.307 1.225c3.469.673 7.113 1.382 8.098 1.576 1.825.358 5.805.261 7.609-.187.55-.136 2.89-.598 5.2-1.026 16.1-2.982 22.121-5.788 32-14.914 2.992-2.764 9.421-11.365 10.661-14.263.236-.55.747-1.72 1.136-2.6 3.116-7.038 3.634-8.575 4.991-14.8.48-2.2 1.114-5.08 1.409-6.4.88-3.931 1.14-18.382.428-23.692l-.603-4.491-4.761-7.109c-2.619-3.909-5.201-7.513-5.737-8.008l-.976-.9-.674 1.413" fill="#67348a"/>
  </g>
</svg>
