<svg id="svg" version="1.1" xmlns="http://www.w3.org/2000/svg" xmlns:xlink="http://www.w3.org/1999/xlink" width="400" height="333.33333333333337" viewBox="0, 0, 400,333.33333333333337"><g id="svgg"><path id="path0" d="M179.250 139.569 C 179.662 139.648,180.338 139.648,180.750 139.569 C 181.162 139.489,180.825 139.424,180.000 139.424 C 179.175 139.424,178.838 139.489,179.250 139.569 M219.587 139.569 C 220.002 139.649,220.602 139.646,220.921 139.562 C 221.239 139.479,220.900 139.414,220.167 139.417 C 219.433 139.421,219.173 139.489,219.587 139.569 M157.083 139.896 C 157.404 139.980,157.929 139.980,158.250 139.896 C 158.571 139.813,158.308 139.744,157.667 139.744 C 157.025 139.744,156.762 139.813,157.083 139.896 M186.421 143.573 C 186.928 143.649,187.678 143.647,188.088 143.568 C 188.498 143.489,188.083 143.426,187.167 143.429 C 186.250 143.431,185.915 143.496,186.421 143.573 M212.088 143.573 C 212.595 143.649,213.345 143.647,213.755 143.568 C 214.165 143.489,213.750 143.426,212.833 143.429 C 211.917 143.431,211.581 143.496,212.088 143.573 M166.254 143.902 C 166.669 143.982,167.269 143.979,167.587 143.896 C 167.906 143.812,167.567 143.747,166.833 143.751 C 166.100 143.754,165.839 143.823,166.254 143.902 M232.583 143.902 C 232.996 143.981,233.671 143.981,234.083 143.902 C 234.496 143.822,234.158 143.757,233.333 143.757 C 232.508 143.757,232.171 143.822,232.583 143.902 M25.752 164.548 C 22.524 166.139,22.558 171.257,25.806 172.798 C 28.119 173.896,30.656 173.126,32.002 170.920 C 34.356 167.059,29.891 162.508,25.752 164.548 M369.747 164.665 C 366.602 166.582,366.602 170.751,369.747 172.668 C 372.777 174.516,376.667 172.266,376.667 168.667 C 376.667 165.067,372.777 162.817,369.747 164.665 M29.040 176.237 C 25.908 177.780,25.863 182.878,28.969 184.484 C 30.330 185.188,32.282 185.130,33.565 184.348 C 38.717 181.207,34.456 173.569,29.040 176.237 M366.299 176.423 C 364.785 177.435,363.923 179.152,364.119 180.763 C 364.837 186.644,373.331 186.248,373.331 180.333 C 373.331 176.625,369.328 174.400,366.299 176.423 M189.750 192.239 C 190.254 192.315,191.079 192.315,191.583 192.239 C 192.088 192.162,191.675 192.100,190.667 192.100 C 189.658 192.100,189.246 192.162,189.750 192.239 M208.755 192.239 C 209.261 192.316,210.011 192.314,210.421 192.235 C 210.831 192.156,210.417 192.093,209.500 192.095 C 208.583 192.098,208.248 192.163,208.755 192.239 M148.750 192.905 C 149.254 192.982,150.079 192.982,150.583 192.905 C 151.087 192.829,150.675 192.767,149.667 192.767 C 148.658 192.767,148.246 192.829,148.750 192.905 M249.750 192.905 C 250.254 192.982,251.079 192.982,251.583 192.905 C 252.088 192.829,251.675 192.767,250.667 192.767 C 249.658 192.767,249.246 192.829,249.750 192.905 M182.243 196.574 C 182.834 196.648,183.884 196.649,184.576 196.577 C 185.267 196.504,184.783 196.444,183.500 196.443 C 182.217 196.441,181.651 196.500,182.243 196.574 M215.583 196.574 C 216.179 196.648,217.154 196.648,217.750 196.574 C 218.346 196.501,217.858 196.440,216.667 196.440 C 215.475 196.440,214.987 196.501,215.583 196.574 M239.083 196.896 C 239.404 196.980,239.929 196.980,240.250 196.896 C 240.571 196.813,240.308 196.744,239.667 196.744 C 239.025 196.744,238.762 196.813,239.083 196.896 " stroke="none" fill="#d6db75" fill-rule="evenodd"></path><path id="path1" d="M164.269 85.166 C 164.147 85.276,160.930 85.578,157.000 85.846 C 141.345 86.916,113.643 93.123,103.408 97.854 C 102.440 98.301,101.571 98.667,101.477 98.667 C 101.205 98.667,97.249 100.530,91.833 103.209 C 87.168 105.517,85.040 106.649,82.447 108.202 C 81.867 108.549,80.574 109.311,79.572 109.896 C 73.046 113.702,60.681 124.956,55.433 131.864 C 48.480 141.016,40.095 160.985,41.904 164.082 C 43.511 166.834,44.870 165.793,46.161 160.821 C 46.620 159.055,47.206 157.135,47.462 156.555 C 47.718 155.975,48.332 154.450,48.825 153.167 C 50.071 149.927,50.479 149.016,52.557 144.833 C 56.295 137.306,58.558 134.148,64.500 128.162 C 69.169 123.460,73.901 119.132,76.182 117.479 C 76.673 117.124,77.245 116.680,77.454 116.493 C 77.769 116.210,80.344 114.541,85.333 111.385 C 87.036 110.308,95.953 105.784,99.833 104.028 C 101.117 103.447,102.617 102.769,103.167 102.520 C 103.717 102.272,105.067 101.729,106.167 101.313 C 107.267 100.898,108.317 100.453,108.500 100.325 C 108.683 100.197,109.239 99.995,109.735 99.877 C 110.231 99.758,110.981 99.531,111.402 99.371 C 111.823 99.211,112.242 99.067,112.333 99.051 C 112.425 99.035,113.400 98.706,114.500 98.321 C 115.600 97.935,116.726 97.571,117.001 97.512 C 117.277 97.452,118.102 97.242,118.835 97.045 C 119.567 96.847,120.317 96.653,120.500 96.613 C 120.912 96.523,124.260 95.704,125.167 95.470 C 125.533 95.376,126.208 95.226,126.667 95.136 C 127.125 95.047,127.751 94.898,128.057 94.806 C 128.363 94.714,128.925 94.570,129.307 94.486 C 129.688 94.402,130.337 94.251,130.750 94.150 C 131.162 94.049,131.800 93.900,132.167 93.819 C 132.533 93.738,133.208 93.588,133.667 93.486 C 136.639 92.820,137.378 92.672,138.667 92.484 C 139.308 92.391,140.208 92.229,140.667 92.125 C 141.125 92.022,142.025 91.875,142.667 91.799 C 143.308 91.723,144.235 91.578,144.726 91.476 C 145.217 91.374,146.042 91.233,146.560 91.163 C 147.077 91.093,148.100 90.953,148.833 90.853 C 149.567 90.753,150.853 90.591,151.693 90.494 C 152.532 90.397,153.532 90.257,153.915 90.183 C 154.298 90.109,155.712 89.953,157.056 89.835 C 166.272 89.028,165.941 89.170,165.719 86.122 C 165.675 85.531,164.628 84.840,164.269 85.166 M234.477 85.370 C 234.388 85.515,234.294 86.174,234.269 86.834 C 234.196 88.772,234.720 89.037,239.500 89.487 C 243.410 89.854,245.178 90.038,246.000 90.160 C 246.458 90.229,247.546 90.371,248.417 90.476 C 250.959 90.782,253.128 91.067,253.667 91.164 C 254.145 91.251,256.037 91.548,258.167 91.872 C 258.717 91.956,259.392 92.085,259.667 92.159 C 259.942 92.234,260.767 92.381,261.500 92.486 C 262.233 92.591,264.183 92.988,265.833 93.368 C 271.593 94.694,274.192 95.303,277.810 96.172 C 309.517 103.794,337.742 123.743,347.986 145.770 C 350.650 151.498,352.822 157.134,353.858 161.000 C 354.857 164.731,356.066 166.210,357.301 165.212 C 359.171 163.700,358.665 160.684,355.002 151.500 C 348.652 135.580,342.450 127.415,327.000 114.637 C 322.153 110.628,311.744 104.611,302.148 100.270 C 297.324 98.088,296.384 97.677,294.661 96.992 C 291.229 95.629,285.172 93.709,281.167 92.716 C 268.042 89.461,259.830 87.806,252.167 86.869 C 247.929 86.351,247.114 86.246,246.610 86.152 C 246.303 86.095,244.353 85.949,242.276 85.827 C 240.199 85.705,237.632 85.494,236.570 85.356 C 235.509 85.219,234.567 85.225,234.477 85.370 M176.662 139.432 C 176.573 139.512,169.975 139.681,162.000 139.808 C 154.025 139.935,146.900 140.092,146.167 140.156 C 145.433 140.221,143.501 140.376,141.873 140.500 C 140.245 140.625,138.595 140.777,138.206 140.839 C 137.818 140.901,136.075 141.124,134.333 141.334 C 132.592 141.544,130.792 141.771,130.333 141.839 C 129.875 141.906,128.825 142.048,128.000 142.154 C 109.085 144.584,97.770 147.150,83.833 152.172 C 82.000 152.832,79.525 153.722,78.333 154.149 C 62.453 159.840,56.103 162.404,52.311 164.657 C 51.067 165.396,49.957 166.000,49.842 166.000 C 49.525 166.000,46.026 168.283,45.286 168.973 C 42.747 171.338,44.815 174.329,47.745 172.530 C 50.214 171.013,50.475 170.848,51.492 170.167 C 52.895 169.226,53.713 168.749,54.627 168.339 C 55.063 168.144,55.845 167.681,56.364 167.311 C 56.883 166.942,58.340 166.214,59.601 165.694 C 60.863 165.173,62.406 164.516,63.031 164.234 C 63.656 163.951,64.529 163.615,64.971 163.487 C 65.413 163.359,66.313 163.018,66.971 162.731 C 67.629 162.443,68.242 162.192,68.333 162.173 C 68.809 162.074,71.295 161.199,72.167 160.824 C 72.717 160.586,74.217 160.059,75.500 159.652 C 76.783 159.245,78.044 158.744,78.301 158.539 C 78.559 158.334,78.784 158.229,78.801 158.304 C 78.836 158.453,82.282 157.376,82.833 157.044 C 83.017 156.934,83.242 156.828,83.333 156.810 C 83.425 156.791,83.725 156.688,84.000 156.581 C 84.275 156.473,85.775 155.979,87.333 155.482 C 88.892 154.984,90.354 154.429,90.583 154.248 C 90.812 154.067,91.000 154.030,91.000 154.167 C 91.000 154.303,91.225 154.228,91.500 154.000 C 91.775 153.772,92.000 153.697,92.000 153.833 C 92.000 153.970,92.225 153.895,92.500 153.667 C 92.775 153.438,93.000 153.363,93.000 153.500 C 93.000 153.637,93.225 153.562,93.500 153.333 C 93.775 153.105,94.000 153.030,94.000 153.167 C 94.000 153.303,94.225 153.228,94.500 153.000 C 94.775 152.772,95.000 152.672,95.000 152.778 C 95.000 152.884,95.638 152.741,96.417 152.460 C 97.196 152.179,98.096 151.886,98.417 151.808 C 98.737 151.730,99.263 151.604,99.583 151.528 C 100.683 151.266,103.167 150.648,103.750 150.491 C 104.526 150.282,105.645 150.029,106.667 149.833 C 107.125 149.745,107.875 149.595,108.333 149.499 C 108.792 149.402,109.617 149.256,110.167 149.173 C 110.717 149.091,111.536 148.945,111.987 148.851 C 112.438 148.756,113.344 148.598,114.000 148.500 C 114.656 148.402,115.562 148.251,116.013 148.164 C 116.464 148.077,117.433 147.931,118.167 147.839 C 118.900 147.748,119.815 147.609,120.199 147.532 C 120.584 147.454,121.709 147.288,122.699 147.162 C 123.690 147.035,124.950 146.871,125.500 146.795 C 126.050 146.720,127.100 146.580,127.833 146.484 C 128.567 146.388,129.542 146.247,130.000 146.171 C 130.458 146.095,131.508 145.954,132.333 145.858 C 133.158 145.762,134.433 145.610,135.167 145.521 C 144.423 144.395,148.780 144.185,171.490 143.772 C 202.954 143.199,249.522 143.758,258.726 144.819 C 259.335 144.889,260.733 145.040,261.833 145.154 C 265.551 145.540,267.675 145.811,269.667 146.156 C 270.125 146.235,271.345 146.388,272.378 146.495 C 273.411 146.602,274.551 146.747,274.911 146.816 C 275.271 146.886,276.361 147.043,277.333 147.167 C 278.306 147.290,279.341 147.436,279.634 147.492 C 279.927 147.547,280.917 147.692,281.833 147.813 C 283.882 148.084,288.985 148.958,289.667 149.155 C 289.942 149.235,290.842 149.392,291.667 149.504 C 292.492 149.616,293.692 149.845,294.333 150.013 C 294.975 150.182,297.000 150.690,298.833 151.143 C 304.538 152.552,305.976 153.012,318.250 157.359 C 319.762 157.895,322.313 158.798,323.917 159.366 C 338.014 164.357,341.462 165.840,347.333 169.442 C 354.270 173.697,354.832 173.889,355.562 172.244 C 356.321 170.531,354.939 168.712,351.333 166.679 C 344.004 162.547,339.389 160.515,328.500 156.627 C 325.933 155.710,323.083 154.682,322.167 154.342 C 321.250 154.002,319.450 153.348,318.167 152.888 C 316.883 152.429,314.161 151.451,312.118 150.716 C 306.007 148.515,299.178 146.767,288.500 144.669 C 286.374 144.251,267.861 141.579,264.333 141.181 C 257.235 140.379,255.118 140.237,244.167 139.827 C 238.316 139.607,176.867 139.248,176.662 139.432 M36.096 141.391 C 34.777 143.003,32.231 149.862,31.524 153.705 C 30.401 159.812,30.693 161.000,33.314 161.000 C 35.016 161.000,34.869 161.315,35.483 156.333 C 35.903 152.924,36.854 149.592,38.219 146.750 C 39.864 143.324,40.064 142.493,39.386 141.886 C 38.571 141.155,36.539 140.849,36.096 141.391 M360.841 141.796 C 359.900 142.737,359.865 142.553,361.766 146.686 C 363.083 149.549,364.169 153.627,364.626 157.429 C 365.013 160.648,365.363 161.129,367.141 160.890 C 369.464 160.578,369.567 160.018,368.458 153.725 C 367.929 150.723,366.574 146.774,364.892 143.333 C 363.628 140.746,362.368 140.268,360.841 141.796 M21.080 146.889 C 19.995 147.326,19.988 148.268,21.034 153.233 C 22.351 159.478,22.604 160.000,24.318 160.000 C 26.960 160.000,26.972 159.927,25.439 152.900 C 24.080 146.663,23.528 145.902,21.080 146.889 M376.085 147.083 C 375.904 147.313,375.194 150.043,374.508 153.151 L 373.262 158.803 374.001 159.401 C 376.224 161.201,377.684 159.930,378.485 155.500 C 378.584 154.950,378.959 153.090,379.317 151.366 C 380.053 147.825,379.912 147.199,378.304 146.877 C 376.810 146.579,376.459 146.611,376.085 147.083 M14.429 159.239 C 13.792 159.462,12.582 161.631,12.791 162.176 C 13.068 162.899,16.978 165.333,17.862 165.333 C 18.703 165.333,20.002 163.781,19.997 162.782 C 19.993 161.859,15.361 158.912,14.429 159.239 M382.467 160.459 C 379.801 162.115,379.459 162.944,380.837 164.417 C 381.910 165.565,382.817 165.574,384.506 164.453 C 387.367 162.554,387.715 161.766,386.373 160.219 C 385.268 158.944,384.867 158.969,382.467 160.459 M26.640 161.655 C 12.725 165.997,15.003 189.131,29.388 189.555 C 33.883 189.688,36.802 188.092,39.428 184.067 C 46.483 173.255,37.866 158.153,26.640 161.655 M367.294 161.659 C 353.389 165.998,355.677 189.131,370.054 189.555 C 374.549 189.688,377.468 188.092,380.095 184.067 C 387.174 173.218,378.563 158.143,367.294 161.659 M30.253 164.665 C 35.381 167.792,31.235 175.374,25.806 172.798 C 22.558 171.257,22.524 166.139,25.752 164.548 C 27.222 163.824,28.947 163.868,30.253 164.665 M374.194 164.535 C 375.687 165.244,376.667 166.881,376.667 168.667 C 376.667 173.450,370.515 175.048,367.998 170.920 C 365.651 167.070,370.029 162.559,374.194 164.535 M8.720 170.849 C 7.711 173.064,8.120 173.566,11.953 174.828 L 14.739 175.746 15.578 174.907 C 17.350 173.135,16.638 171.793,13.352 170.709 C 10.399 169.734,9.212 169.770,8.720 170.849 M386.167 170.839 C 384.883 171.293,383.813 171.664,383.789 171.665 C 382.884 171.695,383.907 174.749,385.021 175.345 C 385.758 175.739,390.915 174.278,391.412 173.534 C 393.206 170.844,390.330 169.367,386.167 170.839 M33.701 176.423 C 35.215 177.435,36.077 179.152,35.881 180.763 C 35.163 186.644,26.669 186.248,26.669 180.333 C 26.669 176.619,30.666 174.396,33.701 176.423 M44.755 175.938 C 41.075 178.276,50.991 183.757,63.907 186.525 C 65.333 186.830,67.025 187.199,67.667 187.343 C 68.308 187.488,70.333 187.921,72.167 188.306 C 74.000 188.691,76.925 189.307,78.667 189.675 C 80.408 190.043,83.258 190.640,85.000 191.001 C 86.742 191.363,89.186 191.884,90.433 192.161 C 93.327 192.803,99.625 193.895,102.000 194.167 C 103.008 194.282,104.208 194.433,104.667 194.502 C 106.642 194.799,114.336 195.412,121.333 195.831 C 123.075 195.936,125.475 196.084,126.667 196.160 C 135.325 196.714,139.743 196.833,151.500 196.833 C 158.833 196.833,172.183 196.714,181.167 196.568 C 201.753 196.234,199.852 196.235,219.167 196.559 C 228.150 196.709,241.500 196.833,248.833 196.833 C 260.457 196.833,264.927 196.713,273.333 196.172 C 274.342 196.107,276.817 195.962,278.833 195.850 C 280.850 195.737,283.175 195.584,284.000 195.510 C 284.825 195.436,286.700 195.286,288.167 195.178 C 291.397 194.938,294.154 194.686,295.500 194.507 C 296.050 194.434,297.475 194.274,298.667 194.153 C 299.858 194.031,300.919 193.879,301.023 193.816 C 301.128 193.753,301.953 193.609,302.856 193.496 C 303.760 193.382,304.751 193.218,305.057 193.131 C 305.804 192.918,306.923 192.693,308.333 192.472 C 308.975 192.372,310.099 192.134,310.832 191.943 C 312.457 191.521,313.158 191.374,314.667 191.141 C 315.308 191.042,316.133 190.867,316.500 190.751 C 316.867 190.635,317.317 190.508,317.500 190.469 C 318.555 190.241,319.978 189.968,321.000 189.796 C 321.642 189.689,322.254 189.547,322.361 189.482 C 322.468 189.416,322.993 189.282,323.528 189.185 C 324.063 189.087,324.875 188.928,325.333 188.831 C 325.792 188.734,326.692 188.574,327.333 188.475 C 327.975 188.376,328.800 188.200,329.167 188.084 C 330.024 187.814,330.535 187.708,332.167 187.460 C 332.900 187.349,333.762 187.120,334.083 186.951 C 334.404 186.782,334.667 186.709,334.667 186.788 C 334.667 186.868,335.754 186.643,337.083 186.287 C 338.412 185.931,339.861 185.564,340.302 185.471 C 340.742 185.378,341.342 185.174,341.635 185.017 C 341.927 184.860,342.279 184.718,342.417 184.700 C 342.554 184.681,342.704 184.655,342.750 184.641 C 342.796 184.627,343.108 184.564,343.443 184.500 C 343.778 184.437,344.303 184.274,344.609 184.138 C 344.916 184.002,345.267 183.878,345.389 183.862 C 345.511 183.846,345.724 183.721,345.861 183.583 C 345.999 183.446,346.301 183.333,346.534 183.333 C 346.766 183.333,347.379 183.160,347.895 182.949 C 348.411 182.737,349.036 182.523,349.284 182.473 C 351.014 182.124,355.311 179.525,355.697 178.594 C 356.491 176.676,354.732 175.034,352.867 175.952 C 352.482 176.142,351.454 176.605,350.583 176.982 C 348.547 177.863,346.103 178.929,344.833 179.490 C 341.437 180.993,335.541 182.485,322.333 185.184 C 318.208 186.027,312.433 187.223,309.500 187.840 C 303.732 189.054,299.233 189.847,296.333 190.161 C 295.325 190.270,294.125 190.422,293.667 190.498 C 292.896 190.627,291.393 190.761,286.167 191.167 C 283.031 191.410,279.507 191.628,275.167 191.848 C 272.967 191.960,270.492 192.111,269.667 192.183 C 262.928 192.778,251.878 192.886,234.667 192.524 C 216.512 192.143,183.821 192.143,165.667 192.524 C 148.534 192.883,135.689 192.759,130.667 192.185 C 130.025 192.111,127.325 191.956,124.667 191.840 C 122.008 191.724,119.083 191.570,118.167 191.497 C 117.250 191.424,115.150 191.272,113.500 191.159 C 111.850 191.046,110.125 190.900,109.667 190.836 C 109.208 190.772,107.783 190.625,106.500 190.509 C 102.556 190.155,96.708 189.114,83.167 186.358 C 60.181 181.678,59.857 181.590,50.289 177.375 C 46.426 175.673,45.536 175.442,44.755 175.938 M370.906 176.223 C 374.087 177.733,374.165 182.863,371.031 184.484 C 369.670 185.188,367.718 185.130,366.435 184.348 C 361.302 181.218,365.470 173.644,370.906 176.223 M12.333 179.542 C 9.645 181.004,9.266 181.447,9.711 182.617 C 10.533 184.778,11.612 185.130,13.590 183.882 C 14.274 183.450,15.148 182.998,15.533 182.876 C 17.093 182.381,17.177 179.475,15.654 178.660 C 14.809 178.208,14.767 178.219,12.333 179.542 M384.275 178.679 C 383.313 179.240,382.831 181.261,383.486 181.984 C 384.162 182.732,387.735 184.667,388.439 184.667 C 389.939 184.667,390.909 181.520,389.652 180.735 C 386.348 178.671,385.104 178.196,384.275 178.679 M42.847 184.429 C 40.752 186.296,41.968 190.552,47.365 200.231 C 62.012 226.498,69.233 234.051,91.704 246.602 C 107.981 255.694,122.924 261.270,137.000 263.505 C 137.642 263.607,138.392 263.753,138.667 263.829 C 138.942 263.904,139.773 264.052,140.513 264.156 C 141.254 264.260,142.229 264.418,142.680 264.507 C 143.724 264.714,150.766 265.900,152.417 266.147 C 154.175 266.409,155.980 266.701,156.679 266.836 C 157.006 266.899,157.999 267.056,158.887 267.185 C 159.774 267.313,160.766 267.467,161.092 267.525 C 161.418 267.584,163.888 267.726,166.581 267.841 C 169.274 267.956,171.594 268.122,171.737 268.210 C 172.273 268.542,172.775 266.709,172.454 265.590 C 172.104 264.367,171.784 264.289,165.481 263.870 C 162.656 263.682,139.860 260.003,134.333 258.843 C 121.163 256.078,109.949 251.791,95.488 243.994 C 80.543 235.935,71.332 228.779,64.745 220.108 C 57.865 211.053,48.170 194.095,46.198 187.667 C 44.970 183.664,44.363 183.078,42.847 184.429 M355.667 183.928 C 354.935 184.180,354.750 184.545,353.794 187.637 C 350.063 199.702,334.271 223.342,325.044 230.676 C 324.243 231.313,323.403 232.009,323.177 232.224 C 322.051 233.295,313.320 239.077,310.250 240.786 C 309.379 241.270,308.029 242.025,307.250 242.463 C 290.021 252.143,277.071 256.927,260.167 259.854 C 258.517 260.140,255.486 260.667,253.432 261.026 C 251.378 261.385,248.265 261.899,246.515 262.168 C 244.764 262.438,241.870 262.886,240.083 263.165 C 236.904 263.660,235.754 263.783,230.669 264.172 C 227.833 264.388,227.713 264.458,227.454 266.054 C 227.269 267.191,228.023 268.564,228.627 268.191 C 228.759 268.110,230.960 267.955,233.517 267.848 C 236.074 267.741,238.542 267.595,239.000 267.523 C 239.458 267.451,240.583 267.280,241.500 267.142 C 242.417 267.004,243.392 266.845,243.667 266.789 C 243.942 266.732,244.767 266.600,245.500 266.495 C 246.233 266.389,247.133 266.249,247.500 266.183 C 247.867 266.117,248.842 265.970,249.667 265.858 C 250.492 265.746,251.992 265.498,253.000 265.307 C 254.008 265.117,255.283 264.887,255.833 264.797 C 256.383 264.707,257.133 264.579,257.500 264.512 C 257.867 264.445,258.842 264.293,259.667 264.175 C 260.492 264.057,261.392 263.884,261.666 263.792 C 261.941 263.699,262.766 263.545,263.500 263.449 C 264.233 263.353,265.433 263.133,266.167 262.960 C 267.619 262.618,268.429 262.430,269.583 262.169 C 269.996 262.076,270.633 261.925,271.000 261.833 C 272.551 261.446,273.211 261.290,273.968 261.134 C 274.409 261.043,275.047 260.820,275.385 260.639 C 275.723 260.458,276.000 260.392,276.000 260.493 C 276.000 260.593,276.525 260.456,277.167 260.188 C 277.808 259.920,278.333 259.764,278.333 259.842 C 278.333 259.920,278.746 259.824,279.250 259.629 C 279.754 259.434,280.454 259.216,280.805 259.146 C 282.022 258.901,284.835 257.917,285.150 257.626 C 285.324 257.465,285.676 257.333,285.933 257.333 C 286.189 257.333,286.872 257.131,287.450 256.883 C 288.027 256.636,289.700 255.933,291.167 255.322 C 293.626 254.298,303.068 249.661,305.000 248.529 C 305.458 248.261,307.383 247.169,309.276 246.104 C 311.170 245.038,313.120 243.906,313.610 243.588 C 314.099 243.270,314.800 242.851,315.167 242.657 C 316.383 242.014,317.166 241.520,320.677 239.179 C 332.805 231.094,338.982 223.789,350.701 203.667 C 355.978 194.607,357.333 191.519,358.160 186.667 C 358.380 185.378,356.728 183.564,355.667 183.928 M16.862 185.417 C 15.113 188.116,13.289 192.627,13.664 193.329 C 14.303 194.522,16.342 195.220,16.937 194.448 C 17.600 193.589,20.656 187.260,20.662 186.735 C 20.680 185.118,17.721 184.092,16.862 185.417 M380.039 185.527 C 379.071 186.756,379.094 186.867,381.148 190.963 C 383.150 194.955,383.432 195.205,385.022 194.392 C 387.014 193.375,387.003 193.096,384.820 188.769 C 382.556 184.284,381.552 183.603,380.039 185.527 M24.779 190.666 C 23.984 190.987,23.531 192.014,23.787 192.917 C 23.878 193.237,24.041 194.550,24.149 195.833 C 24.724 202.665,24.877 203.312,25.928 203.359 C 26.243 203.373,26.800 203.443,27.167 203.515 C 28.864 203.846,29.089 203.465,28.870 200.633 C 28.758 199.185,28.572 196.762,28.456 195.250 C 28.122 190.873,27.180 189.698,24.779 190.666 M372.776 190.816 C 371.814 191.505,371.710 192.107,371.146 200.217 C 370.914 203.557,371.048 203.796,373.000 203.527 C 375.300 203.210,375.217 203.429,375.838 196.000 C 375.953 194.625,376.109 193.113,376.185 192.640 C 376.462 190.910,374.278 189.742,372.776 190.816 M33.011 191.537 C 30.703 192.519,30.761 193.002,33.885 198.780 C 38.775 207.826,41.214 210.949,42.892 210.311 C 45.257 209.412,45.168 208.326,42.374 204.028 C 40.343 200.905,39.021 198.600,36.257 193.368 C 35.168 191.306,34.473 190.914,33.011 191.537 M363.786 193.250 C 363.216 194.304,362.107 196.367,361.320 197.833 C 360.534 199.300,358.865 202.075,357.612 204.000 C 355.045 207.944,354.908 208.582,356.359 209.804 C 358.136 211.299,359.881 209.870,362.838 204.500 C 363.343 203.583,363.886 202.668,364.045 202.465 C 364.916 201.357,368.667 193.821,368.667 193.180 C 368.667 190.777,365.093 190.828,363.786 193.250 " stroke="none" fill="#e4dcb3" fill-rule="evenodd"></path></g></svg>