<svg id="svg" version="1.1" xmlns="http://www.w3.org/2000/svg" xmlns:xlink="http://www.w3.org/1999/xlink" width="400" height="400" viewBox="0, 0, 400,400"><g id="svgg"><path id="path0" d="M284.400 71.488 C 283.850 71.592,283.220 71.816,283.000 71.986 C 282.780 72.156,281.970 72.410,281.200 72.549 C 277.208 73.273,276.190 76.239,276.788 85.400 C 277.494 96.218,278.014 105.578,278.086 108.800 C 278.182 113.070,276.615 131.464,276.007 133.200 C 275.814 133.750,275.358 135.910,274.992 138.000 C 274.626 140.090,274.188 141.980,274.020 142.200 C 273.851 142.420,273.390 143.995,272.997 145.700 C 272.603 147.405,272.127 148.800,271.940 148.800 C 271.753 148.800,271.600 149.137,271.600 149.550 C 271.600 150.460,269.331 156.106,267.641 159.400 C 266.964 160.720,266.408 162.025,266.405 162.300 C 266.402 162.575,266.220 162.800,266.000 162.800 C 265.780 162.800,265.600 163.067,265.600 163.393 C 265.600 163.719,264.880 165.162,264.000 166.600 C 263.120 168.038,262.400 169.481,262.400 169.807 C 262.400 170.133,262.216 170.400,261.991 170.400 C 261.767 170.400,261.378 170.850,261.127 171.400 C 260.674 172.396,257.600 172.961,257.600 172.049 C 257.600 171.485,256.463 169.173,255.018 166.800 C 254.282 165.590,252.477 162.170,251.007 159.200 C 249.537 156.230,248.103 153.350,247.819 152.800 C 247.535 152.250,247.077 151.080,246.799 150.200 C 246.522 149.320,246.163 148.420,246.000 148.200 C 245.837 147.980,245.480 147.080,245.205 146.200 C 244.930 145.320,244.459 144.060,244.157 143.400 C 242.263 139.253,239.166 125.088,238.581 117.900 C 238.425 115.975,238.161 114.400,237.995 114.400 C 237.422 114.400,237.211 97.989,237.600 83.600 C 237.843 74.598,236.913 72.400,232.863 72.400 C 232.414 72.400,231.930 72.211,231.787 71.979 C 231.479 71.480,222.877 71.523,221.266 72.032 C 220.680 72.217,219.060 72.583,217.667 72.846 C 216.274 73.109,214.892 73.566,214.595 73.862 C 214.299 74.158,213.877 74.400,213.658 74.400 C 213.438 74.400,212.717 75.057,212.054 75.860 C 210.671 77.539,210.668 77.564,209.783 92.000 C 209.289 100.058,209.444 121.856,209.997 122.198 C 210.143 122.288,210.300 123.405,210.347 124.681 C 210.496 128.757,211.570 137.278,211.974 137.600 C 212.112 137.710,212.544 139.683,212.933 141.984 C 213.322 144.284,213.777 146.354,213.944 146.584 C 214.111 146.813,214.582 148.350,214.990 150.000 C 215.399 151.650,215.851 153.090,215.996 153.200 C 216.140 153.310,216.579 154.561,216.972 155.980 C 217.365 157.399,217.908 158.929,218.180 159.380 C 218.451 159.831,218.911 160.965,219.201 161.900 C 219.491 162.835,219.860 163.600,220.021 163.600 C 220.182 163.600,220.434 164.095,220.581 164.700 C 220.728 165.305,222.412 168.900,224.324 172.689 C 229.041 182.038,229.508 182.930,229.962 183.459 C 230.178 183.712,230.624 184.562,230.953 185.350 C 231.282 186.138,231.740 187.011,231.970 187.291 C 234.430 190.286,234.512 190.442,234.089 191.323 C 232.392 194.849,232.333 208.800,234.014 208.800 C 234.206 208.800,233.922 209.242,233.382 209.782 C 232.842 210.322,232.400 211.023,232.400 211.339 C 232.400 211.655,232.130 212.018,231.800 212.145 C 231.470 212.271,231.200 212.557,231.200 212.780 C 231.200 213.002,230.570 214.169,229.800 215.373 C 229.030 216.577,228.400 217.658,228.400 217.775 C 228.400 217.892,227.842 218.895,227.160 220.003 C 225.798 222.216,224.919 223.864,221.540 230.537 C 218.765 236.016,216.971 239.877,216.584 241.200 C 216.424 241.750,216.149 242.293,215.973 242.407 C 215.683 242.595,214.430 245.673,212.963 249.800 C 212.650 250.680,212.216 251.712,211.998 252.093 C 211.364 253.203,212.486 253.265,225.200 252.819 C 231.690 252.592,238.121 252.404,239.492 252.403 L 241.984 252.400 242.822 250.756 C 243.284 249.852,244.243 248.531,244.954 247.820 C 246.429 246.345,249.223 241.747,255.000 231.293 C 256.398 228.763,257.263 228.064,258.809 228.214 C 259.574 228.288,260.482 228.360,260.826 228.374 C 261.191 228.389,261.943 229.444,262.626 230.900 C 263.272 232.275,263.907 233.490,264.037 233.600 C 264.167 233.710,264.596 234.655,264.991 235.700 C 265.386 236.745,265.864 237.600,266.054 237.600 C 266.244 237.600,266.400 237.788,266.400 238.018 C 266.400 238.249,267.030 239.783,267.800 241.427 C 268.570 243.072,269.200 244.624,269.200 244.877 C 269.200 245.130,269.438 245.621,269.729 245.969 C 270.020 246.316,270.486 247.410,270.764 248.400 C 271.042 249.390,271.521 250.740,271.828 251.400 C 272.134 252.060,272.649 253.637,272.972 254.905 C 273.295 256.172,273.667 257.384,273.799 257.598 C 274.481 258.703,277.021 270.756,277.401 274.700 C 277.555 276.295,277.813 277.600,277.974 277.600 C 278.135 277.600,278.271 277.825,278.277 278.100 C 278.282 278.375,278.519 282.200,278.803 286.600 C 279.280 293.990,279.132 322.961,278.599 326.600 C 278.128 329.810,278.348 336.231,278.970 337.450 C 281.938 343.262,301.634 343.027,304.712 337.143 C 305.269 336.079,306.021 332.357,305.763 331.941 C 305.671 331.791,305.751 331.608,305.941 331.534 C 306.132 331.460,306.404 328.658,306.546 325.307 C 306.688 321.956,306.982 315.746,307.199 311.507 C 308.270 290.641,307.680 269.249,305.901 264.400 C 305.779 264.070,305.455 262.180,305.180 260.200 C 304.905 258.220,304.456 255.880,304.183 255.000 C 303.910 254.120,303.373 252.050,302.989 250.400 C 302.605 248.750,302.152 247.220,301.982 247.000 C 301.812 246.780,301.397 245.610,301.059 244.400 C 300.147 241.140,298.481 236.383,298.067 235.859 C 297.867 235.606,297.475 234.680,297.195 233.800 C 296.914 232.920,295.721 230.164,294.543 227.677 C 293.364 225.189,292.400 222.984,292.400 222.777 C 292.400 222.569,292.256 222.400,292.079 222.400 C 291.902 222.400,291.434 221.500,291.039 220.400 C 290.643 219.300,290.175 218.400,289.999 218.400 C 289.823 218.400,289.482 217.837,289.242 217.149 C 289.003 216.462,288.252 214.997,287.573 213.895 L 286.340 211.891 287.038 209.046 C 287.421 207.481,287.689 206.130,287.633 206.045 C 287.577 205.959,287.755 205.751,288.029 205.582 C 288.379 205.366,288.528 203.873,288.534 200.538 C 288.542 195.862,288.334 194.719,286.587 189.861 C 286.093 188.487,286.108 188.209,286.733 187.261 C 287.874 185.529,288.354 184.677,289.009 183.215 C 289.351 182.453,289.879 181.553,290.184 181.215 C 290.828 180.498,297.190 167.992,297.211 167.400 C 297.219 167.180,297.668 166.100,298.209 165.000 C 298.750 163.900,299.194 162.742,299.196 162.426 C 299.198 162.111,299.538 161.121,299.951 160.226 C 300.365 159.332,300.933 157.700,301.213 156.600 C 301.494 155.500,301.874 154.404,302.058 154.164 C 302.241 153.925,302.683 152.305,303.041 150.564 C 303.398 148.824,303.845 147.106,304.034 146.748 C 304.223 146.389,304.661 144.139,305.008 141.748 C 305.355 139.356,305.805 136.770,306.009 136.000 C 307.410 130.699,307.520 98.709,306.165 90.600 C 306.055 89.940,305.876 88.500,305.768 87.400 C 304.954 79.096,304.823 78.381,303.783 76.607 C 303.201 75.613,302.575 74.800,302.393 74.800 C 302.210 74.800,301.553 74.373,300.931 73.851 C 300.309 73.329,298.990 72.767,298.000 72.602 C 297.010 72.437,296.087 72.123,295.948 71.905 C 295.688 71.496,286.180 71.152,284.400 71.488 M266.400 185.740 C 285.259 191.830,280.698 214.357,260.600 214.385 C 242.647 214.411,235.154 195.580,249.786 187.208 C 253.928 184.838,261.528 184.166,266.400 185.740 M180.000 251.482 C 179.010 251.560,173.366 251.877,167.458 252.187 C 161.550 252.497,156.669 252.807,156.612 252.875 C 156.416 253.110,157.677 260.845,158.099 262.000 C 158.220 262.330,158.623 264.760,158.995 267.400 C 159.366 270.040,159.820 272.650,160.003 273.200 C 160.313 274.130,160.887 278.404,161.399 283.600 C 161.518 284.810,161.808 286.700,162.044 287.800 C 162.461 289.746,162.299 312.551,161.842 316.200 C 161.037 322.642,161.094 333.661,161.940 334.804 C 162.413 335.444,162.800 336.110,162.800 336.284 C 162.800 338.850,178.167 340.229,182.704 338.071 C 185.609 336.688,186.679 335.949,187.200 334.963 C 187.530 334.339,188.003 333.606,188.251 333.334 C 188.845 332.684,189.889 318.495,189.784 312.500 C 189.776 312.005,189.891 311.600,190.041 311.600 C 190.631 311.600,190.865 280.195,190.301 276.800 C 190.136 275.810,189.643 272.300,189.204 269.000 C 188.765 265.700,188.240 262.711,188.037 262.359 C 187.833 262.006,187.552 260.836,187.412 259.759 C 186.202 250.446,186.659 250.956,180.000 251.482 " stroke="none" fill="#f46c63" fill-rule="evenodd"></path><path id="path1" d="M166.200 69.247 C 159.808 70.712,157.739 76.286,160.057 85.800 C 160.554 87.840,160.854 116.881,160.416 120.600 C 159.809 125.757,158.384 134.589,157.995 135.600 C 157.783 136.150,157.333 137.937,156.996 139.570 C 156.658 141.204,156.232 142.734,156.048 142.970 C 155.865 143.207,155.497 144.293,155.231 145.385 C 154.964 146.477,154.333 148.277,153.828 149.385 C 153.323 150.493,152.778 151.850,152.616 152.400 C 152.453 152.950,151.889 154.334,151.360 155.475 C 150.832 156.617,150.400 157.742,150.400 157.975 C 150.400 158.209,150.232 158.400,150.027 158.400 C 149.822 158.400,149.527 158.805,149.371 159.300 C 149.140 160.037,147.275 163.559,144.984 167.584 C 142.782 171.454,141.644 170.786,137.393 163.132 C 133.806 156.674,130.461 149.846,130.421 148.900 C 130.409 148.625,130.243 148.400,130.052 148.400 C 129.861 148.400,129.469 147.545,129.182 146.500 C 128.895 145.455,128.435 144.240,128.160 143.800 C 127.884 143.360,127.360 141.830,126.994 140.400 C 126.628 138.970,126.188 137.620,126.016 137.400 C 125.844 137.180,125.390 135.560,125.008 133.800 C 124.626 132.040,124.177 130.420,124.012 130.200 C 123.846 129.980,123.587 129.080,123.436 128.200 C 123.285 127.320,122.888 125.070,122.554 123.200 C 120.904 113.973,120.101 95.182,120.767 81.400 C 121.035 75.855,120.784 72.728,120.051 72.484 C 119.803 72.401,119.600 72.090,119.600 71.794 C 119.600 71.497,119.195 71.130,118.700 70.980 C 118.205 70.829,117.465 70.412,117.056 70.053 C 116.124 69.235,102.521 69.071,101.560 69.866 C 101.252 70.120,100.324 70.455,99.499 70.609 C 97.740 70.938,95.375 72.700,94.283 74.496 C 92.468 77.481,91.948 116.814,93.587 127.200 C 93.778 128.410,94.219 131.200,94.569 133.400 C 94.918 135.600,95.454 138.210,95.762 139.200 C 96.069 140.190,96.619 142.345,96.985 143.989 C 97.351 145.633,97.793 147.163,97.967 147.389 C 98.141 147.615,98.592 149.057,98.969 150.592 C 99.347 152.128,99.799 153.568,99.976 153.792 C 100.152 154.017,100.522 154.920,100.798 155.800 C 101.244 157.218,101.815 158.599,103.777 163.000 C 105.034 165.818,109.771 175.417,109.996 175.600 C 110.131 175.710,110.552 176.430,110.931 177.200 C 112.721 180.837,115.366 185.482,116.236 186.516 C 117.239 187.707,117.240 187.850,116.293 191.400 C 115.643 193.833,115.624 193.983,115.550 197.213 C 115.490 199.884,115.860 202.391,116.789 205.600 C 117.000 206.328,116.868 206.817,116.303 207.400 C 115.877 207.840,115.249 208.740,114.908 209.400 C 114.567 210.060,114.166 210.690,114.015 210.800 C 113.728 211.011,110.814 216.037,109.316 218.907 C 108.830 219.838,108.275 220.785,108.084 221.010 C 107.786 221.362,106.013 224.949,101.763 233.806 C 101.233 234.909,100.800 235.955,100.800 236.131 C 100.800 236.307,100.350 237.435,99.800 238.637 C 99.250 239.840,98.800 241.078,98.800 241.388 C 98.800 241.699,98.648 242.047,98.463 242.161 C 98.277 242.276,97.728 243.771,97.243 245.485 C 96.757 247.198,96.187 248.916,95.976 249.301 C 95.413 250.329,93.067 260.021,91.595 267.404 C 91.129 269.739,90.056 279.154,89.567 285.200 C 89.257 289.035,89.396 314.176,89.743 317.000 C 89.952 318.699,90.349 323.611,90.602 327.602 C 90.981 333.594,93.544 337.600,97.000 337.600 C 97.462 337.600,98.028 337.788,98.257 338.017 C 99.063 338.823,106.311 339.323,110.422 338.856 C 115.405 338.289,117.743 337.083,118.892 334.485 C 119.745 332.556,119.750 333.710,118.825 317.600 C 118.104 305.033,118.763 282.589,119.976 278.400 C 120.199 277.630,120.668 274.934,121.018 272.408 C 121.368 269.883,121.803 267.633,121.985 267.408 C 122.167 267.184,122.624 265.470,123.000 263.600 C 123.376 261.730,123.815 260.020,123.976 259.800 C 124.136 259.580,124.588 258.183,124.980 256.695 C 125.371 255.207,126.031 253.324,126.446 252.510 C 126.861 251.696,127.200 250.789,127.200 250.493 C 127.200 249.958,127.705 248.770,130.253 243.318 C 130.994 241.734,131.600 240.361,131.600 240.268 C 131.600 240.000,136.085 232.082,137.930 229.093 C 138.848 227.604,139.600 226.209,139.600 225.993 C 139.600 225.777,140.656 225.600,141.947 225.600 L 144.293 225.600 145.127 227.500 C 145.586 228.545,146.804 230.930,147.834 232.800 C 148.864 234.670,150.103 236.920,150.588 237.800 C 152.151 240.640,153.325 242.585,153.856 243.217 C 154.326 243.778,155.303 247.075,155.747 249.600 C 155.843 250.150,156.052 251.105,156.210 251.723 L 156.498 252.846 159.549 252.616 C 161.227 252.490,166.200 252.210,170.600 251.995 C 183.323 251.372,185.600 251.159,185.600 250.593 C 185.600 249.574,184.322 243.388,184.032 243.000 C 183.867 242.780,183.503 241.520,183.222 240.200 C 182.942 238.880,182.390 237.080,181.995 236.200 C 181.601 235.320,181.067 233.811,180.809 232.847 C 180.552 231.883,180.180 230.803,179.984 230.447 C 179.787 230.091,179.066 228.540,178.380 227.000 C 177.305 224.586,174.983 219.875,171.232 212.502 C 170.700 211.456,170.025 210.456,169.732 210.280 C 169.051 209.871,169.058 209.042,169.757 207.460 C 171.731 202.988,171.986 192.680,170.210 189.104 C 169.099 186.867,169.065 185.644,170.073 184.075 C 172.226 180.721,175.600 174.595,175.600 174.038 C 175.600 173.797,175.756 173.600,175.946 173.600 C 176.136 173.600,176.618 172.745,177.017 171.700 C 177.416 170.655,177.944 169.599,178.190 169.353 C 178.436 169.107,178.891 168.117,179.202 167.153 C 179.512 166.189,179.881 165.310,180.020 165.200 C 180.159 165.090,180.603 164.100,181.006 163.000 C 181.408 161.900,181.859 160.820,182.008 160.600 C 182.156 160.380,182.582 159.210,182.954 158.000 C 183.326 156.790,183.794 155.440,183.994 155.000 C 184.638 153.579,186.046 148.305,186.876 144.200 C 187.321 142.000,187.837 139.902,188.022 139.538 C 188.208 139.174,188.641 136.204,188.986 132.938 C 189.330 129.672,189.787 125.830,190.001 124.400 C 190.396 121.766,190.307 101.439,189.893 99.600 C 189.769 99.050,189.549 96.170,189.404 93.200 C 189.259 90.230,189.074 87.260,188.994 86.600 C 188.914 85.940,188.738 83.870,188.603 82.000 C 188.375 78.840,188.103 77.523,187.097 74.704 C 186.595 73.296,183.943 70.898,182.510 70.555 C 181.900 70.409,181.214 70.145,180.986 69.967 C 179.682 68.951,169.628 68.462,166.200 69.247 M147.416 182.607 C 156.656 184.960,163.011 193.003,161.226 200.085 C 157.042 216.686,128.934 215.606,125.183 198.700 C 122.894 188.382,135.177 179.490,147.416 182.607 M223.400 252.869 C 218.340 253.058,213.619 253.132,212.908 253.033 C 211.471 252.833,211.224 253.344,210.348 258.352 C 210.131 259.588,209.872 261.050,209.772 261.600 C 209.672 262.150,209.236 265.210,208.802 268.400 C 208.369 271.590,207.844 275.280,207.637 276.600 C 206.293 285.149,206.161 312.847,207.384 329.800 C 207.792 335.448,209.238 338.003,213.049 339.806 C 217.736 342.023,230.722 342.042,233.161 339.836 C 233.547 339.486,234.056 339.200,234.292 339.200 C 236.548 339.200,237.379 329.613,235.765 322.200 C 235.398 320.517,235.383 292.062,235.748 290.600 C 235.913 289.940,236.405 286.160,236.841 282.200 C 237.278 278.240,237.792 274.640,237.984 274.200 C 238.387 273.276,239.061 268.741,239.440 264.400 C 239.585 262.750,239.841 261.220,240.010 261.000 C 240.178 260.780,240.510 259.340,240.747 257.800 C 240.984 256.260,241.296 254.415,241.439 253.700 L 241.700 252.400 237.150 252.462 C 234.648 252.497,228.460 252.680,223.400 252.869 " stroke="none" fill="#ac5ce3" fill-rule="evenodd"></path><path id="path2" d="M237.309 92.800 C 237.309 93.790,237.387 94.195,237.482 93.700 C 237.578 93.205,237.578 92.395,237.482 91.900 C 237.387 91.405,237.309 91.810,237.309 92.800 M237.309 103.600 C 237.309 104.590,237.387 104.995,237.482 104.500 C 237.578 104.005,237.578 103.195,237.482 102.700 C 237.387 102.205,237.309 102.610,237.309 103.600 M92.501 111.400 C 92.505 112.280,92.587 112.593,92.683 112.095 C 92.779 111.598,92.775 110.878,92.675 110.495 C 92.575 110.113,92.496 110.520,92.501 111.400 M137.284 182.622 C 123.497 186.333,120.509 200.689,131.933 208.332 C 146.925 218.361,166.912 206.594,159.970 191.825 C 156.660 184.785,145.727 180.350,137.284 182.622 M254.242 185.411 C 234.834 190.327,240.120 214.414,260.600 214.385 C 284.209 214.352,284.209 186.005,260.600 184.986 C 257.854 184.867,255.861 185.000,254.242 185.411 M235.293 298.800 C 235.293 299.570,235.375 299.885,235.476 299.500 C 235.576 299.115,235.576 298.485,235.476 298.100 C 235.375 297.715,235.293 298.030,235.293 298.800 " stroke="none" fill="#f3f2ce" fill-rule="evenodd"></path></g></svg>