<svg id="svg" version="1.1" xmlns="http://www.w3.org/2000/svg" xmlns:xlink="http://www.w3.org/1999/xlink" width="400" height="400" viewBox="0, 0, 400,400"><g id="svgg"><path id="path0" d="M164.422 30.016 C 161.402 31.697,160.134 36.343,161.624 40.262 C 161.857 40.875,162.317 42.732,162.646 44.388 C 163.599 49.183,163.632 49.328,163.837 49.660 C 164.194 50.238,166.584 63.446,167.444 69.600 C 167.766 71.904,167.846 72.335,167.983 72.500 C 168.028 72.555,168.140 73.140,168.230 73.800 C 169.409 82.406,171.766 85.614,177.968 87.053 C 183.447 88.324,188.325 86.338,189.036 82.547 C 189.495 80.103,188.804 68.641,188.015 65.600 C 187.816 64.830,187.382 62.220,187.052 59.800 C 186.722 57.380,186.338 54.950,186.198 54.400 C 186.059 53.850,185.596 51.420,185.169 49.000 C 184.743 46.580,184.290 44.330,184.163 44.000 C 184.036 43.670,183.601 42.120,183.196 40.556 C 182.044 36.099,178.145 30.800,176.017 30.800 C 175.666 30.800,174.940 30.493,174.405 30.119 C 172.892 29.058,166.265 28.991,164.422 30.016 M264.411 44.694 C 262.540 45.044,259.165 48.757,256.824 53.042 C 256.356 53.899,255.452 55.410,254.816 56.400 C 253.159 58.978,252.134 60.744,251.103 62.800 C 250.606 63.790,250.085 64.690,249.944 64.800 C 249.803 64.910,248.844 66.620,247.813 68.600 C 246.782 70.580,245.776 72.470,245.579 72.800 C 245.381 73.130,244.949 74.030,244.618 74.800 C 244.287 75.570,243.831 76.470,243.604 76.800 C 243.377 77.130,242.921 78.030,242.590 78.800 C 242.259 79.570,241.828 80.470,241.633 80.800 C 239.056 85.151,236.524 95.200,238.004 95.200 C 238.183 95.200,238.450 95.914,238.598 96.786 C 238.745 97.659,239.346 98.988,239.933 99.741 C 240.520 100.494,241.270 101.501,241.600 101.979 C 244.713 106.492,251.782 105.498,253.426 100.317 C 253.552 99.922,253.800 99.600,253.978 99.600 C 254.156 99.600,254.689 98.745,255.163 97.700 C 255.637 96.655,256.548 94.900,257.187 93.800 C 257.826 92.700,259.098 90.360,260.013 88.600 C 260.928 86.840,261.892 85.130,262.155 84.800 C 262.419 84.470,262.895 83.660,263.212 83.000 C 263.530 82.340,264.558 80.583,265.495 79.096 C 266.433 77.609,267.200 76.285,267.200 76.154 C 267.200 76.023,267.740 75.116,268.400 74.138 C 269.060 73.160,269.600 72.189,269.600 71.980 C 269.600 71.771,269.747 71.600,269.926 71.600 C 270.105 71.600,270.557 71.015,270.930 70.300 C 271.302 69.585,271.991 68.370,272.460 67.600 C 274.313 64.556,275.225 62.587,275.459 61.119 C 275.595 60.274,275.861 59.486,276.053 59.368 C 277.190 58.664,275.461 52.074,273.534 49.766 C 271.444 47.264,269.507 45.229,269.261 45.278 C 269.117 45.306,268.493 45.120,267.874 44.865 C 266.728 44.392,266.172 44.365,264.411 44.694 M103.745 78.801 C 98.675 79.543,92.797 85.176,92.801 89.287 C 92.804 91.671,95.465 94.764,99.400 96.956 C 100.060 97.324,101.140 97.981,101.800 98.417 C 102.460 98.853,103.315 99.318,103.700 99.451 C 104.085 99.584,104.400 99.811,104.400 99.956 C 104.400 100.100,105.030 100.557,105.800 100.972 C 106.570 101.387,107.200 101.878,107.200 102.063 C 107.200 102.248,107.455 102.400,107.767 102.400 C 108.078 102.400,108.393 102.539,108.467 102.709 C 108.540 102.879,109.500 103.600,110.600 104.312 C 113.861 106.421,114.049 106.548,115.761 107.800 C 117.523 109.088,119.888 110.647,122.300 112.110 C 123.125 112.610,124.160 113.241,124.600 113.511 C 129.171 116.316,134.665 115.448,138.738 111.276 C 144.231 105.650,143.290 101.738,135.015 95.800 C 134.402 95.360,133.036 94.370,131.981 93.600 C 130.925 92.830,129.667 91.930,129.186 91.600 C 128.704 91.270,127.566 90.417,126.655 89.704 C 125.745 88.991,124.784 88.406,124.520 88.404 C 124.256 88.402,123.896 88.175,123.720 87.900 C 122.873 86.576,116.093 82.024,112.284 80.222 C 110.602 79.427,106.087 78.184,105.845 78.450 C 105.820 78.477,104.875 78.635,103.745 78.801 M190.000 102.469 C 182.672 102.712,178.288 103.280,176.840 104.176 C 176.647 104.295,175.164 104.665,173.544 104.998 C 171.925 105.332,170.240 105.767,169.800 105.965 C 169.360 106.164,168.100 106.550,167.000 106.825 C 165.900 107.100,164.819 107.462,164.598 107.630 C 164.377 107.798,161.407 109.352,157.998 111.083 C 151.312 114.479,149.755 115.389,148.753 116.490 C 148.397 116.880,147.942 117.200,147.742 117.200 C 147.542 117.200,147.092 117.515,146.742 117.900 C 146.393 118.285,145.419 119.140,144.579 119.800 C 138.029 124.942,136.348 126.538,132.986 130.800 C 131.685 132.450,129.849 134.609,128.906 135.597 C 127.964 136.585,127.092 137.710,126.969 138.097 C 126.846 138.484,126.581 138.800,126.380 138.800 C 126.178 138.800,125.537 139.745,124.954 140.900 C 124.372 142.055,123.784 143.090,123.648 143.200 C 123.511 143.310,123.081 144.030,122.691 144.800 C 122.301 145.570,121.456 147.100,120.813 148.200 C 120.169 149.300,119.343 150.830,118.977 151.600 C 118.610 152.370,118.195 153.090,118.054 153.200 C 117.497 153.636,115.803 157.659,114.938 160.600 C 114.615 161.700,114.105 163.140,113.806 163.800 C 113.507 164.460,113.134 165.540,112.978 166.200 C 112.822 166.860,112.346 168.181,111.921 169.135 C 111.496 170.089,110.895 172.159,110.585 173.735 C 110.275 175.311,109.925 177.050,109.806 177.600 C 107.709 187.307,107.038 207.412,108.551 215.200 C 108.914 217.070,109.309 219.230,109.428 220.000 C 109.547 220.770,109.800 221.940,109.990 222.600 C 110.180 223.260,110.469 224.700,110.633 225.800 C 110.797 226.900,110.982 227.980,111.044 228.200 C 111.107 228.420,111.268 229.134,111.403 229.788 C 111.537 230.441,111.793 231.161,111.971 231.388 C 112.149 231.614,112.612 232.790,113.000 234.000 C 113.388 235.210,113.831 236.380,113.984 236.600 C 114.137 236.820,114.580 237.900,114.969 239.000 C 115.357 240.100,115.907 241.540,116.191 242.200 C 116.474 242.860,116.935 244.120,117.216 245.000 C 117.497 245.880,118.039 247.050,118.421 247.600 C 119.247 248.789,123.937 256.350,124.815 257.908 C 126.046 260.092,127.586 262.350,128.482 263.285 C 128.987 263.811,131.020 266.020,133.000 268.192 C 138.058 273.742,140.282 275.880,141.894 276.743 C 142.358 276.992,142.981 277.438,143.278 277.735 C 143.810 278.267,146.557 280.159,148.111 281.064 C 148.549 281.319,149.019 281.691,149.154 281.890 C 149.463 282.345,153.784 285.200,154.163 285.200 C 154.433 285.200,155.166 285.519,160.710 288.053 C 162.091 288.684,163.317 289.200,163.435 289.200 C 163.553 289.200,164.583 289.637,165.725 290.172 C 166.866 290.706,168.520 291.261,169.400 291.405 C 170.280 291.549,171.540 291.822,172.200 292.012 C 172.860 292.201,174.030 292.452,174.800 292.570 C 175.570 292.688,177.820 293.088,179.800 293.458 C 186.641 294.736,205.060 293.760,207.400 291.995 C 207.620 291.829,209.150 291.390,210.800 291.020 C 214.652 290.154,218.833 288.826,219.600 288.225 C 219.930 287.966,222.673 286.505,225.694 284.977 C 228.716 283.450,231.523 282.018,231.931 281.795 C 232.797 281.322,234.777 279.802,238.178 277.000 C 239.513 275.900,241.504 274.287,242.603 273.415 C 245.570 271.059,247.331 269.186,252.391 263.000 C 254.910 259.920,257.107 257.303,257.272 257.185 C 257.438 257.066,258.010 256.166,258.544 255.185 C 259.078 254.203,261.156 250.443,263.161 246.830 C 265.166 243.216,267.003 239.526,267.243 238.630 C 267.482 237.733,267.809 236.820,267.969 236.600 C 268.129 236.380,268.488 235.390,268.768 234.400 C 269.047 233.410,269.517 232.060,269.812 231.400 C 270.107 230.740,270.526 229.570,270.741 228.800 C 270.957 228.030,271.493 226.410,271.931 225.200 C 272.727 223.001,272.909 222.128,273.435 218.000 C 273.589 216.790,273.739 215.620,273.769 215.400 C 273.798 215.180,273.934 214.820,274.070 214.600 C 274.207 214.380,274.443 213.030,274.595 211.600 C 274.748 210.170,275.036 208.120,275.236 207.045 C 275.873 203.625,275.680 186.666,274.958 182.600 C 274.240 178.557,274.214 178.434,273.883 177.600 C 273.752 177.270,273.362 175.020,273.016 172.600 C 272.473 168.796,271.308 164.606,270.012 161.800 C 269.244 160.137,267.200 154.723,267.200 154.353 C 267.200 153.712,264.729 148.610,264.349 148.466 C 264.154 148.392,264.097 148.167,264.221 147.966 C 264.345 147.765,264.269 147.600,264.051 147.600 C 263.832 147.600,263.534 147.221,263.387 146.759 C 263.240 146.296,262.733 145.317,262.260 144.584 C 261.787 143.850,260.950 142.488,260.400 141.557 C 259.850 140.626,258.815 138.999,258.100 137.942 C 257.385 136.884,256.800 135.871,256.800 135.689 C 256.800 135.257,252.274 130.244,245.338 122.992 C 244.492 122.107,242.954 120.757,241.921 119.992 C 238.595 117.528,232.759 113.414,231.913 112.936 C 231.461 112.681,230.981 112.312,230.846 112.116 C 230.711 111.919,229.700 111.425,228.600 111.017 C 227.500 110.608,225.340 109.659,223.800 108.907 C 222.260 108.155,220.010 107.169,218.800 106.716 C 217.590 106.264,216.393 105.730,216.140 105.531 C 215.887 105.332,214.537 104.992,213.140 104.776 C 211.743 104.560,209.520 104.125,208.200 103.809 C 206.880 103.494,204.861 103.134,203.714 103.009 C 202.567 102.883,200.857 102.650,199.914 102.489 C 198.971 102.328,194.510 102.319,190.000 102.469 M328.160 120.064 C 328.046 120.249,327.544 120.400,327.044 120.400 C 326.011 120.400,317.551 123.297,315.938 124.204 C 315.354 124.532,314.632 124.800,314.332 124.800 C 314.033 124.800,313.161 125.135,312.394 125.544 C 311.627 125.953,310.550 126.420,310.000 126.581 C 309.450 126.742,304.602 129.043,299.227 131.694 C 288.072 137.195,285.088 139.497,283.794 143.600 C 283.759 143.710,283.568 144.160,283.368 144.600 C 282.476 146.568,282.934 152.958,284.093 154.710 C 285.503 156.840,289.812 157.583,291.780 156.035 C 292.011 155.853,292.913 155.474,293.784 155.193 C 294.656 154.912,296.276 154.242,297.384 153.704 C 299.701 152.579,302.608 151.226,305.200 150.067 C 306.190 149.625,307.990 148.820,309.200 148.280 C 310.410 147.739,313.380 146.616,315.800 145.784 C 318.220 144.952,320.371 144.120,320.580 143.935 C 320.789 143.751,321.198 143.600,321.489 143.600 C 325.570 143.600,334.334 137.674,335.045 134.434 C 335.170 133.865,335.429 132.860,335.622 132.200 C 336.286 129.925,336.475 127.148,336.040 126.072 C 335.802 125.482,335.543 124.640,335.465 124.200 C 335.153 122.449,334.362 121.167,333.308 120.703 C 332.699 120.435,332.110 120.123,332.000 120.008 C 331.664 119.658,328.382 119.706,328.160 120.064 M206.216 131.830 C 231.585 139.459,235.121 173.448,211.888 186.338 C 197.740 194.187,178.860 188.383,171.572 173.944 C 159.783 150.591,181.364 124.357,206.216 131.830 M59.492 140.515 C 50.961 145.266,49.902 152.497,57.069 157.061 C 57.691 157.457,58.290 157.891,58.400 158.025 C 58.510 158.159,59.770 159.018,61.200 159.934 C 62.630 160.849,64.070 161.784,64.400 162.010 C 64.730 162.237,66.260 163.226,67.800 164.207 C 69.340 165.189,70.870 166.174,71.200 166.395 C 85.015 175.665,88.235 176.796,93.393 174.186 C 94.607 173.572,95.600 172.919,95.600 172.735 C 95.600 172.551,95.785 172.400,96.012 172.400 C 96.620 172.400,98.944 169.656,99.360 168.446 C 99.558 167.871,99.913 167.275,100.148 167.122 C 101.911 165.977,99.635 161.159,95.885 158.098 C 94.738 157.162,93.583 156.217,93.317 155.998 C 93.051 155.779,92.745 155.600,92.637 155.600 C 92.529 155.600,91.603 155.015,90.579 154.300 C 89.556 153.585,88.422 152.820,88.059 152.600 C 87.697 152.380,87.310 152.082,87.200 151.938 C 86.840 151.467,82.828 148.800,82.479 148.800 C 82.292 148.800,81.717 148.350,81.200 147.800 C 80.683 147.250,80.031 146.800,79.750 146.800 C 79.469 146.800,79.096 146.557,78.920 146.259 C 78.744 145.961,77.949 145.286,77.154 144.759 C 76.358 144.232,74.724 143.147,73.522 142.349 C 72.320 141.550,70.901 140.761,70.368 140.595 C 69.836 140.428,69.278 140.103,69.130 139.871 C 68.404 138.739,61.901 139.174,59.492 140.515 M342.400 188.796 C 341.630 188.963,337.490 190.301,333.200 191.768 C 328.910 193.236,324.420 194.705,323.223 195.033 C 322.026 195.361,320.856 195.787,320.623 195.979 C 320.390 196.171,319.030 196.631,317.600 197.000 C 316.170 197.369,314.820 197.807,314.600 197.974 C 314.380 198.140,313.300 198.509,312.200 198.794 C 306.119 200.369,300.884 203.391,298.095 206.936 C 295.584 210.126,296.113 219.071,298.921 220.912 C 300.971 222.255,307.316 221.876,311.000 220.190 C 311.660 219.888,313.343 219.352,314.739 218.999 C 316.136 218.647,317.576 218.201,317.939 218.010 C 318.303 217.818,319.770 217.358,321.200 216.988 C 322.630 216.617,323.980 216.174,324.200 216.003 C 324.420 215.832,325.230 215.561,326.000 215.401 C 326.770 215.241,328.390 214.784,329.600 214.386 C 330.810 213.987,334.448 212.831,337.685 211.817 C 340.921 210.803,343.677 209.799,343.808 209.587 C 343.940 209.374,344.360 209.200,344.742 209.200 C 347.377 209.200,351.647 203.636,352.264 199.400 C 353.515 190.810,350.088 187.126,342.400 188.796 M194.858 207.342 C 216.331 214.152,222.872 240.714,206.984 256.587 C 188.287 275.267,156.652 262.076,156.652 235.600 C 156.652 215.649,175.978 201.355,194.858 207.342 M78.800 209.669 C 78.030 209.882,75.510 210.406,73.200 210.834 C 70.890 211.261,68.640 211.777,68.200 211.979 C 67.760 212.182,66.230 212.540,64.800 212.775 C 61.848 213.260,60.631 213.490,59.200 213.833 C 58.217 214.068,53.951 214.897,51.200 215.389 C 49.229 215.741,45.121 217.231,44.369 217.866 C 44.021 218.160,43.541 218.400,43.302 218.400 C 42.405 218.400,39.585 222.155,38.998 224.131 C 36.931 231.091,39.328 237.143,44.400 237.772 C 45.170 237.868,45.890 237.979,46.000 238.020 C 46.110 238.061,46.317 238.079,46.461 238.060 C 50.507 237.528,55.502 236.666,56.302 236.361 C 56.877 236.143,59.223 235.602,61.515 235.159 C 63.807 234.717,65.979 234.193,66.341 233.995 C 66.704 233.798,68.530 233.345,70.400 232.990 C 72.270 232.634,73.971 232.176,74.180 231.972 C 74.389 231.767,74.917 231.600,75.354 231.600 C 76.281 231.600,81.033 230.501,82.200 230.017 C 82.640 229.834,83.869 229.375,84.931 228.997 C 92.188 226.415,94.275 214.093,88.137 210.069 C 86.673 209.110,81.607 208.893,78.800 209.669 M97.948 258.344 C 95.323 259.721,94.814 260.112,91.033 263.656 C 89.475 265.117,87.476 266.917,86.592 267.656 C 85.707 268.395,84.614 269.360,84.162 269.800 C 83.710 270.240,79.944 273.840,75.792 277.800 C 63.913 289.130,61.203 292.285,60.551 295.546 C 60.411 296.245,60.140 296.914,59.948 297.032 C 59.493 297.313,59.494 302.800,59.949 302.800 C 60.141 302.800,60.407 303.486,60.542 304.325 C 61.316 309.166,68.472 312.785,71.428 309.829 C 71.774 309.483,72.280 309.200,72.553 309.200 C 72.826 309.200,73.398 308.885,73.825 308.500 C 74.252 308.115,75.282 307.291,76.115 306.668 C 76.949 306.046,82.371 300.826,88.164 295.068 C 93.958 289.311,100.779 282.606,103.321 280.170 C 108.655 275.057,110.845 271.237,110.022 268.481 C 109.845 267.886,109.469 266.410,109.188 265.200 C 107.723 258.906,102.708 255.846,97.948 258.344 M289.136 258.987 C 289.061 259.056,288.260 259.213,287.356 259.336 C 281.734 260.104,276.274 266.565,278.171 270.203 C 278.514 270.862,278.796 271.613,278.798 271.874 C 278.802 272.781,286.790 282.263,292.472 288.106 C 293.502 289.165,294.924 290.699,295.632 291.515 C 302.411 299.328,311.231 308.303,313.011 309.199 C 313.665 309.529,314.290 309.890,314.400 310.001 C 315.616 311.234,321.768 311.703,324.181 310.747 C 331.270 307.938,332.884 300.972,327.783 295.200 C 327.297 294.650,326.832 293.984,326.750 293.720 C 326.537 293.039,309.642 275.262,300.200 265.785 C 295.127 260.692,290.422 257.802,289.136 258.987 M133.990 300.309 C 132.663 301.295,129.509 304.872,128.609 306.413 C 128.140 307.215,123.990 313.497,119.957 319.511 C 118.441 321.771,117.200 323.694,117.200 323.784 C 117.200 323.873,115.805 326.078,114.100 328.682 C 112.395 331.287,110.778 333.774,110.507 334.209 C 109.738 335.443,108.400 338.315,108.400 338.732 C 108.400 338.939,108.131 339.624,107.802 340.254 C 106.049 343.617,107.791 350.282,111.312 353.683 C 116.659 358.847,121.191 356.851,127.914 346.372 C 128.841 344.927,129.600 343.610,129.600 343.445 C 129.600 343.281,130.050 342.557,130.600 341.836 C 131.150 341.114,131.600 340.399,131.600 340.245 C 131.600 340.092,131.785 339.749,132.011 339.483 C 132.550 338.848,136.130 333.039,137.238 331.000 C 137.716 330.120,138.224 329.310,138.366 329.200 C 138.704 328.939,141.955 323.637,143.070 321.529 C 143.548 320.625,144.088 319.776,144.270 319.642 C 144.452 319.509,144.871 318.860,145.200 318.200 C 145.529 317.540,145.929 316.902,146.089 316.783 C 146.248 316.664,146.691 315.374,147.073 313.916 C 149.214 305.753,139.817 295.979,133.990 300.309 M238.261 301.873 C 238.184 301.949,237.097 302.279,235.846 302.605 C 230.346 304.037,229.044 307.285,230.982 314.739 C 231.345 316.136,231.809 317.576,232.013 317.939 C 232.529 318.858,235.087 325.609,235.416 326.921 C 235.565 327.515,235.826 328.000,235.996 328.000 C 236.166 328.000,236.520 328.855,236.782 329.900 C 237.045 330.945,237.502 332.340,237.797 333.000 C 238.887 335.432,241.200 341.385,241.213 341.786 C 241.219 342.014,241.668 343.100,242.209 344.200 C 242.750 345.300,243.194 346.422,243.196 346.692 C 243.201 347.348,245.665 352.458,246.300 353.129 C 246.575 353.419,246.800 353.802,246.800 353.979 C 246.800 354.367,249.482 357.127,250.790 358.085 C 254.848 361.057,266.945 358.415,266.351 354.686 C 266.309 354.419,266.413 353.880,266.584 353.488 C 266.755 353.097,266.783 351.657,266.647 350.288 C 266.302 346.812,266.300 346.800,265.979 346.800 C 265.820 346.800,265.599 346.305,265.486 345.700 C 265.116 343.713,264.863 342.864,264.360 341.926 C 264.088 341.417,263.897 340.954,263.937 340.898 C 263.977 340.842,263.737 340.145,263.405 339.349 C 263.072 338.553,262.800 337.727,262.800 337.513 C 262.800 337.299,262.544 336.646,262.231 336.062 C 261.151 334.044,259.200 329.508,259.200 329.015 C 259.200 328.742,258.787 327.727,258.282 326.760 C 257.777 325.792,257.118 324.235,256.818 323.300 C 256.518 322.365,256.143 321.600,255.986 321.600 C 255.829 321.600,255.597 321.087,255.472 320.460 C 255.347 319.833,254.784 318.314,254.222 317.086 C 253.660 315.857,253.200 314.715,253.200 314.549 C 253.200 313.996,249.107 305.812,248.448 305.048 C 246.506 302.795,239.517 300.617,238.261 301.873 M183.332 313.201 C 178.540 314.277,177.987 317.697,178.904 340.600 C 179.072 344.780,179.302 351.350,179.416 355.200 C 179.607 361.645,180.072 365.142,181.289 369.300 C 181.530 370.125,181.843 370.800,181.984 370.800 C 182.124 370.800,182.460 371.385,182.729 372.100 C 183.656 374.557,188.889 377.516,192.400 377.567 C 198.003 377.649,200.615 374.104,200.929 365.990 C 201.122 361.016,200.509 345.896,200.022 343.600 C 199.812 342.610,199.534 339.550,199.404 336.800 C 198.931 326.748,198.537 322.309,198.024 321.239 C 197.856 320.888,197.388 319.917,196.986 319.082 C 194.993 314.945,188.335 312.078,183.332 313.201 " stroke="none" fill="#f4f3cd" fill-rule="evenodd"></path><path id="path1" d="M329.700 119.876 C 330.085 119.976,330.715 119.976,331.100 119.876 C 331.485 119.775,331.170 119.693,330.400 119.693 C 329.630 119.693,329.315 119.775,329.700 119.876 M194.000 130.778 C 171.196 134.007,160.375 160.865,174.691 178.703 C 192.167 200.479,227.333 188.256,227.351 160.400 C 227.363 142.305,211.582 128.288,194.000 130.778 M181.600 206.254 C 167.683 208.051,156.652 221.026,156.652 235.600 C 156.652 262.076,188.287 275.267,206.984 256.587 C 227.190 236.401,210.129 202.571,181.600 206.254 " stroke="none" fill="#e4ec84" fill-rule="evenodd"></path></g></svg>