<svg id="svg" version="1.1" xmlns="http://www.w3.org/2000/svg" xmlns:xlink="http://www.w3.org/1999/xlink" width="400" height="400" viewBox="0, 0, 400,400"><g id="svgg"><path id="path0" d="M228.200 27.455 C 227.320 27.547,226.240 27.784,225.800 27.982 C 225.360 28.180,224.027 28.560,222.839 28.826 C 220.809 29.280,216.800 31.385,216.800 31.998 C 216.800 32.150,216.358 32.789,215.819 33.417 C 214.842 34.554,214.491 36.180,214.289 40.498 C 214.240 41.542,214.051 42.397,213.870 42.398 C 213.688 42.399,213.584 42.895,213.637 43.500 C 213.759 44.864,213.184 58.958,212.940 60.600 C 212.592 62.940,212.461 96.662,212.785 100.600 C 213.196 105.613,213.627 109.561,213.877 110.600 C 213.983 111.040,214.415 113.549,214.836 116.175 C 215.258 118.801,215.780 121.501,215.996 122.175 C 216.373 123.346,217.061 125.841,218.810 132.379 C 219.249 134.017,219.744 135.457,219.910 135.579 C 220.077 135.700,220.440 136.675,220.717 137.745 C 220.994 138.815,221.558 140.435,221.969 141.345 C 222.381 142.255,222.945 143.765,223.222 144.700 C 223.500 145.635,223.850 146.400,224.000 146.400 C 224.150 146.400,224.502 147.165,224.781 148.100 C 225.061 149.035,225.719 150.571,226.245 151.514 C 226.770 152.457,227.200 153.479,227.200 153.786 C 227.200 154.092,227.443 154.586,227.740 154.882 C 228.036 155.179,228.501 156.094,228.772 156.915 C 229.043 157.736,229.475 158.631,229.732 158.904 C 229.990 159.177,231.100 161.161,232.200 163.312 C 235.010 168.808,237.323 173.003,239.638 176.800 C 239.840 177.130,240.399 178.165,240.882 179.100 C 241.364 180.035,241.897 180.800,242.066 180.800 C 242.922 180.800,243.206 182.428,242.566 183.666 C 241.549 185.631,240.439 190.814,240.359 193.961 C 240.320 195.522,240.114 196.800,239.902 196.800 C 239.504 196.800,239.530 197.077,240.557 203.600 C 241.207 207.731,241.582 209.290,241.999 209.600 C 243.673 210.843,243.181 213.308,240.196 218.646 C 238.569 221.555,236.963 224.535,236.627 225.268 C 236.291 226.000,235.837 226.870,235.618 227.200 C 235.399 227.530,234.217 229.960,232.990 232.600 C 231.763 235.240,230.453 238.016,230.080 238.769 C 229.706 239.522,229.384 240.242,229.365 240.369 C 229.309 240.747,228.782 242.094,228.025 243.800 C 227.634 244.680,227.090 246.030,226.817 246.800 C 226.543 247.570,226.162 248.560,225.970 249.000 C 225.280 250.584,224.412 253.414,224.406 254.100 C 224.403 254.485,224.251 254.800,224.069 254.800 C 223.887 254.800,223.395 256.240,222.975 258.000 C 222.556 259.760,222.098 261.200,221.957 261.200 C 221.817 261.200,221.376 262.775,220.978 264.700 C 220.579 266.625,220.124 268.290,219.965 268.400 C 219.806 268.510,219.377 270.310,219.011 272.400 C 218.645 274.490,218.182 276.560,217.982 277.000 C 217.550 277.948,216.400 285.070,216.400 286.796 C 216.400 287.458,216.250 288.000,216.067 288.000 C 215.883 288.000,215.721 288.225,215.705 288.500 C 215.690 288.775,215.397 291.700,215.054 295.000 C 214.711 298.300,214.328 301.990,214.204 303.200 C 213.465 310.364,213.317 314.445,213.316 327.600 C 213.315 341.065,213.613 350.839,214.115 353.800 C 214.227 354.460,214.435 357.790,214.577 361.200 C 214.864 368.089,215.519 374.787,215.965 375.400 C 216.125 375.620,216.503 376.584,216.806 377.543 C 217.109 378.501,217.573 379.368,217.839 379.470 C 218.104 379.572,218.412 380.002,218.523 380.426 C 218.633 380.849,219.048 381.320,219.445 381.472 C 219.841 381.625,220.573 382.103,221.071 382.536 C 227.206 387.871,251.600 385.660,251.600 379.769 C 251.600 379.456,251.762 379.200,251.961 379.200 C 253.100 379.200,253.527 365.004,252.594 358.200 C 252.503 357.540,252.402 354.703,252.369 351.895 C 252.336 349.088,252.195 346.720,252.055 346.633 C 251.721 346.426,251.778 330.802,252.135 324.400 C 252.868 311.273,253.565 301.990,253.878 301.200 C 254.009 300.870,254.522 297.990,255.017 294.800 C 255.513 291.610,256.104 288.280,256.329 287.400 C 256.736 285.813,256.984 284.482,257.447 281.400 C 257.579 280.520,257.828 279.620,258.000 279.400 C 258.172 279.180,258.626 277.560,259.008 275.800 C 259.390 274.040,259.842 272.420,260.012 272.200 C 260.181 271.980,260.634 270.540,261.018 269.000 C 261.401 267.460,261.942 265.840,262.218 265.400 C 262.495 264.960,262.847 263.970,263.000 263.200 C 263.153 262.430,263.502 261.440,263.776 261.000 C 264.050 260.560,264.405 259.667,264.565 259.016 C 264.726 258.365,265.282 256.925,265.802 255.816 C 266.322 254.707,267.416 252.270,268.234 250.400 C 269.051 248.530,269.839 246.910,269.983 246.800 C 270.127 246.690,270.490 245.970,270.789 245.200 C 271.087 244.430,271.536 243.530,271.786 243.200 C 272.035 242.870,272.591 241.880,273.020 241.000 C 273.449 240.120,273.899 239.310,274.021 239.200 C 274.142 239.090,274.575 238.284,274.982 237.410 C 276.471 234.213,279.652 233.455,281.077 235.957 C 283.009 239.351,290.367 254.362,290.956 256.114 C 291.310 257.167,291.842 258.427,292.137 258.914 C 292.432 259.401,292.920 260.610,293.220 261.600 C 293.521 262.590,293.880 263.490,294.019 263.600 C 294.158 263.710,294.598 265.015,294.995 266.500 C 295.393 267.985,295.830 269.200,295.966 269.200 C 296.102 269.200,296.556 270.640,296.975 272.400 C 297.395 274.160,297.887 275.600,298.069 275.600 C 298.251 275.600,298.397 275.825,298.393 276.100 C 298.378 277.202,299.792 282.800,300.086 282.800 C 300.259 282.800,300.400 283.344,300.400 284.009 C 300.400 284.673,300.839 287.058,301.375 289.309 C 302.429 293.732,302.740 295.569,304.371 307.000 C 304.869 310.491,305.147 313.903,305.430 320.000 C 305.568 322.970,305.830 326.480,306.012 327.800 C 306.329 330.098,306.200 351.081,305.846 354.778 C 305.497 358.435,305.001 370.748,305.041 374.800 C 305.101 380.945,307.378 383.744,313.169 384.794 C 317.482 385.577,330.535 385.039,331.180 384.052 C 331.301 383.867,332.120 383.586,333.000 383.428 C 334.611 383.138,338.800 380.587,338.800 379.895 C 338.800 379.691,339.135 379.046,339.544 378.462 C 340.721 376.784,341.141 373.955,341.427 365.800 C 341.573 361.620,341.751 357.660,341.821 357.000 C 342.478 350.843,342.600 346.146,342.598 327.000 C 342.596 311.366,342.461 304.595,342.131 303.600 C 341.876 302.830,341.557 300.490,341.424 298.400 C 341.218 295.177,340.643 289.754,340.279 287.600 C 340.223 287.270,340.068 286.820,339.934 286.600 C 339.800 286.380,339.563 285.030,339.406 283.600 C 339.250 282.170,338.861 279.830,338.543 278.400 C 338.225 276.970,337.611 274.180,337.180 272.200 C 336.391 268.581,336.318 268.301,335.885 267.200 C 335.612 266.506,334.325 261.974,333.129 257.500 C 332.674 255.795,332.143 254.400,331.951 254.400 C 331.758 254.400,331.600 254.063,331.600 253.650 C 331.600 252.917,331.251 251.867,329.392 247.000 C 328.888 245.680,328.013 243.391,327.449 241.912 C 326.884 240.434,326.253 238.904,326.046 238.512 C 325.839 238.121,325.207 236.763,324.642 235.497 C 322.528 230.760,321.657 228.898,319.754 225.049 C 316.903 219.286,316.339 218.223,316.011 218.000 C 315.849 217.890,315.492 217.112,315.218 216.272 C 314.944 215.432,314.468 214.647,314.160 214.529 C 313.852 214.411,313.600 214.126,313.600 213.895 C 313.600 213.664,313.150 212.886,312.600 212.164 C 311.622 210.882,311.253 209.200,311.950 209.200 C 312.407 209.200,313.514 203.030,313.743 199.200 C 313.929 196.098,313.212 189.231,312.451 186.832 C 312.071 185.636,312.117 185.394,312.808 184.909 C 313.244 184.604,313.600 184.095,313.600 183.777 C 313.600 183.460,313.784 183.200,314.010 183.200 C 314.235 183.200,314.580 182.795,314.775 182.300 C 314.971 181.805,315.596 180.780,316.165 180.022 C 316.734 179.265,317.200 178.432,317.200 178.171 C 317.200 177.911,317.483 177.463,317.829 177.176 C 318.175 176.889,318.850 175.951,319.329 175.092 C 320.799 172.457,321.383 171.486,322.919 169.119 C 323.734 167.865,324.400 166.764,324.400 166.673 C 324.400 166.582,325.715 164.189,327.323 161.354 C 329.840 156.916,336.944 142.982,336.987 142.400 C 336.995 142.290,337.472 141.210,338.048 140.000 C 339.979 135.938,340.800 134.114,340.800 133.885 C 340.800 133.471,336.758 133.212,320.800 132.605 C 312.110 132.275,304.159 131.924,303.131 131.825 C 301.368 131.655,301.240 131.710,300.863 132.791 C 300.644 133.421,300.135 134.287,299.732 134.716 C 294.864 139.900,294.090 140.856,292.214 144.000 C 291.361 145.430,290.275 147.230,289.802 148.000 C 287.478 151.776,286.400 153.687,286.400 154.027 C 286.400 154.232,286.265 154.400,286.099 154.400 C 285.934 154.400,284.921 155.840,283.850 157.600 L 281.901 160.800 278.738 160.800 C 276.087 160.800,275.535 160.687,275.326 160.100 C 274.882 158.854,268.250 147.004,267.920 146.867 C 267.744 146.793,267.600 146.558,267.600 146.343 C 267.600 145.856,264.389 139.074,264.029 138.800 C 263.885 138.690,263.512 137.811,263.202 136.847 C 262.891 135.883,262.448 134.893,262.218 134.647 C 261.987 134.401,261.457 133.210,261.040 132.000 C 260.623 130.790,260.156 129.620,260.002 129.400 C 259.848 129.180,259.407 128.010,259.021 126.800 C 258.635 125.590,258.193 124.510,258.038 124.400 C 257.883 124.290,257.435 122.850,257.044 121.200 C 256.652 119.550,256.186 118.020,256.009 117.800 C 255.832 117.580,255.374 115.960,254.991 114.200 C 254.609 112.440,254.149 110.715,253.969 110.366 C 253.790 110.018,253.366 108.038,253.027 105.966 C 252.689 103.895,252.303 101.750,252.170 101.200 C 251.568 98.714,251.248 96.170,250.810 90.400 C 250.551 86.990,250.170 83.433,249.963 82.495 C 249.494 80.374,249.584 53.657,250.061 53.362 C 250.252 53.244,250.384 52.664,250.354 52.074 C 250.323 51.483,250.435 47.485,250.603 43.188 L 250.907 35.376 249.800 33.037 C 249.170 31.706,248.371 30.613,247.947 30.502 C 247.536 30.395,247.200 30.150,247.200 29.959 C 247.200 29.461,244.499 28.400,243.231 28.400 C 242.642 28.400,241.946 28.186,241.684 27.924 C 241.202 27.442,231.554 27.107,228.200 27.455 M285.000 179.334 C 309.510 186.779,305.965 215.524,280.286 217.564 C 261.792 219.033,247.871 203.412,255.282 189.507 C 260.175 180.326,273.382 175.805,285.000 179.334 M170.400 268.603 C 165.670 268.873,157.507 269.330,152.260 269.620 C 141.177 270.230,142.099 269.598,143.189 275.843 C 143.645 278.459,144.380 282.850,144.822 285.600 C 145.263 288.350,145.780 290.960,145.971 291.400 C 146.299 292.155,146.879 295.863,147.442 300.800 C 147.580 302.010,147.829 303.180,147.995 303.400 C 148.161 303.620,148.424 305.060,148.578 306.600 C 148.732 308.140,148.912 309.850,148.978 310.400 C 149.044 310.950,149.224 313.020,149.378 315.000 C 149.532 316.980,149.780 319.680,149.928 321.000 C 150.259 323.954,150.234 342.363,149.894 346.200 C 149.757 347.740,149.529 351.700,149.387 355.000 C 149.245 358.300,148.994 363.340,148.830 366.200 C 148.271 375.959,148.998 380.691,151.186 381.526 C 151.524 381.654,152.156 382.091,152.592 382.495 C 153.028 382.900,153.838 383.325,154.392 383.440 C 154.946 383.554,155.743 383.836,156.162 384.066 C 157.061 384.559,164.056 385.110,167.200 384.935 C 171.715 384.684,174.186 384.346,174.434 383.945 C 174.575 383.718,174.807 383.562,174.950 383.600 C 177.052 384.150,181.654 381.567,183.306 378.910 C 184.821 376.473,185.077 374.939,185.393 366.400 C 185.544 362.330,185.728 358.550,185.802 358.000 C 186.267 354.541,186.374 353.184,186.623 347.600 C 186.775 344.190,186.950 340.950,187.014 340.400 C 187.914 332.569,187.489 305.361,186.361 298.600 C 186.141 297.280,185.592 293.590,185.141 290.400 C 184.691 287.210,184.204 284.510,184.060 284.400 C 183.915 284.290,183.745 283.660,183.681 283.000 C 183.617 282.340,183.397 280.900,183.191 279.800 C 182.986 278.700,182.704 276.900,182.565 275.800 C 182.427 274.700,182.171 273.530,181.997 273.200 C 181.823 272.870,181.552 271.565,181.394 270.300 C 181.125 268.134,181.046 268.003,180.054 268.056 C 179.474 268.087,175.130 268.333,170.400 268.603 " stroke="none" fill="#f46c63" fill-rule="evenodd"></path><path id="path1" d="M157.521 25.812 C 157.430 25.904,156.020 26.259,154.389 26.602 C 152.712 26.955,151.060 27.568,150.586 28.013 C 150.125 28.446,149.539 28.800,149.282 28.800 C 146.880 28.800,146.004 34.585,146.799 45.200 C 147.004 47.950,147.283 52.630,147.418 55.600 C 147.553 58.570,147.829 61.978,148.032 63.173 C 148.509 65.990,148.508 82.084,148.031 86.210 C 147.828 87.965,147.552 91.110,147.418 93.200 C 147.099 98.158,146.429 104.389,146.105 105.400 C 145.762 106.471,145.771 106.427,145.013 111.000 C 144.648 113.200,144.192 115.360,143.998 115.800 C 143.805 116.240,143.534 117.230,143.397 118.000 C 143.071 119.833,140.497 128.245,139.768 129.860 C 139.456 130.554,139.200 131.284,139.200 131.483 C 139.200 132.229,134.954 142.380,133.965 144.000 C 133.763 144.330,133.401 145.050,133.161 145.600 C 132.297 147.577,131.963 148.230,130.806 150.200 C 130.160 151.300,129.327 152.875,128.955 153.700 C 128.583 154.525,128.153 155.200,128.000 155.200 C 127.847 155.200,127.382 155.965,126.968 156.900 C 125.937 159.226,125.674 159.435,123.392 159.734 L 121.400 159.995 119.800 157.156 C 118.920 155.595,117.725 153.481,117.145 152.458 C 113.283 145.657,106.800 132.513,106.800 131.485 C 106.800 131.196,106.596 130.756,106.347 130.507 C 106.098 130.258,105.552 129.007,105.133 127.727 C 104.714 126.447,104.202 125.040,103.995 124.600 C 102.909 122.291,99.474 110.959,98.781 107.400 C 98.524 106.080,98.180 104.820,98.018 104.600 C 97.856 104.380,97.402 101.950,97.010 99.200 C 96.617 96.450,96.155 93.926,95.983 93.592 C 95.811 93.258,95.382 89.478,95.028 85.192 C 94.675 80.906,94.260 76.230,94.106 74.800 C 93.743 71.427,93.761 50.632,94.131 47.000 C 94.848 39.948,94.633 32.298,93.673 30.746 C 91.240 26.807,84.253 25.259,74.200 26.432 C 68.993 27.040,67.999 27.233,66.200 27.985 C 65.760 28.169,64.815 28.539,64.100 28.808 C 63.385 29.077,62.800 29.460,62.800 29.658 C 62.800 29.857,62.333 30.198,61.761 30.415 C 61.190 30.632,60.629 31.167,60.515 31.605 C 60.400 32.042,60.177 32.400,60.018 32.400 C 59.478 32.400,58.848 34.326,58.623 36.667 C 58.060 42.517,57.910 44.597,57.630 50.400 C 57.198 59.353,57.179 87.937,57.603 92.400 C 58.359 100.368,59.234 107.876,59.632 109.800 C 59.859 110.900,60.395 113.690,60.823 116.000 C 61.251 118.310,61.776 120.650,61.989 121.200 C 62.203 121.750,62.674 123.550,63.036 125.200 C 63.398 126.850,63.829 128.380,63.994 128.600 C 64.160 128.820,64.520 129.990,64.795 131.200 C 65.070 132.410,65.528 133.940,65.812 134.600 C 66.097 135.260,66.639 136.790,67.018 138.000 C 67.396 139.210,67.839 140.380,68.001 140.600 C 68.163 140.820,68.519 141.720,68.792 142.600 C 69.066 143.480,69.511 144.560,69.781 145.000 C 70.052 145.440,70.394 146.288,70.540 146.885 C 70.687 147.481,71.817 150.091,73.050 152.685 C 74.284 155.278,75.452 157.760,75.645 158.200 C 75.839 158.640,76.157 159.270,76.351 159.600 C 76.544 159.930,76.999 160.830,77.362 161.600 C 77.724 162.370,78.908 164.620,79.992 166.600 C 81.077 168.580,82.337 170.920,82.792 171.800 C 83.248 172.680,84.142 174.300,84.780 175.400 C 85.418 176.500,86.345 178.164,86.840 179.098 C 87.335 180.032,88.313 181.422,89.013 182.187 L 90.287 183.577 89.393 186.688 C 88.575 189.534,87.917 194.490,87.891 198.000 C 87.877 199.856,89.089 207.073,89.555 207.905 C 89.827 208.392,89.585 208.977,88.611 210.180 C 87.890 211.071,86.997 212.340,86.626 213.000 C 86.256 213.660,84.976 215.820,83.781 217.800 C 82.587 219.780,81.317 222.030,80.960 222.800 C 80.603 223.570,80.176 224.290,80.012 224.400 C 79.848 224.510,79.325 225.410,78.850 226.400 C 78.375 227.390,77.085 229.820,75.984 231.800 C 74.882 233.780,73.614 236.210,73.166 237.200 C 72.718 238.190,71.930 239.900,71.415 241.000 C 69.054 246.044,68.400 247.592,68.400 248.142 C 68.400 248.467,68.257 248.793,68.081 248.867 C 67.751 249.005,65.649 254.195,64.787 257.000 C 64.517 257.880,64.161 258.780,63.996 259.000 C 63.831 259.220,63.398 260.480,63.033 261.800 C 62.668 263.120,62.202 264.560,61.997 265.000 C 61.628 265.792,60.548 269.769,59.336 274.800 C 58.992 276.230,58.455 278.262,58.142 279.315 C 57.830 280.368,57.292 283.068,56.947 285.315 C 56.602 287.562,56.157 289.760,55.958 290.200 C 55.543 291.118,54.400 300.563,54.400 303.072 C 54.400 303.994,54.222 305.216,54.004 305.789 C 52.698 309.226,52.685 353.618,53.989 361.334 C 54.181 362.470,54.444 365.740,54.574 368.600 C 55.010 378.212,57.432 381.952,64.054 383.235 C 65.454 383.506,66.714 383.900,66.852 384.111 C 67.338 384.846,80.901 384.990,83.067 384.282 C 84.130 383.935,85.473 383.565,86.052 383.461 C 87.145 383.263,88.932 382.387,90.046 381.503 C 90.402 381.221,91.194 380.031,91.808 378.858 L 92.922 376.727 92.629 370.463 C 92.468 367.018,92.326 363.930,92.313 363.600 C 92.301 363.270,92.173 362.820,92.029 362.600 C 91.390 361.622,91.116 321.785,91.717 317.200 C 92.334 312.500,92.720 309.296,92.971 306.800 C 93.513 301.411,93.632 300.574,93.988 299.600 C 94.189 299.050,94.651 296.620,95.015 294.200 C 95.378 291.780,95.816 289.620,95.986 289.400 C 96.157 289.180,96.600 287.560,96.969 285.800 C 97.339 284.040,97.798 282.240,97.988 281.800 C 98.179 281.360,98.649 279.740,99.033 278.200 C 99.418 276.660,99.853 275.220,100.000 275.000 C 100.148 274.780,100.593 273.520,100.989 272.200 C 101.386 270.880,101.847 269.620,102.014 269.400 C 102.181 269.180,102.590 268.080,102.921 266.955 C 103.253 265.831,103.712 264.571,103.942 264.155 C 104.705 262.777,107.600 256.006,107.600 255.599 C 107.600 255.380,107.744 255.200,107.920 255.200 C 108.095 255.200,108.483 254.525,108.781 253.700 C 109.301 252.261,114.198 243.397,117.013 238.800 C 117.754 237.590,118.733 235.925,119.188 235.100 C 119.943 233.732,120.165 233.600,121.708 233.604 C 124.235 233.611,126.398 234.047,126.413 234.552 C 126.429 235.133,127.401 237.048,134.259 250.000 C 134.666 250.770,135.135 251.460,135.300 251.533 C 135.465 251.607,135.600 251.907,135.600 252.200 C 135.600 252.493,135.744 252.793,135.921 252.867 C 137.172 253.387,140.476 260.808,141.051 264.390 C 141.387 266.486,141.768 268.470,141.897 268.800 C 142.026 269.130,142.146 269.570,142.165 269.778 C 142.205 270.207,143.323 270.178,156.600 269.399 C 161.880 269.090,168.540 268.732,171.400 268.605 C 174.260 268.477,177.563 268.274,178.740 268.153 L 180.881 267.932 180.607 266.107 C 180.457 265.104,180.178 263.994,179.988 263.641 C 179.798 263.289,179.343 261.380,178.977 259.400 C 178.610 257.420,178.185 255.620,178.031 255.400 C 177.878 255.180,177.418 253.650,177.009 252.000 C 176.600 250.350,176.049 248.640,175.783 248.200 C 175.517 247.760,175.088 246.516,174.828 245.437 C 174.569 244.357,174.096 243.102,173.778 242.648 C 173.460 242.194,173.200 241.597,173.200 241.323 C 173.200 239.654,161.791 216.535,159.420 213.400 C 158.565 212.268,158.547 212.120,159.111 210.800 C 159.440 210.030,159.857 209.040,160.038 208.600 C 162.179 203.389,162.194 190.286,160.064 185.502 C 158.711 182.464,158.678 178.800,160.004 178.800 C 160.192 178.800,160.456 178.454,160.590 178.030 C 160.725 177.607,161.238 176.662,161.732 175.930 C 162.225 175.199,162.882 173.970,163.192 173.200 C 163.501 172.430,163.886 171.708,164.046 171.596 C 164.439 171.320,167.632 165.386,169.639 161.200 C 173.234 153.703,173.600 152.879,173.600 152.284 C 173.600 151.945,173.742 151.607,173.916 151.533 C 174.235 151.399,175.440 148.469,176.850 144.400 C 177.270 143.190,177.760 141.930,177.940 141.600 C 178.120 141.270,178.597 139.740,179.000 138.200 C 179.403 136.660,179.857 135.220,180.010 135.000 C 180.162 134.780,180.597 133.160,180.976 131.400 C 181.355 129.640,181.830 127.889,182.030 127.509 C 182.231 127.130,182.683 125.060,183.035 122.909 C 183.387 120.759,183.824 118.709,184.007 118.354 C 184.296 117.793,184.597 115.631,185.813 105.400 C 186.623 98.591,186.741 95.643,186.706 83.200 C 186.670 70.362,186.423 63.403,185.884 60.000 C 185.762 59.230,185.555 56.710,185.423 54.400 C 184.946 46.002,184.306 38.985,183.957 38.326 C 183.761 37.956,183.592 37.236,183.582 36.726 C 183.560 35.529,182.689 33.099,181.965 32.215 C 180.727 30.701,178.572 28.804,178.087 28.802 C 177.806 28.801,177.482 28.557,177.368 28.261 C 177.184 27.782,174.905 27.183,168.800 26.010 C 166.990 25.663,157.832 25.502,157.521 25.812 M319.400 27.638 C 307.738 28.879,305.134 32.441,306.991 44.611 C 307.059 45.057,307.241 47.577,307.394 50.211 C 307.548 52.845,307.853 55.810,308.072 56.800 C 308.571 59.051,308.826 84.204,308.396 88.800 C 307.744 95.768,306.306 106.390,305.932 107.000 C 305.797 107.220,305.378 110.100,305.002 113.400 C 304.626 116.700,304.219 119.670,304.098 120.000 C 303.976 120.330,303.811 121.050,303.731 121.600 C 303.257 124.840,302.253 129.455,301.952 129.780 C 301.287 130.498,301.585 131.582,302.500 131.770 C 303.203 131.915,319.708 132.620,339.328 133.344 L 340.857 133.400 341.799 130.456 C 342.375 128.660,342.928 125.464,343.220 122.256 C 343.482 119.365,343.844 116.815,344.024 116.589 C 344.203 116.363,344.621 113.663,344.952 110.589 C 345.739 103.278,345.975 101.330,346.308 99.400 C 346.662 97.353,346.637 66.053,346.280 63.400 C 345.947 60.926,345.688 57.421,345.017 46.350 C 344.256 33.803,342.443 30.729,334.800 29.036 C 333.150 28.670,330.990 28.195,330.000 27.979 C 327.697 27.477,322.486 27.309,319.400 27.638 M128.548 176.596 C 146.882 180.480,154.645 197.755,143.200 209.200 C 130.019 222.381,103.304 215.037,100.283 197.403 C 98.096 184.632,113.378 173.382,128.548 176.596 " stroke="none" fill="#ac5ce3" fill-rule="evenodd"></path><path id="path2" d="M119.600 176.273 C 107.984 177.472,98.623 187.711,100.283 197.403 C 104.524 222.160,148.200 221.793,148.200 197.000 C 148.200 184.057,135.232 174.658,119.600 176.273 M272.027 178.408 C 254.021 182.220,247.378 198.420,259.000 210.176 C 276.612 227.991,310.445 211.657,299.672 190.541 C 295.370 182.109,282.085 176.278,272.027 178.408 M341.293 366.800 C 341.293 367.570,341.375 367.885,341.476 367.500 C 341.576 367.115,341.576 366.485,341.476 366.100 C 341.375 365.715,341.293 366.030,341.293 366.800 " stroke="none" fill="#f3f2ce" fill-rule="evenodd"></path></g></svg>